<svg width="30" height="30" viewBox="0 0 30 30" fill="none" xmlns="http://www.w3.org/2000/svg">
<circle cx="15" cy="15" r="15" fill="#150E72"/>
<path fill-rule="evenodd" clip-rule="evenodd" d="M0 15C0 6.71573 6.71573 0 15 0C23.2843 0 30 6.71573 30 15C30 23.2843 23.2843 30 15 30C6.71573 30 0 23.2843 0 15ZM10.6004 12.4237H7.20109V22.6373H10.6004V12.4237ZM10.7501 9.37435C10.7284 8.31038 10.0262 7.5 8.88589 7.5C7.74557 7.5 7.00007 8.31038 7.00007 9.37435C7.00007 10.4163 7.72354 11.25 8.84262 11.25H8.86392C10.0262 11.25 10.7501 10.4163 10.7501 9.37435ZM22.8597 16.7811C22.8597 13.644 21.1827 12.1839 18.9458 12.1839C17.1409 12.1839 16.3329 13.1752 15.8817 13.8706V12.424H12.482C12.5268 13.3824 12.482 22.6375 12.482 22.6375H15.8817V16.9334C15.8817 16.6282 15.9038 16.3237 15.9937 16.1051C16.2394 15.4953 16.7987 14.8639 17.7379 14.8639C18.9684 14.8639 19.4603 15.8005 19.4603 17.173V22.6373H22.8595L22.8597 16.7811Z" fill="white"/>
</svg>
