<svg width="30" height="30" viewBox="0 0 30 30" fill="none" xmlns="http://www.w3.org/2000/svg">
<circle cx="15" cy="15" r="15" fill="#150E72"/>
<path fill-rule="evenodd" clip-rule="evenodd" d="M15 30C6.71573 30 0 23.2843 0 15C0 6.71573 6.71573 0 15 0C23.2843 0 30 6.71573 30 15C30 23.2843 23.2843 30 15 30ZM15.4944 23.3453C20.4122 23.3433 24.4119 19.3427 24.4138 14.4259C24.4148 12.0427 23.4879 9.80176 21.8039 8.11588C20.1199 6.42992 17.8804 5.50103 15.4943 5.5C10.578 5.5 6.57674 9.50106 6.57478 14.4189C6.57411 15.9909 6.98483 17.5253 7.76538 18.878L6.5 23.5L11.2283 22.2597C12.5311 22.9703 13.9979 23.3448 15.4907 23.3453H15.4944Z" fill="white"/>
<path fill-rule="evenodd" clip-rule="evenodd" d="M11.4477 20.6452L8.64187 21.3813L9.3908 18.6456L9.21453 18.3651C8.47242 17.1848 8.08048 15.8205 8.08106 14.4197C8.08268 10.3323 11.4084 7.00684 15.4977 7.00684C17.4778 7.00752 19.3392 7.77962 20.7389 9.18093C22.1385 10.5822 22.9089 12.4448 22.9081 14.4257C22.9065 18.5135 19.5808 21.8393 15.4947 21.8393H15.4917C14.1614 21.8388 12.8567 21.4814 11.7184 20.8059L11.4477 20.6452ZM19.9883 16.5473C19.9326 16.4543 19.7841 16.3985 19.5612 16.2869C19.3383 16.1754 18.2426 15.6363 18.0383 15.5618C17.834 15.4875 17.6854 15.4504 17.5368 15.6734C17.3883 15.8965 16.9612 16.3985 16.8312 16.5473C16.7012 16.696 16.5711 16.7146 16.3484 16.603C16.1255 16.4915 15.4074 16.2562 14.5561 15.4969C13.8936 14.9059 13.4463 14.1761 13.3163 13.953C13.1863 13.7298 13.3024 13.6093 13.414 13.4981C13.5142 13.3982 13.6369 13.2378 13.7483 13.1077C13.8597 12.9776 13.8969 12.8845 13.9711 12.7359C14.0454 12.5871 14.0083 12.457 13.9526 12.3454C13.8969 12.2339 13.4511 11.1369 13.2654 10.6906C13.0845 10.256 12.9008 10.3149 12.764 10.3081C12.6341 10.3015 12.4854 10.3002 12.3368 10.3002C12.1883 10.3002 11.9468 10.3559 11.7425 10.5791C11.5383 10.8022 10.9625 11.3414 10.9625 12.4383C10.9625 13.5353 11.7611 14.5951 11.8725 14.7438C11.984 14.8926 13.4441 17.1436 15.6798 18.109C16.2115 18.3386 16.6266 18.4758 16.9503 18.5785C17.4842 18.7481 17.9701 18.7242 18.354 18.6668C18.7822 18.6028 19.6726 18.1277 19.8584 17.6071C20.044 17.0864 20.044 16.6402 19.9883 16.5473Z" fill="white"/>
</svg>
