<svg width="128" height="84" viewBox="0 0 128 84" fill="none" xmlns="http://www.w3.org/2000/svg">
<path d="M97.7793 56.6471H102.266V59.5882H97.7793V56.6471Z" fill="white"/>
<path fill-rule="evenodd" clip-rule="evenodd" d="M25.9955 14C25.1696 14 24.5 14.6584 24.5 15.4706V52.2353C24.5 53.0475 25.1696 53.7059 25.9955 53.7059H45.4369V58.8529H42.4459V61.7941H67.8694V58.8529H63.3829V53.7059H71.6081V62.5294C71.6081 63.3416 72.2777 64 73.1036 64H106.005C106.83 64 107.5 63.3416 107.5 62.5294V41.2059C107.5 40.3937 106.83 39.7353 106.005 39.7353H93.2928C92.4668 39.7353 91.7973 40.3937 91.7973 41.2059V61.0588H74.5991V31.6471H95.536V37.5294H98.527V30.1765C98.527 29.3643 97.8575 28.7059 97.0315 28.7059H82.8243V19.1471H79.8333V28.7059H73.1036C72.2777 28.7059 71.6081 29.3643 71.6081 30.1765V50.7647H27.491V47.8235H67.8691C67.8691 47.8235 67.8694 47.8235 67.8694 46.3529C67.8694 44.8824 67.8681 44.8824 67.8681 44.8824H27.491V16.9412H82.8243V14H25.9955ZM60.3919 53.7059H48.4279V58.8529H60.3919V53.7059ZM104.509 61.0588H94.7883V42.6765H104.509V61.0588Z" fill="white"/>
<path d="M87.3108 56.6471H79.8333V59.5882H87.3108V56.6471Z" fill="white"/>
<path fill-rule="evenodd" clip-rule="evenodd" d="M32.0455 39.9717V20.5967H39.3007L42.493 24.0158H54.6818V39.9717H32.0455ZM45.7504 27.8095C45.8679 27.5094 45.7091 27.1749 45.3955 27.0624C45.082 26.9498 44.7325 27.1019 44.6149 27.402L40.9769 36.6874C40.8593 36.9875 41.0182 37.322 41.3317 37.4346C41.6453 37.5471 41.9948 37.3951 42.1124 37.095L45.7504 27.8095ZM47.7335 29.2266C47.4967 28.9999 47.1128 28.9999 46.876 29.2266C46.6393 29.4532 46.6393 29.8206 46.876 30.0473L49.1758 32.2484L46.876 34.4496C46.6393 34.6763 46.6393 35.0437 46.876 35.2703C47.1128 35.497 47.4967 35.497 47.7335 35.2703L50.462 32.6588C50.6988 32.4322 50.6988 32.0647 50.462 31.8381L47.7335 29.2266ZM39.8512 29.2266C39.6144 28.9999 39.2305 28.9999 38.9937 29.2266L36.2653 31.8381C36.0285 32.0647 36.0285 32.4322 36.2653 32.6588L38.9937 35.2703C39.2305 35.497 39.6144 35.497 39.8512 35.2703C40.088 35.0437 40.088 34.6763 39.8512 34.4496L37.5515 32.2484L39.8512 30.0473C40.088 29.8206 40.088 29.4532 39.8512 29.2266Z" fill="white"/>
</svg>
