<svg width="64" height="64" viewBox="0 0 64 64" fill="none" xmlns="http://www.w3.org/2000/svg">
<path d="M22.273 35.672C23.0322 36.503 24.2622 36.503 25.0214 35.672L35.0203 24.7271C37.7915 21.6938 42.3164 21.6024 45.1104 24.6191C47.9271 27.6607 47.9423 32.622 45.1483 35.6803L36.4553 45.1874C34.9368 46.8495 34.9368 49.5338 36.4553 51.1959L47.798 38.7801C52.1028 34.068 52.1711 26.2811 47.8436 21.6024C45.1939 18.7353 41.542 17.6466 38.1255 18.328C38.7481 14.5883 37.7535 10.591 35.1342 7.69067C30.8598 2.94541 23.7459 3.02851 19.4411 7.74054L12.6992 15.1119V21.1204L22.2123 10.7074C24.9834 7.67405 29.5084 7.58264 32.3023 10.5993C35.119 13.641 35.1342 18.6023 32.3403 21.6605L22.273 32.6719C21.5138 33.5029 21.5138 34.8492 22.273 35.672Z" fill="#150E72"/>
<path d="M41.4843 28.6655C40.7251 27.8345 39.4951 27.8345 38.7359 28.6655L28.7446 39.6104C25.9734 42.6437 21.4484 42.7351 18.6545 39.7184C15.8378 36.6768 15.8226 31.7155 18.6165 28.6572L27.3096 19.1418C28.8281 17.4797 28.8281 14.7954 27.3096 13.1333L15.9593 25.5574C11.6545 30.2694 11.5862 38.0563 15.9137 42.7351C18.5634 45.6022 22.2152 46.6909 25.6317 46.0094C25.0092 49.7491 26.0038 53.7465 28.6231 56.6468C32.8975 61.3921 40.0114 61.309 44.3162 56.5969L51.0581 49.2173V43.2088L41.5526 53.6301C38.7815 56.6634 34.2565 56.7548 31.4626 53.7382C28.6459 50.7048 28.6307 45.7435 31.4246 42.6853L41.4919 31.6656C42.2435 30.8346 42.2435 29.4966 41.4843 28.6655Z" fill="#150E72"/>
</svg>
