<svg width="39" height="38" viewBox="0 0 39 38" fill="none" xmlns="http://www.w3.org/2000/svg">
<mask id="path-1-inside-1_338374_25845" fill="white">
<path fill-rule="evenodd" clip-rule="evenodd" d="M2.5 19C2.5 9.61116 10.1112 2 19.5 2C28.8888 2 36.5 9.61116 36.5 19C36.5 28.3888 28.8888 36 19.5 36C10.1112 36 2.5 28.3888 2.5 19ZM0.5 19C0.5 8.50659 9.00659 0 19.5 0C29.9934 0 38.5 8.50659 38.5 19C38.5 29.4934 29.9934 38 19.5 38C9.00659 38 0.5 29.4934 0.5 19ZM8.4824 19.366L13.4125 24.5162C13.7151 24.8322 14.2056 24.8322 14.5081 24.5162C14.8106 24.2001 14.8106 23.6877 14.5081 23.3717L10.9005 19.603H30.7225V17.9845H23.1351H10.9005L14.5081 14.2158C14.8106 13.8998 14.8106 13.3874 14.5081 13.0713C14.2056 12.7553 13.7151 12.7553 13.4125 13.0713L8.4824 18.2215C8.17986 18.5375 8.17986 19.0499 8.4824 19.366Z"/>
</mask>
<path fill-rule="evenodd" clip-rule="evenodd" d="M2.5 19C2.5 9.61116 10.1112 2 19.5 2C28.8888 2 36.5 9.61116 36.5 19C36.5 28.3888 28.8888 36 19.5 36C10.1112 36 2.5 28.3888 2.5 19ZM0.5 19C0.5 8.50659 9.00659 0 19.5 0C29.9934 0 38.5 8.50659 38.5 19C38.5 29.4934 29.9934 38 19.5 38C9.00659 38 0.5 29.4934 0.5 19ZM8.4824 19.366L13.4125 24.5162C13.7151 24.8322 14.2056 24.8322 14.5081 24.5162C14.8106 24.2001 14.8106 23.6877 14.5081 23.3717L10.9005 19.603H30.7225V17.9845H23.1351H10.9005L14.5081 14.2158C14.8106 13.8998 14.8106 13.3874 14.5081 13.0713C14.2056 12.7553 13.7151 12.7553 13.4125 13.0713L8.4824 18.2215C8.17986 18.5375 8.17986 19.0499 8.4824 19.366Z" fill="white"/>
<path d="M13.4125 24.5162L15.5796 22.4417L15.5796 22.4417L13.4125 24.5162ZM8.4824 19.366L6.31528 21.4405L6.31529 21.4405L8.4824 19.366ZM14.5081 24.5162L12.341 22.4417L12.341 22.4417L14.5081 24.5162ZM14.5081 23.3717L16.6752 21.2972L16.6752 21.2972L14.5081 23.3717ZM10.9005 19.603V16.603H3.87567L8.73335 21.6775L10.9005 19.603ZM30.7225 19.603V22.603H33.7225V19.603H30.7225ZM30.7225 17.9845H33.7225V14.9845H30.7225V17.9845ZM10.9005 17.9845L8.73335 15.91L3.87568 20.9845H10.9005V17.9845ZM14.5081 14.2158L16.6752 16.2903L16.6752 16.2903L14.5081 14.2158ZM14.5081 13.0713L12.341 15.1458L12.341 15.1458L14.5081 13.0713ZM13.4125 13.0713L15.5796 15.1458L15.5796 15.1458L13.4125 13.0713ZM8.4824 18.2215L6.31529 16.147L6.31528 16.147L8.4824 18.2215ZM19.5 -1C8.4543 -1 -0.5 7.9543 -0.5 19H5.5C5.5 11.268 11.768 5 19.5 5V-1ZM39.5 19C39.5 7.9543 30.5457 -1 19.5 -1V5C27.232 5 33.5 11.268 33.5 19H39.5ZM19.5 39C30.5457 39 39.5 30.0457 39.5 19H33.5C33.5 26.732 27.232 33 19.5 33V39ZM-0.5 19C-0.5 30.0457 8.4543 39 19.5 39V33C11.768 33 5.5 26.732 5.5 19H-0.5ZM19.5 -3C7.34974 -3 -2.5 6.84974 -2.5 19H3.5C3.5 10.1634 10.6634 3 19.5 3V-3ZM41.5 19C41.5 6.84974 31.6503 -3 19.5 -3V3C28.3366 3 35.5 10.1634 35.5 19H41.5ZM19.5 41C31.6503 41 41.5 31.1503 41.5 19H35.5C35.5 27.8366 28.3366 35 19.5 35V41ZM-2.5 19C-2.5 31.1503 7.34974 41 19.5 41V35C10.6634 35 3.5 27.8366 3.5 19H-2.5ZM15.5796 22.4417L10.6495 17.2915L6.31529 21.4405L11.2454 26.5907L15.5796 22.4417ZM12.341 22.4417C13.2197 21.5237 14.7009 21.5237 15.5796 22.4417L11.2454 26.5907C12.7292 28.1407 15.1914 28.1407 16.6752 26.5907L12.341 22.4417ZM12.341 25.4462C11.533 24.6022 11.533 23.2857 12.341 22.4417L16.6752 26.5907C18.0883 25.1146 18.0883 22.7733 16.6752 21.2972L12.341 25.4462ZM8.73335 21.6775L12.341 25.4462L16.6752 21.2972L13.0676 17.5285L8.73335 21.6775ZM30.7225 16.603H10.9005V22.603H30.7225V16.603ZM27.7225 17.9845V19.603H33.7225V17.9845H27.7225ZM23.1351 20.9845H30.7225V14.9845H23.1351V20.9845ZM10.9005 20.9845H23.1351V14.9845H10.9005V20.9845ZM12.341 12.1413L8.73335 15.91L13.0676 20.059L16.6752 16.2903L12.341 12.1413ZM12.341 15.1458C11.533 14.3018 11.533 12.9853 12.341 12.1413L16.6752 16.2903C18.0883 14.8142 18.0883 12.4729 16.6752 10.9968L12.341 15.1458ZM15.5796 15.1458C14.7009 16.0638 13.2197 16.0638 12.341 15.1458L16.6752 10.9968C15.1914 9.44677 12.7292 9.44677 11.2454 10.9968L15.5796 15.1458ZM10.6495 20.296L15.5796 15.1458L11.2454 10.9968L6.31529 16.147L10.6495 20.296ZM10.6495 17.2915C11.4575 18.1355 11.4575 19.452 10.6495 20.296L6.31528 16.147C4.90224 17.6231 4.90224 19.9644 6.31528 21.4405L10.6495 17.2915Z" fill="black" mask="url(#path-1-inside-1_338374_25845)"/>
</svg>
