<svg width="19" height="18" viewBox="0 0 19 18" fill="none" xmlns="http://www.w3.org/2000/svg">
<path fill-rule="evenodd" clip-rule="evenodd" d="M5.26772 2.49941C5.26772 3.61086 4.4311 4.50021 3.08777 4.50021H3.06315C1.76975 4.50021 0.933594 3.61086 0.933594 2.49941C0.933594 1.36445 1.79522 0.5 3.11316 0.5C4.4311 0.5 5.24271 1.36445 5.26772 2.49941ZM5.01393 6.08012V17.6555H1.16136V6.08012H5.01393ZM18.9077 17.6555L18.9079 11.0185C18.9079 7.46309 17.0073 5.80832 14.4721 5.80832C12.4266 5.80832 11.5108 6.93183 10.9995 7.72V6.08044H7.14649C7.19727 7.16662 7.14649 17.6558 7.14649 17.6558H10.9995V11.1912C10.9995 10.8452 11.0245 10.5001 11.1264 10.2524C11.4048 9.5613 12.0388 8.84574 13.1031 8.84574C14.4978 8.84574 15.0553 9.90717 15.0553 11.4627V17.6555H18.9077Z" fill="white"/>
</svg>
