<svg width="169" height="56" viewBox="0 0 169 56" fill="none" xmlns="http://www.w3.org/2000/svg">
<path d="M9.57769 31.503C10.3369 32.3341 11.5668 32.3341 12.3261 31.503L22.325 20.5581C25.0962 17.5248 29.6211 17.4334 32.4151 20.4501C35.2318 23.4917 35.247 28.4531 32.453 31.5113L23.7599 41.0185C22.2415 42.6806 22.2415 45.3648 23.7599 47.0269L35.1027 34.6111C39.4075 29.8991 39.4758 22.1122 35.1483 17.4334C32.4986 14.5663 28.8467 13.4776 25.4302 14.1591C26.0528 10.4194 25.0582 6.42207 22.4389 3.52173C18.1645 -1.22354 11.0506 -1.14043 6.74579 3.57159L0.00390625 10.943V16.9514L9.51695 6.53842C12.2881 3.50511 16.8131 3.41369 19.607 6.43039C22.4237 9.47201 22.4389 14.4333 19.645 17.4916L9.57769 28.5029C8.81847 29.334 8.81847 30.6803 9.57769 31.503Z" fill="#150E72"/>
<path d="M28.7851 24.4968C28.0258 23.6658 26.7959 23.6658 26.0367 24.4968L16.0453 35.4417C13.2742 38.475 8.74922 38.5664 5.95528 35.5497C3.13857 32.5081 3.12339 27.5468 5.91732 24.4885L14.6104 14.9731C16.1288 13.311 16.1288 10.6267 14.6104 8.9646L3.26005 21.3887C-1.04474 26.1007 -1.11307 33.8876 3.21449 38.5664C5.86418 41.4335 9.51603 42.5222 12.9325 41.8407C12.31 45.5804 13.3045 49.5778 15.9239 52.4781C20.1983 57.2234 27.3122 57.1403 31.617 52.4282L38.3588 45.0486V39.0401L28.8534 49.4614C26.0822 52.4947 21.5573 52.5861 18.7633 49.5695C15.9466 46.5361 15.9314 41.5748 18.7254 38.5166L28.7927 27.4969C29.5443 26.6659 29.5443 25.3279 28.7851 24.4968Z" fill="#150E72"/>
<path d="M100.221 29.1596H104.601C104.922 29.1596 105.223 28.9206 105.28 28.5747C105.354 28.1192 105.035 27.7228 104.635 27.7228H100.221V22.4505H104.391C105.115 22.4505 105.703 21.8066 105.703 21.0137H100.219C99.4945 21.0137 98.9062 21.6576 98.9062 22.4505V27.7228V29.1596V34.4318V35.8687H100.219H105.703C105.703 35.0758 105.115 34.4318 104.391 34.4318H100.221V29.1596Z" fill="#150E72"/>
<path d="M69.7343 35.7848C69.7343 34.9919 70.3225 34.348 71.0469 34.348H74.7178V22.5326C74.7178 21.7396 75.3061 21.0957 76.0305 21.0957V35.7848H74.9978H69.7343Z" fill="#150E72"/>
<path d="M84.0381 31.6932C84.0484 33.864 85.6231 35.6804 87.5857 35.7817C87.5908 35.7817 87.5959 35.7817 87.6011 35.7817C87.6268 35.7817 87.6499 35.7845 87.6756 35.7845C87.6884 35.7845 87.7038 35.7845 87.7167 35.7845C87.7347 35.7845 87.7526 35.7845 87.7706 35.7845C87.7835 35.7845 87.7937 35.7845 87.8066 35.7845C87.8323 35.7845 87.8554 35.7845 87.8811 35.7817C87.8939 35.7817 87.9068 35.7817 87.9196 35.7788C87.9453 35.7788 87.9684 35.776 87.9915 35.7732C88.0044 35.7732 88.0147 35.7704 88.0275 35.7704C88.0583 35.7676 88.0866 35.7648 88.1174 35.762C88.1225 35.762 88.1277 35.762 88.1354 35.7592C88.1714 35.7563 88.2073 35.7507 88.2407 35.7451C88.251 35.7451 88.2587 35.7423 88.269 35.7395C88.2947 35.7367 88.3203 35.731 88.346 35.7282C88.3589 35.7254 88.3692 35.7254 88.382 35.7226C88.4051 35.717 88.4308 35.7142 88.4539 35.7085C88.4642 35.7057 88.477 35.7029 88.4873 35.7001C88.513 35.6945 88.5413 35.6889 88.567 35.6804C88.5747 35.6776 88.5824 35.6776 88.5901 35.6748C88.6235 35.6664 88.6594 35.6579 88.6928 35.6467C88.698 35.6467 88.7005 35.6439 88.7057 35.6439C88.7365 35.6354 88.7648 35.627 88.793 35.6158C88.8033 35.6129 88.811 35.6101 88.8213 35.6073C88.847 35.5989 88.8701 35.5904 88.8958 35.582C88.906 35.5792 88.9163 35.5764 88.924 35.5708C88.9497 35.5623 88.9754 35.5511 89.0011 35.5426C89.0088 35.5398 89.0165 35.537 89.0216 35.5342C89.0884 35.5089 89.1526 35.4808 89.2194 35.4498C89.2246 35.447 89.2297 35.4442 89.2374 35.4414C89.2631 35.4302 89.2914 35.4161 89.3171 35.4021C89.3248 35.3992 89.3325 35.3936 89.3376 35.3908C89.3633 35.3767 89.389 35.3627 89.4147 35.3486C89.4198 35.3458 89.4249 35.343 89.4326 35.3402C89.4969 35.3036 89.5585 35.2671 89.6202 35.2277C89.651 35.208 89.6793 35.1883 89.7101 35.1687C89.7152 35.1659 89.7178 35.163 89.7229 35.1602C89.7486 35.1434 89.7743 35.1237 89.8 35.1068C89.8051 35.104 89.8077 35.1012 89.8128 35.0984C89.9027 35.0337 89.9901 34.9634 90.0723 34.8903L90.0749 34.8875C90.1005 34.865 90.1288 34.8397 90.1545 34.8172L90.193 34.7834C90.2829 34.6991 90.3677 34.6119 90.4473 34.5163L90.4756 34.4826C90.5989 34.3364 90.7145 34.1817 90.8173 34.0158C91.2308 33.3607 91.4723 32.5649 91.4723 31.7073V21.0869C90.7479 21.0869 90.1596 21.7308 90.1596 22.5238V28.6058V32.1094C90.1596 32.7561 89.8771 33.3663 89.3915 33.7374C87.4418 35.2277 85.3482 33.7374 85.3482 31.7101V28.6086V22.5266C85.3482 21.7336 84.7599 21.0897 84.0355 21.0897V31.6623C84.0381 31.6763 84.0381 31.6848 84.0381 31.6932Z" fill="#150E72"/>
<path d="M139.258 25.0961C139.247 22.9254 137.673 21.1089 135.71 21.0077C135.705 21.0077 135.7 21.0077 135.695 21.0077C135.669 21.0077 135.646 21.0049 135.62 21.0049C135.607 21.0049 135.592 21.0049 135.579 21.0049C135.561 21.0049 135.543 21.0049 135.525 21.0049C135.512 21.0049 135.502 21.0049 135.489 21.0049C135.463 21.0049 135.44 21.0049 135.415 21.0077C135.402 21.0077 135.389 21.0077 135.376 21.0105C135.35 21.0105 135.327 21.0133 135.304 21.0161C135.291 21.0161 135.281 21.0189 135.268 21.0189C135.237 21.0218 135.209 21.0246 135.178 21.0274C135.173 21.0274 135.168 21.0274 135.16 21.0302C135.124 21.033 135.088 21.0386 135.055 21.0442C135.045 21.0442 135.037 21.0471 135.027 21.0499C135.001 21.0527 134.975 21.0583 134.95 21.0611C134.937 21.0639 134.927 21.0639 134.914 21.0667C134.891 21.0724 134.865 21.0752 134.842 21.0808C134.831 21.0836 134.819 21.0864 134.808 21.0892C134.783 21.0949 134.754 21.1005 134.729 21.1089C134.721 21.1117 134.713 21.1117 134.706 21.1145C134.672 21.123 134.636 21.1314 134.603 21.1427C134.598 21.1427 134.595 21.1455 134.59 21.1455C134.559 21.1539 134.531 21.1623 134.503 21.1736C134.492 21.1764 134.485 21.1792 134.474 21.182C134.449 21.1905 134.426 21.1989 134.4 21.2073C134.39 21.2101 134.379 21.213 134.372 21.2186C134.346 21.227 134.32 21.2383 134.295 21.2467C134.287 21.2495 134.279 21.2523 134.274 21.2551C134.207 21.2804 134.143 21.3086 134.076 21.3395C134.071 21.3423 134.066 21.3451 134.058 21.3479C134.033 21.3592 134.004 21.3732 133.979 21.3873C133.971 21.3901 133.963 21.3957 133.958 21.3985C133.932 21.4126 133.907 21.4267 133.881 21.4407C133.876 21.4435 133.871 21.4463 133.863 21.4491C133.799 21.4857 133.737 21.5223 133.675 21.5616C133.645 21.5813 133.616 21.601 133.586 21.6207C133.58 21.6235 133.578 21.6263 133.573 21.6291C133.547 21.646 133.521 21.6657 133.496 21.6825C133.491 21.6853 133.488 21.6882 133.483 21.691C133.393 21.7556 133.306 21.8259 133.223 21.899L133.221 21.9019C133.195 21.9244 133.167 21.9497 133.141 21.9722L133.103 22.0059C133.013 22.0903 132.928 22.1774 132.848 22.273L132.82 22.3068C132.697 22.453 132.581 22.6076 132.478 22.7735C132.065 23.4287 131.823 24.2245 131.823 25.0821V26.2855V30.419V31.5746C131.823 31.5831 131.823 31.5915 131.823 31.5999C131.834 33.7707 133.408 35.5871 135.371 35.6884C135.376 35.6884 135.381 35.6884 135.386 35.6884C135.412 35.6884 135.435 35.6912 135.461 35.6912C135.474 35.6912 135.489 35.6912 135.502 35.6912C135.52 35.6912 135.538 35.6912 135.556 35.6912C135.569 35.6912 135.579 35.6912 135.592 35.6912C135.618 35.6912 135.641 35.6912 135.666 35.6884C135.679 35.6884 135.692 35.6884 135.705 35.6856C135.731 35.6856 135.754 35.6828 135.777 35.6799C135.79 35.6799 135.8 35.6771 135.813 35.6771C135.844 35.6743 135.872 35.6715 135.903 35.6687C135.908 35.6687 135.913 35.6687 135.921 35.6659C135.957 35.6631 135.993 35.6574 136.026 35.6518C136.036 35.6518 136.044 35.649 136.054 35.6462C136.08 35.6434 136.106 35.6378 136.131 35.6349C136.144 35.6321 136.154 35.6321 136.167 35.6293C136.19 35.6237 136.216 35.6209 136.239 35.6153C136.249 35.6124 136.262 35.6096 136.273 35.6068C136.298 35.6012 136.327 35.5956 136.352 35.5871C136.36 35.5843 136.368 35.5843 136.375 35.5815C136.409 35.5731 136.445 35.5647 136.478 35.5534C136.483 35.5534 136.486 35.5506 136.491 35.5506C136.522 35.5422 136.55 35.5337 136.578 35.5225C136.589 35.5197 136.596 35.5168 136.607 35.514C136.632 35.5056 136.655 35.4972 136.681 35.4887C136.691 35.4859 136.702 35.4831 136.709 35.4775C136.735 35.469 136.761 35.4578 136.786 35.4494C136.794 35.4466 136.802 35.4437 136.807 35.4409C136.874 35.4156 136.938 35.3875 137.005 35.3566C137.01 35.3538 137.015 35.351 137.023 35.3481C137.048 35.3369 137.077 35.3228 137.102 35.3088C137.11 35.306 137.118 35.3003 137.123 35.2975C137.149 35.2835 137.174 35.2694 137.2 35.2553C137.205 35.2525 137.21 35.2497 137.218 35.2469C137.282 35.2103 137.344 35.1738 137.405 35.1344C137.436 35.1148 137.465 35.0951 137.495 35.0754C137.5 35.0726 137.503 35.0698 137.508 35.067C137.534 35.0501 137.56 35.0304 137.585 35.0135C137.59 35.0107 137.593 35.0079 137.598 35.0051C137.688 34.9404 137.775 34.8701 137.858 34.797L137.86 34.7942C137.886 34.7717 137.914 34.7464 137.94 34.7239L137.978 34.6902C138.068 34.6058 138.153 34.5186 138.233 34.423L138.261 34.3893C138.384 34.2431 138.5 34.0884 138.603 33.9225C139.016 33.2674 139.258 32.4716 139.258 31.614V30.419V26.2743V25.1186C139.258 25.113 139.258 25.1046 139.258 25.0961ZM137.945 32.0245C137.945 32.6713 137.662 33.2814 137.177 33.6526C135.227 35.1429 133.133 33.6526 133.133 31.6252V28.9849V28.521V28.1751V27.7111V24.6715C133.133 24.0248 133.416 23.4146 133.902 23.0435C135.851 21.5532 137.945 23.0435 137.945 25.0708V27.7111V28.1751V28.521V28.9849V32.0245Z" fill="#150E72"/>
<path d="M122.439 22.2597L120.014 27.0539L117.587 22.2597C117.194 21.4836 116.449 21.0028 115.64 21.0028V35.6919C116.364 35.6919 116.952 35.048 116.952 34.2551V23.5925L119.359 28.3474L120.017 29.6436L120.672 28.3474L123.074 23.5953V34.2523C123.074 35.0452 123.662 35.6891 124.387 35.6891V21C123.577 21.0028 122.832 21.4836 122.439 22.2597Z" fill="#150E72"/>
<path d="M152.272 22.3104L148.005 32.5456V22.4398C148.005 21.6468 147.417 21.0029 146.692 21.0029V35.692C147.491 35.692 148.218 35.1803 148.549 34.3845L152.816 24.1494V34.2552C152.816 35.0481 153.405 35.692 154.129 35.692V21.0029C153.33 21.0029 152.603 21.5147 152.272 22.3104Z" fill="#150E72"/>
<path d="M169 21.0029C168.201 21.0029 167.474 21.5147 167.142 22.3104L164.925 27.6305H162.876V22.4398C162.876 21.6468 162.287 21.0029 161.563 21.0029V27.6305V29.0673V35.6949C162.287 35.6949 162.876 35.0509 162.876 34.258V29.0673H164.925L167.687 35.6949H169L165.938 28.3503L169 21.0029Z" fill="#150E72"/>
<path d="M62.8343 31.7413C62.8343 31.7132 62.8343 31.6879 62.8317 31.6597C62.8317 31.6457 62.8317 31.6316 62.8291 31.6176C62.8291 31.5894 62.8266 31.5641 62.824 31.5388C62.824 31.5248 62.8214 31.5135 62.8214 31.4995C62.8189 31.4657 62.8163 31.4348 62.8137 31.401C62.8137 31.3954 62.8137 31.3898 62.8112 31.3814C62.8086 31.342 62.8035 31.3026 62.7983 31.2661C62.7983 31.2548 62.7957 31.2464 62.7932 31.2351C62.7906 31.207 62.7855 31.1789 62.7829 31.1508C62.7803 31.1367 62.7778 31.1255 62.7778 31.1114C62.7726 31.0861 62.7701 31.058 62.7649 31.0327C62.7624 31.0214 62.7598 31.0074 62.7572 30.9961C62.7521 30.968 62.7469 30.9371 62.7392 30.909C62.7367 30.9005 62.7367 30.8921 62.7341 30.8837C62.7264 30.8471 62.7187 30.8077 62.7084 30.7712C62.7084 30.7656 62.7058 30.7628 62.7058 30.7571C62.6981 30.7234 62.6904 30.6925 62.6802 30.6587C62.6776 30.6475 62.675 30.639 62.6724 30.6278C62.6647 30.5997 62.657 30.5744 62.6493 30.5462C62.6468 30.535 62.6442 30.5237 62.639 30.5153C62.6313 30.4872 62.6211 30.4591 62.6134 30.431C62.6108 30.4225 62.6082 30.4141 62.6057 30.4085C62.5825 30.3353 62.5568 30.2651 62.5286 30.1919C62.526 30.1863 62.5235 30.1807 62.5209 30.1723C62.5106 30.1441 62.4978 30.1132 62.4849 30.0851C62.4824 30.0767 62.4772 30.0682 62.4746 30.0626C62.4618 30.0345 62.449 30.0064 62.4361 29.9782C62.4335 29.9726 62.431 29.967 62.4284 29.9586C62.395 29.8883 62.3616 29.8208 62.3257 29.7533C62.3077 29.7196 62.2897 29.6886 62.2717 29.6549C62.2691 29.6493 62.2666 29.6465 62.264 29.6408C62.2486 29.6127 62.2306 29.5846 62.2152 29.5565C62.2126 29.5508 62.2101 29.548 62.2075 29.5424C62.1484 29.444 62.0842 29.3484 62.0174 29.2556L62.0148 29.2528C61.9943 29.2247 61.9712 29.1937 61.9506 29.1656C61.948 29.1628 61.948 29.16 61.9455 29.16C61.853 29.0391 61.7528 28.9238 61.6475 28.8169C61.6475 28.8169 61.6449 28.817 61.6449 28.8141C61.5113 28.6792 61.37 28.5526 61.2185 28.4374C61.0952 28.3446 60.9667 28.2602 60.8332 28.1815C61.6064 27.4701 62.115 26.4325 62.1664 25.2684C62.1664 25.2628 62.1664 25.2571 62.1664 25.2515C62.1664 25.2234 62.169 25.1981 62.169 25.17C62.169 25.1559 62.169 25.139 62.169 25.125C62.169 25.1053 62.169 25.0856 62.169 25.0659C62.169 25.0519 62.169 25.0406 62.169 25.0266C62.169 24.9985 62.169 24.9731 62.1664 24.945C62.1664 24.931 62.1664 24.9169 62.1638 24.9029C62.1638 24.8747 62.1612 24.8494 62.1587 24.8241C62.1587 24.8101 62.1561 24.7988 62.1561 24.7848C62.1535 24.751 62.151 24.7201 62.1484 24.6863C62.1484 24.6807 62.1484 24.6751 62.1458 24.6667C62.1433 24.6273 62.1381 24.5879 62.133 24.5514C62.133 24.5401 62.1304 24.5317 62.1278 24.5204C62.1253 24.4923 62.1201 24.4642 62.1176 24.4361C62.115 24.422 62.115 24.4108 62.1124 24.3967C62.1073 24.3714 62.1047 24.3433 62.0996 24.318C62.097 24.3067 62.0945 24.2927 62.0919 24.2814C62.0867 24.2533 62.0816 24.2224 62.0739 24.1943C62.0713 24.1858 62.0713 24.1774 62.0688 24.169C62.0611 24.1324 62.0534 24.093 62.0431 24.0565C62.0431 24.0509 62.0405 24.0481 62.0405 24.0424C62.0328 24.0087 62.0251 23.9778 62.0148 23.944C62.0123 23.9328 62.0097 23.9243 62.0071 23.9131C61.9994 23.885 61.9917 23.8597 61.984 23.8315C61.9814 23.8203 61.9789 23.809 61.9737 23.8006C61.966 23.7725 61.9557 23.7444 61.948 23.7163C61.9455 23.7078 61.9429 23.6994 61.9403 23.6938C61.9172 23.6206 61.8915 23.5503 61.8633 23.4772C61.8607 23.4716 61.8581 23.466 61.8556 23.4576C61.8453 23.4294 61.8324 23.3985 61.8196 23.3704C61.8145 23.3563 61.8093 23.3451 61.8016 23.331C61.7913 23.3085 61.7811 23.286 61.7708 23.2607C61.7682 23.2551 61.7656 23.2495 61.7631 23.241C61.7297 23.1708 61.6963 23.1033 61.6603 23.0358C61.6423 23.002 61.6244 22.9711 61.6064 22.9374C61.6038 22.9317 61.6012 22.9289 61.5987 22.9233C61.5833 22.8952 61.5653 22.8643 61.5473 22.8361C61.5447 22.8333 61.5422 22.8277 61.5396 22.8249C61.4805 22.7265 61.4163 22.6309 61.3495 22.5381L61.3469 22.5353C61.3264 22.5072 61.3033 22.4762 61.2827 22.4481C61.2801 22.4453 61.2801 22.4425 61.2776 22.4425C61.1851 22.3216 61.0849 22.2063 60.9796 22.0994C60.9796 22.0994 60.977 22.0994 60.977 22.0966C60.8434 21.9617 60.7021 21.8351 60.5506 21.7198C59.9495 21.2671 59.2225 21 58.439 21H52.9828C52.9828 21.7929 53.5711 22.4369 54.2955 22.4369H55.6184H58.8449C59.4152 22.4369 59.9546 22.7321 60.286 23.241C61.6886 25.3865 60.3194 27.7091 58.457 27.7091H54.298C53.9358 27.7091 53.6404 28.0296 53.6404 28.4289C53.6404 28.8254 53.9333 29.1488 54.298 29.1488H55.138H58.4107H59.0838C60.4119 29.1488 61.5113 30.31 61.5216 31.7638C61.5319 33.2287 60.4504 34.4182 59.1146 34.4182H56.276H55.6081C54.8837 34.4182 54.2955 35.0621 54.2955 35.855H59.0709C59.0786 35.855 59.0863 35.855 59.0941 35.855C61.0798 35.8438 62.7418 34.1173 62.8343 31.969C62.8343 31.9634 62.8343 31.9578 62.8343 31.9522C62.8343 31.9241 62.8368 31.8987 62.8368 31.8706C62.8368 31.8566 62.8368 31.8397 62.8368 31.8256C62.8368 31.806 62.8368 31.7863 62.8368 31.7666C62.8343 31.7694 62.8343 31.7553 62.8343 31.7413Z" fill="#150E72"/>
</svg>
