<svg width="172" height="23" viewBox="0 0 172 23" fill="none" xmlns="http://www.w3.org/2000/svg">
<path d="M3.78301 12.635C4.08301 12.9684 4.56901 12.9684 4.86901 12.635L8.82002 8.24534C9.91502 7.02876 11.703 6.9921 12.807 8.20201C13.92 9.42193 13.926 11.4118 12.822 12.6384L9.38702 16.4515C8.78702 17.1181 8.78702 18.1947 9.38702 18.8613L13.869 13.8816C15.57 11.9918 15.597 8.86863 13.887 6.9921C12.84 5.84217 11.397 5.40554 10.047 5.67885C10.293 4.17895 9.90002 2.57573 8.86502 1.41247C7.17602 -0.49073 4.36501 -0.457399 2.66401 1.43247L0 4.38894V6.79878L3.75901 2.62239C4.85401 1.40581 6.64201 1.36914 7.74602 2.57906C8.85902 3.79898 8.86502 5.78884 7.76102 7.01543L3.78301 11.4318C3.48301 11.7651 3.48301 12.3051 3.78301 12.635Z" fill="white"/>
<path d="M11.3742 9.82528C11.0742 9.49197 10.5882 9.49197 10.2882 9.82528L6.34019 14.215C5.24519 15.4316 3.45719 15.4682 2.35319 14.2583C1.24018 13.0384 1.23418 11.0485 2.33819 9.82195L5.77319 6.00554C6.37319 5.33892 6.37319 4.26232 5.77319 3.5957L1.28818 8.5787C-0.41282 10.4686 -0.43982 13.5917 1.27018 15.4682C2.31719 16.6182 3.76019 17.0548 5.11019 16.7815C4.86419 18.2814 5.25719 19.8846 6.29219 21.0479C7.9812 22.9511 10.7922 22.9177 12.4932 21.0279L15.1572 18.0681V15.6582L11.4012 19.8379C10.3062 21.0545 8.5182 21.0912 7.4142 19.8813C6.30119 18.6647 6.29519 16.6748 7.3992 15.4482L11.3772 11.0285C11.6742 10.6952 11.6742 10.1586 11.3742 9.82528Z" fill="white"/>
<path d="M82.8563 12.0818H87.9713C88.3463 12.0818 88.6973 11.7985 88.7633 11.3885C88.8503 10.8485 88.4783 10.3786 88.0103 10.3786H82.8563V4.129H87.7253C88.5713 4.129 89.2583 3.36572 89.2583 2.42578H82.8533C82.0073 2.42578 81.3203 3.18906 81.3203 4.129V10.3786V12.0818V18.3314V20.0346H82.8533H89.2583C89.2583 19.0947 88.5713 18.3314 87.7253 18.3314H82.8563V12.0818Z" fill="white"/>
<path d="M47.918 19.937C47.918 18.997 48.605 18.2338 49.451 18.2338H53.738V4.2247C53.738 3.28477 54.425 2.52148 55.271 2.52148V19.9336H54.065H47.918V19.937Z" fill="white"/>
<path d="M63.9561 15.084C63.9681 17.6571 65.8071 19.8103 68.0991 19.9303C68.1051 19.9303 68.1111 19.9303 68.1171 19.9303C68.1471 19.9303 68.1741 19.9336 68.2041 19.9336C68.2191 19.9336 68.2371 19.9336 68.2521 19.9336C68.2731 19.9336 68.2941 19.9336 68.3151 19.9336C68.3301 19.9336 68.3421 19.9336 68.3571 19.9336C68.3871 19.9336 68.4141 19.9336 68.4441 19.9303C68.4591 19.9303 68.4741 19.9303 68.4891 19.927C68.5191 19.927 68.5461 19.9236 68.5731 19.9203C68.5881 19.9203 68.6001 19.917 68.6151 19.917C68.6511 19.9136 68.6841 19.9103 68.7201 19.907C68.7261 19.907 68.7321 19.907 68.7411 19.9036C68.7831 19.9003 68.8251 19.8936 68.8641 19.887C68.8761 19.887 68.8851 19.8836 68.8971 19.8803C68.9271 19.877 68.9571 19.8703 68.9871 19.867C69.0021 19.8636 69.0141 19.8636 69.0291 19.8603C69.0561 19.8536 69.0861 19.8503 69.1131 19.8436C69.1251 19.8403 69.1401 19.837 69.1521 19.8336C69.1821 19.827 69.2151 19.8203 69.2451 19.8103C69.2541 19.807 69.2631 19.807 69.2721 19.8036C69.3111 19.7936 69.3531 19.7837 69.3921 19.7703C69.3981 19.7703 69.4011 19.767 69.4071 19.767C69.4431 19.757 69.4761 19.747 69.5091 19.7337C69.5211 19.7303 69.5301 19.727 69.5421 19.7237C69.5721 19.7137 69.5991 19.7037 69.6291 19.6937C69.6411 19.6903 69.6531 19.687 69.6621 19.6803C69.6921 19.6703 69.7221 19.657 69.7521 19.647C69.7611 19.6437 69.7701 19.6403 69.7761 19.637C69.8541 19.607 69.9291 19.5737 70.0071 19.537C70.0131 19.5337 70.0191 19.5303 70.0281 19.527C70.0581 19.5137 70.0911 19.497 70.1211 19.4803C70.1301 19.477 70.1391 19.4703 70.1451 19.467C70.1751 19.4503 70.2051 19.4337 70.2351 19.417C70.2411 19.4137 70.2471 19.4103 70.2561 19.407C70.3311 19.3637 70.4031 19.3204 70.4751 19.2737C70.5111 19.2504 70.5441 19.227 70.5801 19.2037C70.5861 19.2004 70.5891 19.197 70.5951 19.1937C70.6251 19.1737 70.6551 19.1504 70.6851 19.1304C70.6911 19.127 70.6941 19.1237 70.7001 19.1204C70.8051 19.0437 70.9071 18.9604 71.0031 18.8737L71.0061 18.8704C71.0361 18.8437 71.0691 18.8137 71.0991 18.7871L71.1441 18.7471C71.2491 18.6471 71.3481 18.5437 71.4411 18.4304L71.4741 18.3904C71.6181 18.2171 71.7531 18.0338 71.8731 17.8371C72.3561 17.0605 72.6381 16.1172 72.6381 15.1006V2.52482C71.7921 2.52482 71.1051 3.2881 71.1051 4.22804V11.4375V15.5906C71.1051 16.3572 70.7751 17.0805 70.2081 17.5205C67.9311 19.287 65.4861 17.5205 65.4861 15.1173V11.4342V4.2247C65.4861 3.28477 64.7991 2.52148 63.9531 2.52148V15.054C63.9561 15.064 63.9561 15.074 63.9561 15.084Z" fill="white"/>
<path d="M136.764 7.37506C136.752 4.8019 134.913 2.64872 132.621 2.52872C132.615 2.52872 132.609 2.52872 132.603 2.52872C132.573 2.52872 132.546 2.52539 132.516 2.52539C132.501 2.52539 132.483 2.52539 132.468 2.52539C132.447 2.52539 132.426 2.52539 132.405 2.52539C132.39 2.52539 132.378 2.52539 132.363 2.52539C132.333 2.52539 132.306 2.52539 132.276 2.52872C132.261 2.52872 132.246 2.52872 132.231 2.53206C132.201 2.53206 132.174 2.53539 132.147 2.53872C132.132 2.53872 132.12 2.54206 132.105 2.54206C132.069 2.54539 132.036 2.54872 132 2.55206C131.994 2.55206 131.988 2.55206 131.979 2.55539C131.937 2.55872 131.895 2.56539 131.856 2.57205C131.844 2.57205 131.835 2.57539 131.823 2.57872C131.793 2.58205 131.763 2.58872 131.733 2.59205C131.718 2.59539 131.706 2.59539 131.691 2.59872C131.664 2.60539 131.634 2.60872 131.607 2.61538C131.595 2.61872 131.58 2.62205 131.568 2.62538C131.538 2.63205 131.505 2.63872 131.475 2.64872C131.466 2.65205 131.457 2.65205 131.448 2.65538C131.409 2.66538 131.367 2.67538 131.328 2.68871C131.322 2.68871 131.319 2.69205 131.313 2.69205C131.277 2.70205 131.244 2.71204 131.211 2.72538C131.199 2.72871 131.19 2.73204 131.178 2.73538C131.148 2.74538 131.121 2.75538 131.091 2.76537C131.079 2.76871 131.067 2.77204 131.058 2.77871C131.028 2.78871 130.998 2.80204 130.968 2.81204C130.959 2.81537 130.95 2.8187 130.944 2.82204C130.866 2.85204 130.791 2.88537 130.713 2.92203C130.707 2.92536 130.701 2.9287 130.692 2.93203C130.662 2.94536 130.629 2.96203 130.599 2.97869C130.59 2.98203 130.581 2.98869 130.575 2.99203C130.545 3.00869 130.515 3.02536 130.485 3.04202C130.479 3.04536 130.473 3.04869 130.464 3.05202C130.389 3.09535 130.317 3.13868 130.245 3.18535C130.209 3.20868 130.176 3.23201 130.14 3.25534C130.134 3.25867 130.131 3.26201 130.125 3.26534C130.095 3.28534 130.065 3.30867 130.035 3.32867C130.029 3.332 130.026 3.33534 130.02 3.33867C129.915 3.41533 129.813 3.49866 129.717 3.58532L129.714 3.58865C129.684 3.61532 129.651 3.64531 129.621 3.67198L129.576 3.71198C129.471 3.81197 129.372 3.9153 129.279 4.02862L129.246 4.06862C129.102 4.24194 128.967 4.42526 128.847 4.62192C128.364 5.39853 128.082 6.3418 128.082 7.3584V8.78497V13.698V15.0679C128.082 15.0779 128.082 15.0879 128.082 15.0979C128.094 17.671 129.933 19.8242 132.225 19.9442C132.231 19.9442 132.237 19.9442 132.243 19.9442C132.273 19.9442 132.3 19.9475 132.33 19.9475C132.345 19.9475 132.363 19.9475 132.378 19.9475C132.399 19.9475 132.42 19.9475 132.441 19.9475C132.456 19.9475 132.468 19.9475 132.483 19.9475C132.513 19.9475 132.54 19.9475 132.57 19.9442C132.585 19.9442 132.6 19.9442 132.615 19.9409C132.645 19.9409 132.672 19.9375 132.699 19.9342C132.714 19.9342 132.726 19.9309 132.741 19.9309C132.777 19.9275 132.81 19.9242 132.846 19.9209C132.852 19.9209 132.858 19.9209 132.867 19.9175C132.909 19.9142 132.951 19.9075 132.99 19.9009C133.002 19.9009 133.011 19.8975 133.023 19.8942C133.053 19.8909 133.083 19.8842 133.113 19.8809C133.128 19.8775 133.14 19.8776 133.155 19.8742C133.182 19.8675 133.212 19.8642 133.239 19.8575C133.251 19.8542 133.266 19.8509 133.278 19.8476C133.308 19.8409 133.341 19.8342 133.371 19.8242C133.38 19.8209 133.389 19.8209 133.398 19.8176C133.437 19.8076 133.479 19.7976 133.518 19.7842C133.524 19.7842 133.527 19.7809 133.533 19.7809C133.569 19.7709 133.602 19.7609 133.635 19.7476C133.647 19.7442 133.656 19.7409 133.668 19.7376C133.698 19.7276 133.725 19.7176 133.755 19.7076C133.767 19.7042 133.779 19.7009 133.788 19.6942C133.818 19.6842 133.848 19.6709 133.878 19.6609C133.887 19.6576 133.896 19.6542 133.902 19.6509C133.98 19.6209 134.055 19.5876 134.133 19.5509C134.139 19.5476 134.145 19.5442 134.154 19.5409C134.184 19.5276 134.217 19.5109 134.247 19.4942C134.256 19.4909 134.265 19.4842 134.271 19.4809C134.301 19.4642 134.331 19.4476 134.361 19.4309C134.367 19.4276 134.373 19.4242 134.382 19.4209C134.457 19.3776 134.529 19.3343 134.601 19.2876C134.637 19.2643 134.67 19.2409 134.706 19.2176C134.712 19.2143 134.715 19.2109 134.721 19.2076C134.751 19.1876 134.781 19.1643 134.811 19.1443C134.817 19.1409 134.82 19.1376 134.826 19.1343C134.931 19.0576 135.033 18.9743 135.129 18.8876L135.132 18.8843C135.162 18.8576 135.195 18.8276 135.225 18.801L135.27 18.761C135.375 18.661 135.474 18.5576 135.567 18.4443L135.6 18.4043C135.744 18.231 135.879 18.0477 135.999 17.851C136.482 17.0744 136.764 16.1311 136.764 15.1145V13.688V8.77497V7.40506C136.767 7.39506 136.764 7.38506 136.764 7.37506ZM135.234 15.5878C135.234 16.3545 134.904 17.0777 134.337 17.5177C132.06 19.2843 129.615 17.5177 129.615 15.1145V11.9847V11.4348V11.0248V10.4749V6.87176C129.615 6.10515 129.945 5.38186 130.512 4.94189C132.789 3.17535 135.234 4.94189 135.234 7.34506V10.4749V11.0248V11.4348V11.9847V15.5878Z" fill="white"/>
<path d="M117.122 4.01138L114.29 9.69433L111.455 4.01138C110.996 3.09145 110.126 2.52148 109.181 2.52148V19.9336C110.027 19.9336 110.714 19.1704 110.714 18.2304V5.59461L113.525 11.2309L114.293 12.7675L115.058 11.2309L117.863 5.59794V18.2304C117.863 19.1704 118.55 19.9336 119.396 19.9336V2.52482C118.451 2.52482 117.581 3.09478 117.122 4.01138Z" fill="white"/>
<path d="M151.965 4.07138L146.982 16.2039V4.2247C146.982 3.28477 146.295 2.52148 145.449 2.52148V19.9336C146.382 19.9336 147.231 19.327 147.618 18.3837L152.601 6.25123V18.2304C152.601 19.1704 153.288 19.9336 154.134 19.9336V2.52482C153.198 2.52482 152.352 3.12811 151.965 4.07138Z" fill="white"/>
<path d="M171.499 2.52482C170.566 2.52482 169.717 3.13144 169.33 4.07471L166.741 10.381H164.347V4.2247C164.347 3.28477 163.66 2.52148 162.814 2.52148V10.3776V12.0808V19.937C163.66 19.937 164.347 19.1737 164.347 18.2338V12.0808H166.741L169.966 19.937H171.499L167.926 11.2309L171.499 2.52482Z" fill="white"/>
<path d="M41.7906 15.1446C41.7906 15.1112 41.7906 15.0813 41.7876 15.0479C41.7876 15.0313 41.7876 15.0146 41.7846 14.9979C41.7846 14.9646 41.7816 14.9346 41.7786 14.9046C41.7786 14.8879 41.7756 14.8746 41.7756 14.8579C41.7726 14.8179 41.7696 14.7813 41.7666 14.7413C41.7666 14.7346 41.7666 14.7279 41.7636 14.7179C41.7606 14.6713 41.7546 14.6246 41.7486 14.5813C41.7486 14.568 41.7456 14.558 41.7426 14.5446C41.7396 14.5113 41.7336 14.478 41.7306 14.4446C41.7276 14.428 41.7276 14.4146 41.7246 14.398C41.7186 14.368 41.7156 14.3346 41.7096 14.3046C41.7066 14.2913 41.7036 14.2746 41.7006 14.2613C41.6946 14.228 41.6886 14.1913 41.6796 14.158C41.6766 14.148 41.6766 14.138 41.6736 14.128C41.6646 14.0847 41.6556 14.038 41.6436 13.9947C41.6436 13.988 41.6406 13.9847 41.6406 13.978C41.6316 13.938 41.6226 13.9013 41.6106 13.8613C41.6076 13.848 41.6046 13.838 41.6016 13.8247C41.5926 13.7913 41.5836 13.7613 41.5746 13.728C41.5716 13.7147 41.5686 13.7013 41.5626 13.6913C41.5536 13.658 41.5416 13.6247 41.5326 13.5914C41.5296 13.5814 41.5266 13.5714 41.5236 13.5647C41.4966 13.478 41.4666 13.3947 41.4336 13.308C41.4306 13.3014 41.4276 13.2947 41.4246 13.2847C41.4126 13.2514 41.3976 13.2147 41.3826 13.1814C41.3796 13.1714 41.3736 13.1614 41.3706 13.1547C41.3556 13.1214 41.3406 13.0881 41.3256 13.0547C41.3226 13.0481 41.3196 13.0414 41.3166 13.0314C41.2776 12.9481 41.2386 12.8681 41.1966 12.7881C41.1756 12.7481 41.1546 12.7114 41.1336 12.6714C41.1306 12.6647 41.1276 12.6614 41.1246 12.6547C41.1066 12.6214 41.0856 12.5881 41.0676 12.5548C41.0646 12.5481 41.0616 12.5448 41.0586 12.5381C40.9896 12.4214 40.9146 12.3081 40.8366 12.1981L40.8336 12.1948C40.8096 12.1614 40.7826 12.1248 40.7586 12.0915C40.7556 12.0881 40.7556 12.0848 40.7526 12.0848C40.6446 11.9415 40.5276 11.8048 40.4046 11.6781C40.4046 11.6781 40.4016 11.6781 40.4016 11.6748C40.2456 11.5148 40.0806 11.3648 39.9036 11.2282C39.7596 11.1182 39.6096 11.0182 39.4536 10.9249C40.3566 10.0816 40.9506 8.85167 41.0106 7.47177C41.0106 7.4651 41.0106 7.45843 41.0106 7.45177C41.0106 7.41844 41.0136 7.38844 41.0136 7.35511C41.0136 7.33844 41.0136 7.31844 41.0136 7.30178C41.0136 7.27845 41.0136 7.25511 41.0136 7.23178C41.0136 7.21512 41.0136 7.20178 41.0136 7.18512C41.0136 7.15179 41.0136 7.12179 41.0106 7.08846C41.0106 7.07179 41.0106 7.05513 41.0076 7.03846C41.0076 7.00513 41.0046 6.97513 41.0016 6.94514C41.0016 6.92847 40.9986 6.91514 40.9986 6.89847C40.9956 6.85847 40.9926 6.82181 40.9896 6.78181C40.9896 6.77515 40.9896 6.76848 40.9866 6.75848C40.9836 6.71182 40.9776 6.66515 40.9716 6.62182C40.9716 6.60849 40.9686 6.59849 40.9656 6.58516C40.9626 6.55183 40.9566 6.5185 40.9536 6.48517C40.9506 6.4685 40.9506 6.45517 40.9476 6.4385C40.9416 6.4085 40.9386 6.37517 40.9326 6.34518C40.9296 6.33184 40.9266 6.31518 40.9236 6.30185C40.9176 6.26851 40.9116 6.23185 40.9026 6.19852C40.8996 6.18852 40.8996 6.17852 40.8966 6.16852C40.8876 6.12519 40.8786 6.07853 40.8666 6.0352C40.8666 6.02853 40.8636 6.0252 40.8636 6.01853C40.8546 5.97853 40.8456 5.94187 40.8336 5.90187C40.8306 5.88854 40.8276 5.87854 40.8246 5.86521C40.8156 5.83188 40.8066 5.80188 40.7976 5.76855C40.7946 5.75522 40.7916 5.74188 40.7856 5.73188C40.7766 5.69855 40.7646 5.66522 40.7556 5.63189C40.7526 5.62189 40.7496 5.61189 40.7466 5.60523C40.7196 5.51857 40.6896 5.43524 40.6566 5.34858C40.6536 5.34191 40.6506 5.33524 40.6476 5.32524C40.6356 5.29191 40.6206 5.25525 40.6056 5.22192C40.5996 5.20525 40.5936 5.19192 40.5846 5.17526C40.5726 5.14859 40.5606 5.12193 40.5486 5.09193C40.5456 5.08526 40.5426 5.0786 40.5396 5.0686C40.5006 4.98527 40.4616 4.90527 40.4196 4.82528C40.3986 4.78528 40.3776 4.74862 40.3566 4.70862C40.3536 4.70195 40.3506 4.69862 40.3476 4.69195C40.3296 4.65862 40.3086 4.62196 40.2876 4.58863C40.2846 4.5853 40.2816 4.57863 40.2786 4.5753C40.2096 4.45864 40.1346 4.34531 40.0566 4.23532L40.0536 4.23199C40.0296 4.19865 40.0026 4.16199 39.9786 4.12866C39.9756 4.12533 39.9756 4.12199 39.9726 4.12199C39.8646 3.97867 39.7476 3.84201 39.6246 3.71535C39.6246 3.71535 39.6216 3.71535 39.6216 3.71202C39.4656 3.55203 39.3006 3.40204 39.1236 3.26538C38.4216 2.72875 37.5726 2.41211 36.6576 2.41211H30.2676C30.2676 3.35205 30.9546 4.11533 31.8006 4.11533H33.3456H37.1136C37.7796 4.11533 38.4096 4.4653 38.7966 5.0686C40.4346 7.61176 38.8356 10.3649 36.6606 10.3649H31.8066C31.3836 10.3649 31.0386 10.7449 31.0386 11.2182C31.0386 11.6881 31.3806 12.0715 31.8066 12.0715H32.7876H36.6096H37.3956C38.9466 12.0715 40.2306 13.448 40.2426 15.1712C40.2546 16.9078 38.9916 18.3177 37.4316 18.3177H34.1196H33.3396C32.4936 18.3177 31.8066 19.081 31.8066 20.0209H37.3806C37.3896 20.0209 37.3986 20.0209 37.4076 20.0209C39.7266 20.0076 41.6676 17.9611 41.7756 15.4146C41.7756 15.4079 41.7756 15.4012 41.7756 15.3946C41.7756 15.3612 41.7786 15.3312 41.7786 15.2979C41.7786 15.2812 41.7786 15.2612 41.7786 15.2446C41.7786 15.2212 41.7786 15.1979 41.7786 15.1746C41.7906 15.1746 41.7906 15.1579 41.7906 15.1446Z" fill="white"/>
</svg>
