<svg width="97" height="75" viewBox="0 0 97 75" fill="none" xmlns="http://www.w3.org/2000/svg">
<path d="M72.3988 51.4569V41.246H69.4936V48.5395H27.3685V44.1634H24.4633V51.4569H72.3988Z" fill="white"/>
<path fill-rule="evenodd" clip-rule="evenodd" d="M69.369 31.7645L77.7838 23.3144L75.7295 21.2515L68.1657 28.8471H55.694V25.9296H39.7155V36.1405H55.694V31.7645H69.369ZM52.7888 28.847H42.6207V33.2231H52.7888V28.847Z" fill="white"/>
<path fill-rule="evenodd" clip-rule="evenodd" d="M40.4418 9.88391C40.4418 9.07829 41.0921 8.42521 41.8944 8.42521H53.5151C54.3174 8.42521 54.9677 9.07829 54.9677 9.88391V12.072H57.8729V9.88391C57.8729 7.46706 55.9219 5.50781 53.5151 5.50781H41.8944C39.4876 5.50781 37.5366 7.46706 37.5366 9.88391V14.26H12.8425V60.2091H81.8407V14.26H40.4418V9.88391ZM17.4364 17.1774H78.9355V57.2917H15.7477V19.687L25.9707 31.7647H38.2632V28.8473H27.3142L17.4364 17.1774Z" fill="white"/>
<path fill-rule="evenodd" clip-rule="evenodd" d="M71.7709 40.0078C72.2628 40.0078 72.8036 40.1667 73.2282 40.5485C74.2588 41.475 75.9846 42.4732 77.4383 43.2001C78.6235 43.7927 80.4383 44.1693 81.6681 44.2232C82.2414 44.2483 82.7656 44.5151 83.1314 44.8844C83.4988 45.2554 83.8056 45.8391 83.7025 46.5271C83.3303 49.0112 82.4704 52.2666 80.0827 56.3598C78.627 58.8552 76.763 60.6145 75.2122 61.7509C74.4362 62.3196 73.731 62.7379 73.1823 63.0183C72.9088 63.1581 72.6661 63.2677 72.4665 63.3454C72.3675 63.3839 72.2687 63.4186 72.1754 63.4454C72.1117 63.4637 71.9518 63.5087 71.7709 63.5087C71.59 63.5087 71.4301 63.4637 71.3663 63.4454C71.2731 63.4186 71.1742 63.3839 71.0753 63.3454C70.8757 63.2677 70.633 63.1581 70.3595 63.0183C69.8107 62.7379 69.1056 62.3196 68.3296 61.7509C66.7788 60.6145 64.9148 58.8552 63.4591 56.3598C61.0714 52.2666 60.2115 49.0112 59.8393 46.5271C59.7362 45.8391 60.043 45.2554 60.4103 44.8844C60.7762 44.5151 61.3003 44.2483 61.8736 44.2232C63.1034 44.1693 64.9183 43.7927 66.1034 43.2001C67.5571 42.4732 69.283 41.475 70.3136 40.5485C70.7382 40.1667 71.279 40.0078 71.7709 40.0078ZM77.9689 50.3286L71.8563 56.4412C71.45 56.8475 70.7912 56.8475 70.3849 56.4412L67.6538 53.71L69.1252 52.2387L71.1206 54.2341L76.4975 48.8572L77.9689 50.3286Z" fill="white"/>
</svg>
