<svg width="139" height="125" viewBox="0 0 139 125" fill="none" xmlns="http://www.w3.org/2000/svg">
<g filter="url(#filter0_bd_338214_13303)">
<rect x="120.923" y="30.2788" width="12.1861" height="59.9929" rx="1" fill="#2684FF" fill-opacity="0.1" shape-rendering="crispEdges"/>
</g>
<path d="M43.7151 12.0811H55.4845V23.8505H43.7151V12.0811Z" fill="url(#paint0_linear_338214_13303)"/>
<path d="M43.7151 97.8299H55.4845V109.599H43.7151V97.8299Z" fill="url(#paint1_linear_338214_13303)"/>
<path d="M87.4302 12.0811H99.1996V23.8505H87.4302V12.0811Z" fill="url(#paint2_linear_338214_13303)"/>
<path d="M87.4302 55.7961H99.1996V67.5656H87.4302V55.7961Z" fill="url(#paint3_linear_338214_13303)"/>
<path d="M87.4302 97.8299H99.1996V109.599H87.4302V97.8299Z" fill="url(#paint4_linear_338214_13303)"/>
<path d="M0 12.0811H11.7694V23.8505H0V12.0811Z" fill="url(#paint5_linear_338214_13303)"/>
<path d="M0 55.7961H11.7694V67.5656H0V55.7961Z" fill="url(#paint6_linear_338214_13303)"/>
<path d="M0 97.8299H11.7694V109.599H0V97.8299Z" fill="url(#paint7_linear_338214_13303)"/>
<g filter="url(#filter1_bd_338214_13303)">
<rect x="25" y="5.71875" width="56" height="114" rx="1" fill="#2684FF" fill-opacity="0.1" shape-rendering="crispEdges"/>
</g>
<path d="M44.6517 68.3044H34.7083L32.9718 73.8815H25.2197L36.2587 44.0273H43.0806L54.2023 73.8815H46.4089L44.6517 68.3044ZM36.4448 62.7477H42.9152L39.6697 52.3931L36.4448 62.7477Z" fill="url(#paint8_linear_338214_13303)"/>
<path d="M68.6936 73.8815C68.4456 73.4304 68.2251 72.7675 68.0321 71.8926C66.7504 73.492 64.9588 74.2916 62.6573 74.2916C60.5487 74.2916 58.7571 73.6628 57.2825 72.4052C55.8079 71.134 55.0706 69.5415 55.0706 67.6277C55.0706 65.2219 55.9664 63.4039 57.758 62.1736C59.5496 60.9434 62.1543 60.3282 65.5721 60.3282H67.722V59.1595C67.722 57.1227 66.8331 56.1044 65.0553 56.1044C63.4015 56.1044 62.5746 56.9109 62.5746 58.5239H55.608C55.608 56.3777 56.5245 54.6349 58.3575 53.2953C60.2042 51.9557 62.5539 51.2859 65.4067 51.2859C68.2595 51.2859 70.5128 51.9762 72.1666 53.3568C73.8204 54.7374 74.6679 56.6306 74.7093 59.0365V68.858C74.7368 70.8948 75.0538 72.4531 75.6602 73.533V73.8815H68.6936ZM64.3318 69.3706C65.2 69.3706 65.9166 69.1861 66.4817 68.817C67.0605 68.4479 67.474 68.031 67.722 67.5662V64.019H65.6961C63.2706 64.019 62.0578 65.0989 62.0578 67.2587C62.0578 67.8875 62.2714 68.4001 62.6987 68.7965C63.1259 69.1792 63.6703 69.3706 64.3318 69.3706Z" fill="url(#paint9_linear_338214_13303)"/>
<path fill-rule="evenodd" clip-rule="evenodd" d="M131.145 23.0102V25.5322H119.375V23.0102H131.145ZM119.375 94.4676V28.8949H131.145V94.4676H119.375ZM120.613 97.8303L125.26 107.125L129.907 97.8303H120.613ZM131.145 19.6475V17.9662C131.145 14.7161 128.51 12.0814 125.26 12.0814C122.01 12.0814 119.375 14.7161 119.375 17.9662V19.6475H131.145ZM134.508 17.9662V96.1489L127.14 110.884L125.26 114.644L123.38 110.884L116.013 96.1489V17.9662C116.013 12.859 120.153 8.71875 125.26 8.71875C130.367 8.71875 134.508 12.859 134.508 17.9662Z" fill="url(#paint10_linear_338214_13303)"/>
<defs>
<filter id="filter0_bd_338214_13303" x="115.923" y="25.2788" width="22.1865" height="69.9927" filterUnits="userSpaceOnUse" color-interpolation-filters="sRGB">
<feFlood flood-opacity="0" result="BackgroundImageFix"/>
<feGaussianBlur in="BackgroundImageFix" stdDeviation="2"/>
<feComposite in2="SourceAlpha" operator="in" result="effect1_backgroundBlur_338214_13303"/>
<feColorMatrix in="SourceAlpha" type="matrix" values="0 0 0 0 0 0 0 0 0 0 0 0 0 0 0 0 0 0 127 0" result="hardAlpha"/>
<feOffset/>
<feGaussianBlur stdDeviation="2.5"/>
<feComposite in2="hardAlpha" operator="out"/>
<feColorMatrix type="matrix" values="0 0 0 0 0.0823529 0 0 0 0 0.054902 0 0 0 0 0.447059 0 0 0 0.06 0"/>
<feBlend mode="normal" in2="effect1_backgroundBlur_338214_13303" result="effect2_dropShadow_338214_13303"/>
<feBlend mode="normal" in="SourceGraphic" in2="effect2_dropShadow_338214_13303" result="shape"/>
</filter>
<filter id="filter1_bd_338214_13303" x="20" y="0.71875" width="66" height="124" filterUnits="userSpaceOnUse" color-interpolation-filters="sRGB">
<feFlood flood-opacity="0" result="BackgroundImageFix"/>
<feGaussianBlur in="BackgroundImageFix" stdDeviation="2"/>
<feComposite in2="SourceAlpha" operator="in" result="effect1_backgroundBlur_338214_13303"/>
<feColorMatrix in="SourceAlpha" type="matrix" values="0 0 0 0 0 0 0 0 0 0 0 0 0 0 0 0 0 0 127 0" result="hardAlpha"/>
<feOffset/>
<feGaussianBlur stdDeviation="2.5"/>
<feComposite in2="hardAlpha" operator="out"/>
<feColorMatrix type="matrix" values="0 0 0 0 0.0823529 0 0 0 0 0.054902 0 0 0 0 0.447059 0 0 0 0.06 0"/>
<feBlend mode="normal" in2="effect1_backgroundBlur_338214_13303" result="effect2_dropShadow_338214_13303"/>
<feBlend mode="normal" in="SourceGraphic" in2="effect2_dropShadow_338214_13303" result="shape"/>
</filter>
<linearGradient id="paint0_linear_338214_13303" x1="95.6102" y1="12.0811" x2="0.943258" y2="90.674" gradientUnits="userSpaceOnUse">
<stop stop-color="#5785FB"/>
<stop offset="1" stop-color="#41B7B2"/>
</linearGradient>
<linearGradient id="paint1_linear_338214_13303" x1="95.6102" y1="12.0811" x2="0.943258" y2="90.674" gradientUnits="userSpaceOnUse">
<stop stop-color="#5785FB"/>
<stop offset="1" stop-color="#41B7B2"/>
</linearGradient>
<linearGradient id="paint2_linear_338214_13303" x1="95.6102" y1="12.0811" x2="0.943258" y2="90.674" gradientUnits="userSpaceOnUse">
<stop stop-color="#5785FB"/>
<stop offset="1" stop-color="#41B7B2"/>
</linearGradient>
<linearGradient id="paint3_linear_338214_13303" x1="95.6102" y1="12.0811" x2="0.943258" y2="90.674" gradientUnits="userSpaceOnUse">
<stop stop-color="#5785FB"/>
<stop offset="1" stop-color="#41B7B2"/>
</linearGradient>
<linearGradient id="paint4_linear_338214_13303" x1="95.6102" y1="12.0811" x2="0.943258" y2="90.674" gradientUnits="userSpaceOnUse">
<stop stop-color="#5785FB"/>
<stop offset="1" stop-color="#41B7B2"/>
</linearGradient>
<linearGradient id="paint5_linear_338214_13303" x1="95.6102" y1="12.0811" x2="0.943258" y2="90.674" gradientUnits="userSpaceOnUse">
<stop stop-color="#5785FB"/>
<stop offset="1" stop-color="#41B7B2"/>
</linearGradient>
<linearGradient id="paint6_linear_338214_13303" x1="95.6102" y1="12.0811" x2="0.943258" y2="90.674" gradientUnits="userSpaceOnUse">
<stop stop-color="#5785FB"/>
<stop offset="1" stop-color="#41B7B2"/>
</linearGradient>
<linearGradient id="paint7_linear_338214_13303" x1="95.6102" y1="12.0811" x2="0.943258" y2="90.674" gradientUnits="userSpaceOnUse">
<stop stop-color="#5785FB"/>
<stop offset="1" stop-color="#41B7B2"/>
</linearGradient>
<linearGradient id="paint8_linear_338214_13303" x1="73.8351" y1="44.0273" x2="45.3063" y2="82.8328" gradientUnits="userSpaceOnUse">
<stop stop-color="#5785FB"/>
<stop offset="1" stop-color="#41B7B2"/>
</linearGradient>
<linearGradient id="paint9_linear_338214_13303" x1="73.8351" y1="44.0273" x2="45.3063" y2="82.8328" gradientUnits="userSpaceOnUse">
<stop stop-color="#5785FB"/>
<stop offset="1" stop-color="#41B7B2"/>
</linearGradient>
<linearGradient id="paint10_linear_338214_13303" x1="133.838" y1="8.71875" x2="104.617" y2="12.8828" gradientUnits="userSpaceOnUse">
<stop stop-color="#5785FB"/>
<stop offset="1" stop-color="#41B7B2"/>
</linearGradient>
</defs>
</svg>
