<svg width="39" height="38" viewBox="0 0 39 38" fill="none" xmlns="http://www.w3.org/2000/svg">
<mask id="path-1-inside-1_338374_25846" fill="white">
<path fill-rule="evenodd" clip-rule="evenodd" d="M36.5 19C36.5 9.61116 28.8888 2 19.5 2C10.1112 2 2.5 9.61116 2.5 19C2.5 28.3888 10.1112 36 19.5 36C28.8888 36 36.5 28.3888 36.5 19ZM38.5 19C38.5 8.50659 29.9934 0 19.5 0C9.00659 0 0.5 8.50659 0.5 19C0.5 29.4934 9.00659 38 19.5 38C29.9934 38 38.5 29.4934 38.5 19ZM30.5176 19.366L25.5875 24.5162C25.2849 24.8322 24.7944 24.8322 24.4919 24.5162C24.1894 24.2001 24.1894 23.6877 24.4919 23.3717L28.0995 19.603H8.27747V17.9845H15.8649H28.0995L24.4919 14.2158C24.1894 13.8998 24.1894 13.3874 24.4919 13.0713C24.7944 12.7553 25.2849 12.7553 25.5875 13.0713L30.5176 18.2215C30.8201 18.5375 30.8201 19.0499 30.5176 19.366Z"/>
</mask>
<path fill-rule="evenodd" clip-rule="evenodd" d="M36.5 19C36.5 9.61116 28.8888 2 19.5 2C10.1112 2 2.5 9.61116 2.5 19C2.5 28.3888 10.1112 36 19.5 36C28.8888 36 36.5 28.3888 36.5 19ZM38.5 19C38.5 8.50659 29.9934 0 19.5 0C9.00659 0 0.5 8.50659 0.5 19C0.5 29.4934 9.00659 38 19.5 38C29.9934 38 38.5 29.4934 38.5 19ZM30.5176 19.366L25.5875 24.5162C25.2849 24.8322 24.7944 24.8322 24.4919 24.5162C24.1894 24.2001 24.1894 23.6877 24.4919 23.3717L28.0995 19.603H8.27747V17.9845H15.8649H28.0995L24.4919 14.2158C24.1894 13.8998 24.1894 13.3874 24.4919 13.0713C24.7944 12.7553 25.2849 12.7553 25.5875 13.0713L30.5176 18.2215C30.8201 18.5375 30.8201 19.0499 30.5176 19.366Z" fill="white"/>
<path d="M25.5875 24.5162L23.4204 22.4417L23.4204 22.4417L25.5875 24.5162ZM30.5176 19.366L32.6847 21.4405L32.6847 21.4405L30.5176 19.366ZM24.4919 24.5162L26.659 22.4417L26.659 22.4417L24.4919 24.5162ZM24.4919 23.3717L22.3248 21.2972L22.3248 21.2972L24.4919 23.3717ZM28.0995 19.603L30.2666 21.6775L35.1243 16.603H28.0995V19.603ZM8.27747 19.603H5.27747V22.603H8.27747V19.603ZM8.27747 17.9845V14.9845H5.27747V17.9845H8.27747ZM28.0995 17.9845V20.9845H35.1243L30.2666 15.91L28.0995 17.9845ZM24.4919 14.2158L22.3248 16.2903L22.3248 16.2903L24.4919 14.2158ZM24.4919 13.0713L26.659 15.1458L26.659 15.1458L24.4919 13.0713ZM25.5875 13.0713L23.4204 15.1458L23.4204 15.1458L25.5875 13.0713ZM30.5176 18.2215L32.6847 16.147L32.6847 16.147L30.5176 18.2215ZM19.5 5C27.232 5 33.5 11.268 33.5 19H39.5C39.5 7.9543 30.5457 -1 19.5 -1V5ZM5.5 19C5.5 11.268 11.768 5 19.5 5V-1C8.45431 -1 -0.5 7.9543 -0.5 19H5.5ZM19.5 33C11.768 33 5.5 26.732 5.5 19H-0.5C-0.5 30.0457 8.4543 39 19.5 39V33ZM33.5 19C33.5 26.732 27.232 33 19.5 33V39C30.5457 39 39.5 30.0457 39.5 19H33.5ZM19.5 3C28.3366 3 35.5 10.1634 35.5 19H41.5C41.5 6.84974 31.6503 -3 19.5 -3V3ZM3.5 19C3.5 10.1634 10.6634 3 19.5 3V-3C7.34974 -3 -2.5 6.84974 -2.5 19H3.5ZM19.5 35C10.6634 35 3.5 27.8366 3.5 19H-2.5C-2.5 31.1503 7.34974 41 19.5 41V35ZM35.5 19C35.5 27.8366 28.3366 35 19.5 35V41C31.6503 41 41.5 31.1503 41.5 19H35.5ZM27.7546 26.5907L32.6847 21.4405L28.3505 17.2915L23.4204 22.4417L27.7546 26.5907ZM22.3248 26.5907C23.8086 28.1407 26.2708 28.1407 27.7546 26.5907L23.4204 22.4417C24.2991 21.5237 25.7803 21.5237 26.659 22.4417L22.3248 26.5907ZM22.3248 21.2972C20.9117 22.7733 20.9117 25.1146 22.3248 26.5907L26.659 22.4417C27.467 23.2857 27.467 24.6022 26.659 25.4462L22.3248 21.2972ZM25.9324 17.5285L22.3248 21.2972L26.659 25.4462L30.2666 21.6775L25.9324 17.5285ZM8.27747 22.603H28.0995V16.603H8.27747V22.603ZM5.27747 17.9845V19.603H11.2775V17.9845H5.27747ZM15.8649 14.9845H8.27747V20.9845H15.8649V14.9845ZM28.0995 14.9845H15.8649V20.9845H28.0995V14.9845ZM22.3248 16.2903L25.9324 20.059L30.2666 15.91L26.659 12.1413L22.3248 16.2903ZM22.3248 10.9968C20.9117 12.4729 20.9117 14.8142 22.3248 16.2903L26.659 12.1413C27.467 12.9853 27.467 14.3018 26.659 15.1458L22.3248 10.9968ZM27.7546 10.9968C26.2708 9.44677 23.8086 9.44677 22.3248 10.9968L26.659 15.1458C25.7803 16.0638 24.2991 16.0638 23.4204 15.1458L27.7546 10.9968ZM32.6847 16.147L27.7546 10.9968L23.4204 15.1458L28.3505 20.296L32.6847 16.147ZM32.6847 21.4405C34.0978 19.9644 34.0978 17.6231 32.6847 16.147L28.3505 20.296C27.5425 19.452 27.5425 18.1355 28.3505 17.2915L32.6847 21.4405Z" fill="black" mask="url(#path-1-inside-1_338374_25846)"/>
</svg>
