<svg width="99" height="86" viewBox="0 0 99 86" fill="none" xmlns="http://www.w3.org/2000/svg">
<path fill-rule="evenodd" clip-rule="evenodd" d="M51.7786 4.77148C52.2436 4.77148 52.7548 4.92168 53.1562 5.28257C54.1304 6.15842 55.7619 7.10206 57.1361 7.78916C58.2564 8.34933 59.972 8.70539 61.1345 8.7563C61.6765 8.78003 62.172 9.03224 62.5178 9.38139C62.8651 9.73203 63.1551 10.2839 63.0576 10.9342C62.7058 13.2824 61.8929 16.3598 59.6358 20.2291C58.2597 22.5881 56.4976 24.2511 55.0317 25.3254C54.2981 25.863 53.6315 26.2584 53.1128 26.5235C52.8542 26.6556 52.6248 26.7592 52.4361 26.8327C52.3426 26.8691 52.2492 26.9019 52.161 26.9272C52.1008 26.9445 51.9496 26.9871 51.7786 26.9871C51.6076 26.9871 51.4564 26.9445 51.3962 26.9272C51.308 26.9019 51.2146 26.8691 51.121 26.8327C50.9323 26.7592 50.7029 26.6556 50.4444 26.5235C49.9257 26.2584 49.2591 25.863 48.5255 25.3254C47.0595 24.2511 45.2975 22.5881 43.9214 20.2291C41.6643 16.3598 40.8514 13.2824 40.4996 10.9342C40.4021 10.2839 40.6921 9.73203 41.0394 9.38139C41.3852 9.03224 41.8807 8.78003 42.4227 8.7563C43.5852 8.70539 45.3008 8.34933 46.4211 7.78916C47.7953 7.10206 49.4268 6.15842 50.401 5.28257C50.8024 4.92168 51.3136 4.77148 51.7786 4.77148ZM57.6376 14.5278L51.8593 20.3061C51.4753 20.6902 50.8525 20.6902 50.4684 20.3061L47.8867 17.7243L49.2776 16.3334L51.1639 18.2197L56.2467 13.1369L57.6376 14.5278Z" fill="white"/>
<path fill-rule="evenodd" clip-rule="evenodd" d="M51.9537 61.3494C52.4116 60.8915 53.1539 60.8915 53.6118 61.3494L59.4711 67.2087C61.3501 69.0877 61.2771 72.1561 59.3108 73.9436C57.4725 75.6149 54.6456 75.5476 52.8889 73.7908L51.9537 72.8557C51.4959 72.3978 51.4959 71.6555 51.9537 71.1976C52.4116 70.7398 53.1539 70.7398 53.6118 71.1976L54.5469 72.1328C55.4186 73.0045 56.8213 73.0379 57.7335 72.2086C58.7092 71.3216 58.7454 69.7991 57.813 68.8667L51.9537 63.0074C51.4959 62.5496 51.4959 61.8072 51.9537 61.3494Z" fill="white"/>
<path fill-rule="evenodd" clip-rule="evenodd" d="M57.5592 58.0893C58.0045 57.6193 58.7466 57.5992 59.2167 58.0445L65.4344 63.935C67.3758 65.7742 67.2622 68.8997 65.1925 70.5931C63.4274 72.0372 60.8553 71.909 59.2427 70.2964L58.5192 69.5729C58.0614 69.1151 58.0614 68.3728 58.5192 67.9149C58.9771 67.457 59.7194 67.457 60.1773 67.9149L60.9007 68.6383C61.6615 69.3991 62.8749 69.4596 63.7076 68.7783C64.684 67.9794 64.7376 66.5049 63.8218 65.6373L57.604 59.7468C57.134 59.3014 57.1139 58.5594 57.5592 58.0893Z" fill="white"/>
<path fill-rule="evenodd" clip-rule="evenodd" d="M66.9606 57.1287C67.4185 56.6708 68.1608 56.6708 68.6187 57.1287L69.7105 58.2205C71.3802 59.8902 71.513 62.5534 70.0177 64.381C68.3636 66.4027 65.3593 66.6411 63.407 64.9057L57.6314 59.7719C57.1475 59.3417 57.1039 58.6007 57.5341 58.1167C57.9642 57.6328 58.7053 57.5892 59.1892 58.0194L64.9648 63.1532C65.9211 64.0032 67.3927 63.8864 68.2029 62.8961C68.9354 62.0009 68.8703 60.6964 68.0524 59.8785L66.9606 58.7867C66.5028 58.3289 66.5028 57.5865 66.9606 57.1287Z" fill="white"/>
<path fill-rule="evenodd" clip-rule="evenodd" d="M20.3983 50.6555L30.2466 62.8486L28.4224 64.322L18.5742 52.1289L20.3983 50.6555Z" fill="white"/>
<path fill-rule="evenodd" clip-rule="evenodd" d="M53.5225 39.9026C53.1549 39.9026 52.7896 39.9602 52.4398 40.0733L39.8279 44.1536C38.9523 44.4369 38.454 45.3583 38.6961 46.2462C38.9266 47.0913 39.7545 47.6289 40.6203 47.4957L47.7857 46.3933C49.6614 46.1048 51.578 46.5074 53.1791 47.5262L53.4044 47.6696C55.2356 48.8349 57.1482 49.8669 59.1275 50.7576C63.3539 52.6594 67.1581 55.3838 70.3188 58.7706L70.8249 58.4332C73.5211 56.6357 75.824 54.3091 77.5937 51.5946L79.558 52.8752C77.6147 55.8558 75.0861 58.4105 72.1255 60.3842L69.949 61.8353L68.8016 60.5836C65.815 57.3254 62.196 54.7097 58.1653 52.8959C56.0834 51.959 54.0716 50.8735 52.1455 49.6478L51.9202 49.5045C50.7987 48.7908 49.4561 48.5088 48.1423 48.7109L40.9768 49.8133C38.9327 50.1278 36.9781 48.8584 36.4339 46.8632C35.8622 44.7669 37.0389 42.5915 39.1062 41.9227L51.718 37.8424C52.301 37.6538 52.9098 37.5577 53.5225 37.5577H66.8517C67.4992 37.5577 68.0241 38.0826 68.0241 38.7301C68.0241 39.3776 67.4992 39.9026 66.8517 39.9026H53.5225Z" fill="white"/>
<path fill-rule="evenodd" clip-rule="evenodd" d="M30.0392 39.6148C30.0686 38.968 30.6168 38.4675 31.2636 38.4969L41.0329 38.9409C41.4879 38.9616 41.9391 39.0353 42.3771 39.1604L45.1324 39.9477C45.755 40.1255 46.1155 40.7745 45.9376 41.3971C45.7598 42.0196 45.1109 42.3802 44.4883 42.2023L41.7329 41.415C41.4701 41.3399 41.1994 41.2957 40.9264 41.2833L31.1571 40.8393C30.5103 40.8099 30.0097 40.2617 30.0392 39.6148Z" fill="white"/>
<path fill-rule="evenodd" clip-rule="evenodd" d="M27.0374 28.1189C27.4588 27.6273 28.199 27.5703 28.6906 27.9917L33.8265 32.3939C35.1081 33.4924 35.253 35.4233 34.1497 36.7008L17.5597 55.9102C17.1365 56.4003 16.3962 56.4545 15.9061 56.0312C15.4161 55.608 15.3619 54.8677 15.7851 54.3776L32.3751 35.1681C32.6297 34.8733 32.5963 34.4278 32.3005 34.1743L27.1646 29.772C26.673 29.3506 26.616 28.6105 27.0374 28.1189Z" fill="white"/>
<path fill-rule="evenodd" clip-rule="evenodd" d="M74.8017 27.2115C74.3972 26.7059 73.6594 26.6239 73.1538 27.0284L65.2955 33.3151C63.9457 34.3949 63.7629 36.3797 64.8927 37.6878L81.4403 56.8482C81.8635 57.3382 82.6038 57.3924 83.0939 56.9692C83.5839 56.5459 83.6381 55.8056 83.2149 55.3155L66.6673 36.1552C66.4066 35.8533 66.4488 35.3953 66.7603 35.1461L74.6186 28.8594C75.1242 28.4549 75.2062 27.7172 74.8017 27.2115Z" fill="white"/>
<path fill-rule="evenodd" clip-rule="evenodd" d="M34.2677 60.196L31.324 62.5171C30.749 62.9705 30.6504 63.8043 31.1038 64.3793C31.5573 64.9544 32.391 65.053 32.9661 64.5995L35.9097 62.2784C36.4848 61.825 36.5834 60.9912 36.1299 60.4162C35.6765 59.8411 34.8427 59.7425 34.2677 60.196ZM29.8722 60.6758C28.2802 61.9311 28.0073 64.2392 29.2626 65.8312C30.5178 67.4232 32.826 67.6961 34.418 66.4408L37.3616 64.1197C38.9536 62.8644 39.2265 60.5563 37.9712 58.9643C36.7159 57.3724 34.4078 57.0994 32.8158 58.3547L29.8722 60.6758Z" fill="white"/>
<path fill-rule="evenodd" clip-rule="evenodd" d="M38.4939 63.2276L35.2453 65.7892C34.521 66.3603 34.3968 67.4105 34.9679 68.1348C35.539 68.8591 36.5892 68.9833 37.3135 68.4121L40.5622 65.8505C41.2865 65.2794 41.4107 64.2292 40.8395 63.5049C40.2684 62.7806 39.2182 62.6564 38.4939 63.2276ZM33.7934 63.9479C32.0522 65.3209 31.7537 67.8454 33.1266 69.5867C34.4996 71.3279 37.0242 71.6264 38.7654 70.2534L42.014 67.6918C43.7553 66.3188 44.0538 63.7943 42.6808 62.0531C41.3078 60.3118 38.7833 60.0133 37.042 61.3863L33.7934 63.9479Z" fill="white"/>
<path fill-rule="evenodd" clip-rule="evenodd" d="M44.1766 66.0363L40.1648 69.1998C39.3914 69.8096 39.2588 70.9308 39.8686 71.7042C40.4784 72.4775 41.5997 72.6101 42.3731 72.0003L46.3849 68.8369C47.1583 68.2271 47.2909 67.1058 46.6811 66.3325C46.0713 65.5591 44.95 65.4265 44.1766 66.0363ZM38.7129 67.3585C36.9226 68.7701 36.6157 71.3658 38.0274 73.1561C39.439 74.9463 42.0347 75.2532 43.8249 73.8416L47.8368 70.6782C49.6271 69.2665 49.934 66.6709 48.5224 64.8806C47.1107 63.0903 44.515 62.7834 42.7248 64.1951L40.7188 65.7768L38.7129 67.3585Z" fill="white"/>
<path fill-rule="evenodd" clip-rule="evenodd" d="M48.9034 69.8258L46.2468 71.9206C45.527 72.4881 45.4036 73.5317 45.9711 74.2515C46.5387 74.9713 47.5823 75.0947 48.3021 74.5272L50.9587 72.4324C51.6785 71.8648 51.8019 70.8212 51.2343 70.1014C50.6668 69.3816 49.6232 69.2582 48.9034 69.8258ZM44.7949 70.0793C43.0582 71.4487 42.7605 73.9667 44.1299 75.7034C45.4993 77.4401 48.0173 77.7378 49.754 76.3684L52.4106 74.2736C54.1473 72.9042 54.445 70.3862 53.0756 68.6495C51.7062 66.9129 49.1882 66.6151 47.4515 67.9845L44.7949 70.0793Z" fill="white"/>
<path fill-rule="evenodd" clip-rule="evenodd" d="M22.3 39.1991C23.336 39.1991 24.1759 38.3593 24.1759 37.3232C24.1759 36.2872 23.336 35.4474 22.3 35.4474C21.264 35.4474 20.4242 36.2872 20.4242 37.3232C20.4242 38.3593 21.264 39.1991 22.3 39.1991ZM22.3 41.075C24.372 41.075 26.0517 39.3953 26.0517 37.3232C26.0517 35.2512 24.372 33.5715 22.3 33.5715C20.228 33.5715 18.5483 35.2512 18.5483 37.3232C18.5483 39.3953 20.228 41.075 22.3 41.075Z" fill="white"/>
<path fill-rule="evenodd" clip-rule="evenodd" d="M74.8241 38.2612C75.8601 38.2612 76.7 37.4213 76.7 36.3853C76.7 35.3493 75.8601 34.5095 74.8241 34.5095C73.7881 34.5095 72.9483 35.3493 72.9483 36.3853C72.9483 37.4213 73.7881 38.2612 74.8241 38.2612ZM74.8241 40.137C76.8961 40.137 78.5758 38.4573 78.5758 36.3853C78.5758 34.3133 76.8961 32.6336 74.8241 32.6336C72.7521 32.6336 71.0724 34.3133 71.0724 36.3853C71.0724 38.4573 72.7521 40.137 74.8241 40.137Z" fill="white"/>
</svg>
