<svg width="122" height="106" viewBox="0 0 122 106" fill="none" xmlns="http://www.w3.org/2000/svg">
<path fill-rule="evenodd" clip-rule="evenodd" d="M31.9361 49.4457C32.3242 49.5912 32.5207 50.0237 32.3752 50.4116L27.8733 62.4163C27.7278 62.8043 27.2954 63.0009 26.9073 62.8554C26.5193 62.7099 26.3228 62.2774 26.4683 61.8894L30.9702 49.8848C31.1157 49.4968 31.5481 49.3002 31.9361 49.4457Z" fill="url(#paint0_linear_1_337)"/>
<path fill-rule="evenodd" clip-rule="evenodd" d="M33.7682 52.2437C34.0613 51.9507 34.5363 51.9507 34.8294 52.2437L38.2058 55.62C38.4988 55.913 38.4988 56.3881 38.2058 56.6811L34.8294 60.0574C34.5363 60.3504 34.0613 60.3504 33.7682 60.0574C33.4752 59.7644 33.4752 59.2893 33.7682 58.9963L36.6141 56.1505L33.7682 53.3047C33.4752 53.0117 33.4752 52.5367 33.7682 52.2437Z" fill="url(#paint1_linear_1_337)"/>
<path fill-rule="evenodd" clip-rule="evenodd" d="M25.0753 52.2437C24.7822 51.9507 24.3072 51.9507 24.0141 52.2437L20.6377 55.62C20.3447 55.913 20.3447 56.3881 20.6377 56.6811L24.0141 60.0574C24.3072 60.3504 24.7822 60.3504 25.0753 60.0574C25.3683 59.7644 25.3683 59.2893 25.0753 58.9963L22.2294 56.1505L25.0753 53.3047C25.3683 53.0117 25.3683 52.5367 25.0753 52.2437Z" fill="url(#paint2_linear_1_337)"/>
<path d="M68.8125 79.7849V41.5188H82.8809L89.071 48.2716H112.706V79.7849H68.8125Z" fill="url(#paint3_linear_1_337)"/>
<path fill-rule="evenodd" clip-rule="evenodd" d="M96.2206 53.4072C96.8026 53.6254 97.0975 54.2742 96.8793 54.8562L90.1264 72.8637C89.9082 73.4457 89.2594 73.7406 88.6774 73.5224C88.0954 73.3041 87.8005 72.6554 88.0188 72.0734L94.7716 54.0658C94.9899 53.4838 95.6386 53.1889 96.2206 53.4072Z" fill="white"/>
<path fill-rule="evenodd" clip-rule="evenodd" d="M98.9688 57.6043C99.4083 57.1648 100.121 57.1648 100.56 57.6043L105.625 62.6689C106.065 63.1084 106.065 63.821 105.625 64.2606L100.56 69.3252C100.121 69.7647 99.4083 69.7647 98.9688 69.3252C98.5292 68.8857 98.5292 68.1731 98.9688 67.7335L103.238 63.4647L98.9688 59.1959C98.5292 58.7564 98.5292 58.0438 98.9688 57.6043Z" fill="white"/>
<path fill-rule="evenodd" clip-rule="evenodd" d="M85.9293 57.6043C85.4898 57.1648 84.7772 57.1648 84.3376 57.6043L79.273 62.6689C78.8335 63.1084 78.8335 63.821 79.273 64.2606L84.3376 69.3252C84.7772 69.7647 85.4898 69.7647 85.9293 69.3252C86.3688 68.8857 86.3688 68.1731 85.9293 67.7335L81.6605 63.4647L85.9293 59.1959C86.3688 58.7564 86.3688 58.0438 85.9293 57.6043Z" fill="white"/>
<path fill-rule="evenodd" clip-rule="evenodd" d="M12.707 20.4383C12.707 18.498 14.28 16.925 16.2203 16.925H84.2658C86.2062 16.925 87.7791 18.498 87.7791 20.4383V46.7697L85.8628 44.7067V20.4383C85.8628 19.5564 85.1478 18.8414 84.2658 18.8414H16.2203C15.3384 18.8414 14.6234 19.5564 14.6234 20.4383V70.4763C14.6234 71.3582 15.3384 72.0732 16.2203 72.0732H68.8134V73.9896H16.2203C14.28 73.9896 12.707 72.4166 12.707 70.4763V20.4383Z" fill="url(#paint4_linear_1_337)"/>
<path fill-rule="evenodd" clip-rule="evenodd" d="M13.8325 65.1531C13.8325 64.6239 14.2615 64.1949 14.7907 64.1949H68.2506C68.7798 64.1949 69.2088 64.6239 69.2088 65.1531C69.2088 65.6823 68.7798 66.1112 68.2506 66.1112H14.7907C14.2615 66.1112 13.8325 65.6823 13.8325 65.1531Z" fill="url(#paint5_linear_1_337)"/>
<path fill-rule="evenodd" clip-rule="evenodd" d="M57.7411 74.096H41.7716V81.7614H57.7411V74.096ZM39.8553 72.1797V83.6777H59.6575V72.1797H39.8553Z" fill="url(#paint6_linear_1_337)"/>
<path fill-rule="evenodd" clip-rule="evenodd" d="M63.4902 83.6777H36.0226V86.8717H63.4902V83.6777ZM34.1062 81.7614V88.788H65.4065V81.7614H34.1062Z" fill="url(#paint7_linear_1_337)"/>
<path d="M20.4179 33.6399H23.7943V34.9172H20.4179V33.6399Z" fill="url(#paint8_linear_1_337)"/>
<path d="M27.1738 33.6399H30.5502V34.9172H27.1738V33.6399Z" fill="url(#paint9_linear_1_337)"/>
<path d="M33.9277 33.6399H58.6881V34.9172H33.9277V33.6399Z" fill="url(#paint10_linear_1_337)"/>
<path d="M36.1795 26.886H59.8144V28.1635H36.1795V26.886Z" fill="url(#paint11_linear_1_337)"/>
<path d="M19.6288 26.886H32.009V28.1635H19.6288V26.886Z" fill="url(#paint12_linear_1_337)"/>
<path d="M63.1874 26.886H67.6893V28.1635H63.1874V26.886Z" fill="url(#paint13_linear_1_337)"/>
<path d="M68.8144 26.886H82.3201V28.1635H68.8144V26.886Z" fill="url(#paint14_linear_1_337)"/>
<path d="M20.4179 46.0227H23.7943V47.3003H20.4179V46.0227Z" fill="url(#paint15_linear_1_337)"/>
<path d="M26.0488 46.0227H44.0563V47.3003H26.0488V46.0227Z" fill="url(#paint16_linear_1_337)"/>
<path d="M46.3066 46.0227H50.8085V47.3003H46.3066V46.0227Z" fill="url(#paint17_linear_1_337)"/>
<path d="M54.1835 46.0227H65.4383V47.3003H54.1835V46.0227Z" fill="url(#paint18_linear_1_337)"/>
<path d="M20.4179 39.2688H54.1821V40.5464H20.4179V39.2688Z" fill="url(#paint19_linear_1_337)"/>
<defs>
<linearGradient id="paint0_linear_1_337" x1="37.7739" y1="49.3977" x2="24.483" y2="63.8606" gradientUnits="userSpaceOnUse">
<stop stop-color="#5785FB"/>
<stop offset="1" stop-color="#41B7B2"/>
</linearGradient>
<linearGradient id="paint1_linear_1_337" x1="37.7739" y1="49.3977" x2="24.483" y2="63.8606" gradientUnits="userSpaceOnUse">
<stop stop-color="#5785FB"/>
<stop offset="1" stop-color="#41B7B2"/>
</linearGradient>
<linearGradient id="paint2_linear_1_337" x1="37.7739" y1="49.3977" x2="24.483" y2="63.8606" gradientUnits="userSpaceOnUse">
<stop stop-color="#5785FB"/>
<stop offset="1" stop-color="#41B7B2"/>
</linearGradient>
<linearGradient id="paint3_linear_1_337" x1="111.118" y1="41.5188" x2="73.4076" y2="76.8212" gradientUnits="userSpaceOnUse">
<stop stop-color="#5785FB"/>
<stop offset="1" stop-color="#41B7B2"/>
</linearGradient>
<linearGradient id="paint4_linear_1_337" x1="85.0627" y1="16.9251" x2="14.9828" y2="76.6737" gradientUnits="userSpaceOnUse">
<stop stop-color="#5785FB"/>
<stop offset="1" stop-color="#41B7B2"/>
</linearGradient>
<linearGradient id="paint5_linear_1_337" x1="85.0627" y1="16.9251" x2="14.9828" y2="76.6737" gradientUnits="userSpaceOnUse">
<stop stop-color="#5785FB"/>
<stop offset="1" stop-color="#41B7B2"/>
</linearGradient>
<linearGradient id="paint6_linear_1_337" x1="85.0627" y1="16.9251" x2="14.9828" y2="76.6737" gradientUnits="userSpaceOnUse">
<stop stop-color="#5785FB"/>
<stop offset="1" stop-color="#41B7B2"/>
</linearGradient>
<linearGradient id="paint7_linear_1_337" x1="85.0627" y1="16.9251" x2="14.9828" y2="76.6737" gradientUnits="userSpaceOnUse">
<stop stop-color="#5785FB"/>
<stop offset="1" stop-color="#41B7B2"/>
</linearGradient>
<linearGradient id="paint8_linear_1_337" x1="23.6722" y1="33.6399" x2="22.7095" y2="35.7167" gradientUnits="userSpaceOnUse">
<stop stop-color="#5785FB"/>
<stop offset="1" stop-color="#41B7B2"/>
</linearGradient>
<linearGradient id="paint9_linear_1_337" x1="30.428" y1="33.6399" x2="29.4653" y2="35.7167" gradientUnits="userSpaceOnUse">
<stop stop-color="#5785FB"/>
<stop offset="1" stop-color="#41B7B2"/>
</linearGradient>
<linearGradient id="paint10_linear_1_337" x1="57.7921" y1="33.6399" x2="57.6333" y2="36.1529" gradientUnits="userSpaceOnUse">
<stop stop-color="#5785FB"/>
<stop offset="1" stop-color="#41B7B2"/>
</linearGradient>
<linearGradient id="paint11_linear_1_337" x1="58.9592" y1="26.886" x2="58.7928" y2="29.3985" gradientUnits="userSpaceOnUse">
<stop stop-color="#5785FB"/>
<stop offset="1" stop-color="#41B7B2"/>
</linearGradient>
<linearGradient id="paint12_linear_1_337" x1="31.5611" y1="26.886" x2="31.247" y2="29.3698" gradientUnits="userSpaceOnUse">
<stop stop-color="#5785FB"/>
<stop offset="1" stop-color="#41B7B2"/>
</linearGradient>
<linearGradient id="paint13_linear_1_337" x1="67.5264" y1="26.886" x2="66.7436" y2="29.1373" gradientUnits="userSpaceOnUse">
<stop stop-color="#5785FB"/>
<stop offset="1" stop-color="#41B7B2"/>
</linearGradient>
<linearGradient id="paint14_linear_1_337" x1="81.8314" y1="26.886" x2="81.5428" y2="29.376" gradientUnits="userSpaceOnUse">
<stop stop-color="#5785FB"/>
<stop offset="1" stop-color="#41B7B2"/>
</linearGradient>
<linearGradient id="paint15_linear_1_337" x1="23.6722" y1="46.0227" x2="22.7092" y2="48.0997" gradientUnits="userSpaceOnUse">
<stop stop-color="#5785FB"/>
<stop offset="1" stop-color="#41B7B2"/>
</linearGradient>
<linearGradient id="paint16_linear_1_337" x1="43.4047" y1="46.0227" x2="43.187" y2="48.5273" gradientUnits="userSpaceOnUse">
<stop stop-color="#5785FB"/>
<stop offset="1" stop-color="#41B7B2"/>
</linearGradient>
<linearGradient id="paint17_linear_1_337" x1="50.6456" y1="46.0227" x2="49.8628" y2="48.274" gradientUnits="userSpaceOnUse">
<stop stop-color="#5785FB"/>
<stop offset="1" stop-color="#41B7B2"/>
</linearGradient>
<linearGradient id="paint18_linear_1_337" x1="65.031" y1="46.0227" x2="64.6867" y2="48.4983" gradientUnits="userSpaceOnUse">
<stop stop-color="#5785FB"/>
<stop offset="1" stop-color="#41B7B2"/>
</linearGradient>
<linearGradient id="paint19_linear_1_337" x1="52.9604" y1="39.2688" x2="52.8436" y2="41.7869" gradientUnits="userSpaceOnUse">
<stop stop-color="#5785FB"/>
<stop offset="1" stop-color="#41B7B2"/>
</linearGradient>
</defs>
</svg>
