<svg width="146" height="106" viewBox="0 0 146 106" fill="none" xmlns="http://www.w3.org/2000/svg">
<path fill-rule="evenodd" clip-rule="evenodd" d="M27.9631 48.0063C28.5273 48.2179 28.8132 48.8468 28.6016 49.411L22.0552 66.8676C21.8436 67.4318 21.2147 67.7177 20.6504 67.5061C20.0862 67.2945 19.8004 66.6657 20.0119 66.1015L26.5584 48.6448C26.77 48.0806 27.3989 47.7947 27.9631 48.0063Z" fill="url(#paint0_linear_338214_13436)"/>
<path fill-rule="evenodd" clip-rule="evenodd" d="M30.6273 52.075C31.0534 51.6489 31.7442 51.6489 32.1703 52.075L37.0801 56.9847C37.5062 57.4108 37.5062 58.1016 37.0801 58.5277L32.1703 63.4374C31.7442 63.8634 31.0534 63.8634 30.6273 63.4374C30.2012 63.0113 30.2012 62.3205 30.6273 61.8944L34.7656 57.7562L30.6273 53.618C30.2012 53.1919 30.2012 52.5011 30.6273 52.075Z" fill="url(#paint1_linear_338214_13436)"/>
<path fill-rule="evenodd" clip-rule="evenodd" d="M17.9863 52.075C17.5602 51.6489 16.8694 51.6489 16.4433 52.075L11.5334 56.9847C11.1073 57.4108 11.1073 58.1016 11.5334 58.5277L16.4433 63.4374C16.8694 63.8634 17.5602 63.8634 17.9863 63.4374C18.4124 63.0113 18.4124 62.3205 17.9863 61.8944L13.848 57.7562L17.9863 53.618C18.4124 53.1919 18.4124 52.5011 17.9863 52.075Z" fill="url(#paint2_linear_338214_13436)"/>
<path d="M81.5879 92.1263V36.4814H102.046L111.047 46.3011H145.416V92.1263H81.5879Z" fill="url(#paint3_linear_338214_13436)"/>
<path fill-rule="evenodd" clip-rule="evenodd" d="M121.441 53.7697C122.288 54.0871 122.716 55.0304 122.399 55.8767L112.579 82.0626C112.262 82.9089 111.319 83.3377 110.472 83.0203C109.626 82.703 109.197 81.7596 109.514 80.9133L119.334 54.7274C119.652 53.8811 120.595 53.4523 121.441 53.7697Z" fill="white"/>
<path fill-rule="evenodd" clip-rule="evenodd" d="M125.437 59.8729C126.077 59.2338 127.113 59.2338 127.752 59.8729L135.117 67.2377C135.756 67.8768 135.756 68.9131 135.117 69.5522L127.752 76.917C127.113 77.5561 126.077 77.5561 125.437 76.917C124.798 76.2778 124.798 75.2416 125.437 74.6025L131.645 68.395L125.437 62.1875C124.798 61.5483 124.798 60.5121 125.437 59.8729Z" fill="white"/>
<path fill-rule="evenodd" clip-rule="evenodd" d="M106.476 59.8729C105.837 59.2338 104.801 59.2338 104.161 59.8729L96.7967 67.2377C96.1576 67.8768 96.1576 68.9131 96.7967 69.5522L104.161 76.917C104.801 77.5561 105.837 77.5561 106.476 76.917C107.115 76.2778 107.115 75.2416 106.476 74.6025L100.269 68.395L106.476 62.1875C107.115 61.5483 107.115 60.5121 106.476 59.8729Z" fill="white"/>
<path fill-rule="evenodd" clip-rule="evenodd" d="M0 5.82764C0 3.00608 2.28733 0.71875 5.10889 0.71875H104.058C106.879 0.71875 109.167 3.00608 109.167 5.82764V44.1176L106.38 41.1176V5.82764C106.38 4.54511 105.34 3.50542 104.058 3.50542H5.10889C3.82636 3.50542 2.78667 4.54511 2.78667 5.82764V78.5906C2.78667 79.8731 3.82636 80.9128 5.10889 80.9128H81.5874V83.6995H5.10889C2.28733 83.6995 0 81.4122 0 78.5906V5.82764Z" fill="url(#paint4_linear_338214_13436)"/>
<path fill-rule="evenodd" clip-rule="evenodd" d="M1.63661 70.8499C1.63661 70.0803 2.26043 69.4565 3.02995 69.4565H80.7691C81.5386 69.4565 82.1624 70.0803 82.1624 70.8499C82.1624 71.6194 81.5386 72.2432 80.7691 72.2432H3.02995C2.26043 72.2432 1.63661 71.6194 1.63661 70.8499Z" fill="url(#paint5_linear_338214_13436)"/>
<path fill-rule="evenodd" clip-rule="evenodd" d="M65.4867 83.8543H42.2644V95.001H65.4867V83.8543ZM39.4778 81.0676V97.7876H68.2733V81.0676H39.4778Z" fill="url(#paint6_linear_338214_13436)"/>
<path fill-rule="evenodd" clip-rule="evenodd" d="M73.8467 97.7876H33.9044V102.432H73.8467V97.7876ZM31.1178 95.001V105.219H76.6333V95.001H31.1178Z" fill="url(#paint7_linear_338214_13436)"/>
<path d="M11.2148 25.0254H16.1247V26.8828H11.2148V25.0254Z" fill="url(#paint8_linear_338214_13436)"/>
<path d="M21.0352 25.0254H25.945V26.8828H21.0352V25.0254Z" fill="url(#paint9_linear_338214_13436)"/>
<path d="M30.8555 25.0254H66.861V26.8828H30.8555V25.0254Z" fill="url(#paint10_linear_338214_13436)"/>
<path d="M34.1279 15.2051H68.4968V17.0629H34.1279V15.2051Z" fill="url(#paint11_linear_338214_13436)"/>
<path d="M10.0635 15.2051H28.0662V17.0629H10.0635V15.2051Z" fill="url(#paint12_linear_338214_13436)"/>
<path d="M73.4062 15.2051H79.9527V17.0629H73.4062V15.2051Z" fill="url(#paint13_linear_338214_13436)"/>
<path d="M81.5889 15.2051H101.228V17.0629H81.5889V15.2051Z" fill="url(#paint14_linear_338214_13436)"/>
<path d="M11.2148 43.0283H16.1247V44.8861H11.2148V43.0283Z" fill="url(#paint15_linear_338214_13436)"/>
<path d="M19.3984 43.0273H45.5843V44.8851H19.3984V43.0273Z" fill="url(#paint16_linear_338214_13436)"/>
<path d="M48.8584 43.0273H55.4049V44.8851H48.8584V43.0273Z" fill="url(#paint17_linear_338214_13436)"/>
<path d="M60.3135 43.0273H76.6796V44.8851H60.3135V43.0273Z" fill="url(#paint18_linear_338214_13436)"/>
<path d="M11.2148 33.209H60.3133V35.0668H11.2148V33.209Z" fill="url(#paint19_linear_338214_13436)"/>
<defs>
<linearGradient id="paint0_linear_338214_13436" x1="36.4522" y1="47.9365" x2="17.1251" y2="68.9679" gradientUnits="userSpaceOnUse">
<stop stop-color="#5785FB"/>
<stop offset="1" stop-color="#41B7B2"/>
</linearGradient>
<linearGradient id="paint1_linear_338214_13436" x1="36.4522" y1="47.9365" x2="17.1251" y2="68.9679" gradientUnits="userSpaceOnUse">
<stop stop-color="#5785FB"/>
<stop offset="1" stop-color="#41B7B2"/>
</linearGradient>
<linearGradient id="paint2_linear_338214_13436" x1="36.4522" y1="47.9365" x2="17.1251" y2="68.9679" gradientUnits="userSpaceOnUse">
<stop stop-color="#5785FB"/>
<stop offset="1" stop-color="#41B7B2"/>
</linearGradient>
<linearGradient id="paint3_linear_338214_13436" x1="143.106" y1="36.4814" x2="88.2699" y2="87.8167" gradientUnits="userSpaceOnUse">
<stop stop-color="#5785FB"/>
<stop offset="1" stop-color="#41B7B2"/>
</linearGradient>
<linearGradient id="paint4_linear_338214_13436" x1="105.216" y1="0.718753" x2="3.30939" y2="87.6026" gradientUnits="userSpaceOnUse">
<stop stop-color="#5785FB"/>
<stop offset="1" stop-color="#41B7B2"/>
</linearGradient>
<linearGradient id="paint5_linear_338214_13436" x1="105.216" y1="0.718753" x2="3.30939" y2="87.6026" gradientUnits="userSpaceOnUse">
<stop stop-color="#5785FB"/>
<stop offset="1" stop-color="#41B7B2"/>
</linearGradient>
<linearGradient id="paint6_linear_338214_13436" x1="105.216" y1="0.718753" x2="3.30939" y2="87.6026" gradientUnits="userSpaceOnUse">
<stop stop-color="#5785FB"/>
<stop offset="1" stop-color="#41B7B2"/>
</linearGradient>
<linearGradient id="paint7_linear_338214_13436" x1="105.216" y1="0.718753" x2="3.30939" y2="87.6026" gradientUnits="userSpaceOnUse">
<stop stop-color="#5785FB"/>
<stop offset="1" stop-color="#41B7B2"/>
</linearGradient>
<linearGradient id="paint8_linear_338214_13436" x1="15.947" y1="25.0254" x2="14.5472" y2="28.0454" gradientUnits="userSpaceOnUse">
<stop stop-color="#5785FB"/>
<stop offset="1" stop-color="#41B7B2"/>
</linearGradient>
<linearGradient id="paint9_linear_338214_13436" x1="25.7673" y1="25.0254" x2="24.3675" y2="28.0454" gradientUnits="userSpaceOnUse">
<stop stop-color="#5785FB"/>
<stop offset="1" stop-color="#41B7B2"/>
</linearGradient>
<linearGradient id="paint10_linear_338214_13436" x1="65.5581" y1="25.0254" x2="65.3272" y2="28.6797" gradientUnits="userSpaceOnUse">
<stop stop-color="#5785FB"/>
<stop offset="1" stop-color="#41B7B2"/>
</linearGradient>
<linearGradient id="paint11_linear_338214_13436" x1="67.2532" y1="15.2051" x2="67.0112" y2="18.8586" gradientUnits="userSpaceOnUse">
<stop stop-color="#5785FB"/>
<stop offset="1" stop-color="#41B7B2"/>
</linearGradient>
<linearGradient id="paint12_linear_338214_13436" x1="27.4148" y1="15.2051" x2="26.9581" y2="18.8169" gradientUnits="userSpaceOnUse">
<stop stop-color="#5785FB"/>
<stop offset="1" stop-color="#41B7B2"/>
</linearGradient>
<linearGradient id="paint13_linear_338214_13436" x1="79.7158" y1="15.2051" x2="78.5775" y2="18.4788" gradientUnits="userSpaceOnUse">
<stop stop-color="#5785FB"/>
<stop offset="1" stop-color="#41B7B2"/>
</linearGradient>
<linearGradient id="paint14_linear_338214_13436" x1="100.518" y1="15.2051" x2="100.098" y2="18.826" gradientUnits="userSpaceOnUse">
<stop stop-color="#5785FB"/>
<stop offset="1" stop-color="#41B7B2"/>
</linearGradient>
<linearGradient id="paint15_linear_338214_13436" x1="15.947" y1="43.0283" x2="14.5467" y2="46.0487" gradientUnits="userSpaceOnUse">
<stop stop-color="#5785FB"/>
<stop offset="1" stop-color="#41B7B2"/>
</linearGradient>
<linearGradient id="paint16_linear_338214_13436" x1="44.6367" y1="43.0273" x2="44.3201" y2="46.6694" gradientUnits="userSpaceOnUse">
<stop stop-color="#5785FB"/>
<stop offset="1" stop-color="#41B7B2"/>
</linearGradient>
<linearGradient id="paint17_linear_338214_13436" x1="55.168" y1="43.0273" x2="54.0296" y2="46.3011" gradientUnits="userSpaceOnUse">
<stop stop-color="#5785FB"/>
<stop offset="1" stop-color="#41B7B2"/>
</linearGradient>
<linearGradient id="paint18_linear_338214_13436" x1="76.0874" y1="43.0273" x2="75.5867" y2="46.6272" gradientUnits="userSpaceOnUse">
<stop stop-color="#5785FB"/>
<stop offset="1" stop-color="#41B7B2"/>
</linearGradient>
<linearGradient id="paint19_linear_338214_13436" x1="58.5367" y1="33.209" x2="58.3669" y2="36.8707" gradientUnits="userSpaceOnUse">
<stop stop-color="#5785FB"/>
<stop offset="1" stop-color="#41B7B2"/>
</linearGradient>
</defs>
</svg>
