<svg width="84" height="105" viewBox="0 0 84 105" fill="none" xmlns="http://www.w3.org/2000/svg">
<path fill-rule="evenodd" clip-rule="evenodd" d="M0.5 14.4977C0.5 13.926 0.963482 13.4625 1.53522 13.4625H75.7257C76.2974 13.4625 76.7609 13.926 76.7609 14.4977V35.5471C76.7609 36.1189 76.2974 36.5823 75.7257 36.5823C75.1539 36.5823 74.6905 36.1189 74.6905 35.5471V23.8147H2.57043V82.822H33.6269C34.1986 82.822 34.6621 83.2855 34.6621 83.8572C34.6621 84.4289 34.1986 84.8924 33.6269 84.8924H1.53522C0.963482 84.8924 0.5 84.4289 0.5 83.8572V14.4977ZM2.57043 21.7443H74.6905V15.533H2.57043V21.7443Z" fill="url(#paint0_linear_1_313)"/>
<path fill-rule="evenodd" clip-rule="evenodd" d="M15.1623 51.2438H79.623V63.375H77.6757V53.1742H58.222V63.375H56.2747V53.1742H38.5106V63.375H36.5633V53.1742H17.1096V62.8167H15.1623V51.2438Z" fill="url(#paint1_linear_1_313)"/>
<path fill-rule="evenodd" clip-rule="evenodd" d="M47.7005 44.1539C52.7495 43.8361 56.7462 39.6404 56.7462 34.5113C56.7462 29.1751 52.4204 24.8492 47.0842 24.8492C41.748 24.8492 37.4222 29.1751 37.4222 34.5113C37.4222 39.6404 41.4189 43.8361 46.4679 44.1539H46.2034V51.232H48.1507V44.1539H47.7005Z" fill="url(#paint2_linear_1_313)"/>
<path fill-rule="evenodd" clip-rule="evenodd" d="M46.7428 34.0744C48.3501 34.0744 49.6531 32.7397 49.6531 31.0932C49.6531 29.4468 48.3501 28.112 46.7428 28.112C45.1355 28.112 43.8326 29.4468 43.8326 31.0932C43.8326 32.7397 45.1355 34.0744 46.7428 34.0744ZM46.7428 35.2669C48.993 35.2669 50.8172 33.3983 50.8172 31.0932C50.8172 28.7882 48.993 26.9196 46.7428 26.9196C44.4926 26.9196 42.6684 28.7882 42.6684 31.0932C42.6684 33.3983 44.4926 35.2669 46.7428 35.2669Z" fill="white"/>
<path d="M42.0864 35.565C41.8277 35.565 41.6 35.7399 41.5276 35.9943L39.4904 39.6984L40.608 40.0323L42.5229 36.7575H43.3525C43.7028 38.2677 44.9196 39.4405 46.4518 39.4405C47.984 39.4405 49.2008 38.2677 49.5511 36.7575H50.7005L52.8894 39.4729L53.9834 39.0653L51.6552 35.9575C51.5716 35.7218 51.353 35.565 51.1082 35.565H48.489V35.8631C48.489 37.2409 47.5207 38.2481 46.4518 38.2481C45.3828 38.2481 44.4146 37.2409 44.4146 35.8631V35.565H42.0864Z" fill="white"/>
<path d="M36.7305 71.5451V83.5076H58.1315V69.7047" stroke="#0EC6BF" stroke-dasharray="6 6"/>
<rect x="11.8848" y="62.1149" width="9.66201" height="9.3469" fill="url(#paint3_linear_1_313)"/>
<rect x="32.8516" y="62.1149" width="9.66201" height="9.3469" fill="url(#paint4_linear_1_313)"/>
<rect x="52.6035" y="62.1149" width="9.66201" height="9.66201" fill="url(#paint5_linear_1_313)"/>
<rect x="73.8359" y="62.1149" width="9.66201" height="9.3469" fill="url(#paint6_linear_1_313)"/>
<ellipse cx="62.534" cy="18.9453" rx="1.09452" ry="1.08041" fill="url(#paint7_linear_1_313)"/>
<ellipse cx="66.4754" cy="18.9453" rx="1.09452" ry="1.08041" fill="url(#paint8_linear_1_313)"/>
<ellipse cx="70.4148" cy="18.9453" rx="1.09452" ry="1.08041" fill="url(#paint9_linear_1_313)"/>
<defs>
<linearGradient id="paint0_linear_1_313" x1="74.0015" y1="13.4625" x2="4.12002" y2="74.3524" gradientUnits="userSpaceOnUse">
<stop stop-color="#5785FB"/>
<stop offset="1" stop-color="#41B7B2"/>
</linearGradient>
<linearGradient id="paint1_linear_1_313" x1="77.2905" y1="51.2438" x2="72.044" y2="73.9959" gradientUnits="userSpaceOnUse">
<stop stop-color="#5785FB"/>
<stop offset="1" stop-color="#41B7B2"/>
</linearGradient>
<linearGradient id="paint2_linear_1_313" x1="57.4364" y1="32.096" x2="46.6966" y2="28.8479" gradientUnits="userSpaceOnUse">
<stop stop-color="#5785FB"/>
<stop offset="1" stop-color="#41B7B2"/>
</linearGradient>
<linearGradient id="paint3_linear_1_313" x1="21.1972" y1="62.1149" x2="12.0978" y2="69.7915" gradientUnits="userSpaceOnUse">
<stop stop-color="#5785FB"/>
<stop offset="1" stop-color="#41B7B2"/>
</linearGradient>
<linearGradient id="paint4_linear_1_313" x1="42.164" y1="62.1149" x2="33.0646" y2="69.7915" gradientUnits="userSpaceOnUse">
<stop stop-color="#5785FB"/>
<stop offset="1" stop-color="#41B7B2"/>
</linearGradient>
<linearGradient id="paint5_linear_1_313" x1="61.9159" y1="62.1149" x2="52.5672" y2="69.7447" gradientUnits="userSpaceOnUse">
<stop stop-color="#5785FB"/>
<stop offset="1" stop-color="#41B7B2"/>
</linearGradient>
<linearGradient id="paint6_linear_1_313" x1="83.1483" y1="62.1149" x2="74.049" y2="69.7915" gradientUnits="userSpaceOnUse">
<stop stop-color="#5785FB"/>
<stop offset="1" stop-color="#41B7B2"/>
</linearGradient>
<linearGradient id="paint7_linear_1_313" x1="62.5779" y1="19.446" x2="62.2663" y2="19.5382" gradientUnits="userSpaceOnUse">
<stop stop-color="#5785FB"/>
<stop offset="1" stop-color="#41B7B2"/>
</linearGradient>
<linearGradient id="paint8_linear_1_313" x1="66.5193" y1="19.446" x2="66.2077" y2="19.5382" gradientUnits="userSpaceOnUse">
<stop stop-color="#5785FB"/>
<stop offset="1" stop-color="#41B7B2"/>
</linearGradient>
<linearGradient id="paint9_linear_1_313" x1="70.4588" y1="19.446" x2="70.1472" y2="19.5382" gradientUnits="userSpaceOnUse">
<stop stop-color="#5785FB"/>
<stop offset="1" stop-color="#41B7B2"/>
</linearGradient>
</defs>
</svg>
