<svg width="95" height="83" viewBox="0 0 95 83" fill="none" xmlns="http://www.w3.org/2000/svg">
<path fill-rule="evenodd" clip-rule="evenodd" d="M47.5194 24.2345C54.6589 24.2345 60.7059 18.9333 62.7636 16.899C63.2085 16.4592 63.2085 15.7753 62.7636 15.3354C60.7059 13.3012 54.6589 8 47.5194 8C40.3798 8 34.3328 13.3012 32.2751 15.3354C31.8302 15.7753 31.8302 16.4592 32.2751 16.899C34.3328 18.9333 40.3798 24.2345 47.5194 24.2345ZM51.735 15.9902C51.735 18.1296 50.0007 19.8639 47.8613 19.8639C45.7219 19.8639 43.9876 18.1296 43.9876 15.9902C43.9876 13.8508 45.7219 12.1165 47.8613 12.1165C48.3735 12.1165 48.8625 12.2159 49.31 12.3965C48.4832 12.5663 47.8613 13.2981 47.8613 14.1752C47.8613 15.178 48.6743 15.991 49.6771 15.991C50.302 15.991 50.8531 15.6753 51.1798 15.1948C51.2744 15.2399 51.3802 15.2651 51.4919 15.2651C51.551 15.2651 51.6084 15.2581 51.6633 15.2448C51.7104 15.486 51.735 15.7352 51.735 15.9902ZM53.6718 15.9902C53.6718 19.1993 51.0704 21.8007 47.8613 21.8007C44.6522 21.8007 42.0508 19.1993 42.0508 15.9902C42.0508 12.7811 44.6522 10.1797 47.8613 10.1797C51.0704 10.1797 53.6718 12.7811 53.6718 15.9902Z" fill="white"/>
<path fill-rule="evenodd" clip-rule="evenodd" d="M69.8235 44.6857C69.8235 47.7154 67.4006 50.1714 64.4118 50.1714C61.4229 50.1714 59 47.7154 59 44.6857C59 41.656 61.4229 39.2 64.4118 39.2C67.4006 39.2 69.8235 41.656 69.8235 44.6857ZM67.1176 44.6857C67.1176 46.2006 65.9062 47.4286 64.4118 47.4286C62.9173 47.4286 61.7059 46.2006 61.7059 44.6857C61.7059 43.1709 62.9173 41.9429 64.4118 41.9429C65.9062 41.9429 67.1176 43.1709 67.1176 44.6857Z" fill="white"/>
<path fill-rule="evenodd" clip-rule="evenodd" d="M81.9893 26.1714C81.9481 25.1944 81.7551 24.4878 80.8839 23.4168C79.8512 22.1472 78.0477 21.1466 75.0866 20.5346C72.1711 19.932 70.2621 19.9225 69.0183 20.101C68.3919 20.191 67.9381 20.3281 67.6143 20.4579C67.4766 20.5131 67.3708 20.5636 67.2981 20.6C66.7786 20.8047 66.4355 21.312 66.4355 21.8782V33.273C60.9988 34.4077 54.3093 35.0857 47.1584 35.0857C40.2167 35.0857 33.8149 34.4468 28.5963 33.3728V22.0135C28.5963 21.4473 28.2531 20.94 27.7337 20.7353C27.661 20.6989 27.5552 20.6484 27.4175 20.5932C27.0936 20.4634 26.6399 20.3262 26.0135 20.2363C24.7697 20.0577 22.8607 20.0672 19.9452 20.6698C16.9134 21.2965 15.0149 22.5219 13.9689 24.0162C13.302 24.9689 13.0274 25.9693 13.002 26.8571H13V57.7143H13.0559C13.3366 59.4198 14.643 60.8136 16.2632 61.9016C18.1434 63.1643 20.7734 64.2475 23.8993 65.1354C30.17 66.9166 38.7526 68 48.1759 68C57.5611 68 65.7945 67.2659 71.723 65.8352C74.6766 65.1224 77.1542 64.2146 78.926 63.0733C80.6847 61.9404 82 60.3993 82 58.4V26.1714H81.9893ZM74.546 23.2221C71.8391 22.6627 70.253 22.694 69.3978 22.8168C69.3038 22.8303 69.2185 22.8449 69.1414 22.86V32.6441C69.5417 32.5407 69.9329 32.4346 70.3148 32.3259C73.3017 31.476 75.6371 30.4891 77.1942 29.4514C78.8064 28.3769 79.2673 27.4726 79.2673 26.8571L79.2941 26.8571C79.2941 26.2629 79.2445 25.7127 78.7962 25.1617C78.3191 24.5752 77.2073 23.7722 74.546 23.2221ZM25.634 22.9521C24.7788 22.8293 23.1927 22.7979 20.4858 23.3574C17.8952 23.8928 16.7057 24.8463 16.1757 25.6034C15.8556 26.0607 15.7345 26.5025 15.7104 26.8571H15.7327C15.7327 27.4999 16.1863 28.4041 17.719 29.4649C19.2093 30.4964 21.4553 31.4803 24.3535 32.3288C24.8493 32.4739 25.3618 32.6145 25.8904 32.7501V22.9953C25.8133 22.9802 25.728 22.9656 25.634 22.9521ZM26.2228 21.1131C26.3563 20.9576 26.5042 20.8529 26.6462 20.7828C26.4879 20.8616 26.3434 20.9726 26.2228 21.1131ZM79.2941 31.32V58.4H79.24C79.24 59.0516 78.8329 59.8646 77.4248 60.7716C76.0297 61.6703 73.8959 62.4882 71.0717 63.1698C69.8691 63.46 68.5587 63.7215 67.1509 63.9533L52.6224 45.2098C52.357 44.8675 51.947 44.6732 51.5177 44.6863C51.0884 44.6995 50.6907 44.9185 50.4462 45.2765L45.6614 52.2823L40.5294 43.9589C40.3035 43.5925 39.9205 43.3554 39.4957 43.3191C39.0709 43.2829 38.6541 43.4516 38.371 43.7746L22.5344 61.8341C20.5525 61.151 18.962 60.4037 17.8085 59.629C16.2204 58.5624 15.76 57.6583 15.76 57.0286H15.7059V31.3874C15.8562 31.5022 16.0104 31.6141 16.1676 31.7229C17.996 32.9884 20.5524 34.0731 23.5883 34.9619C29.6784 36.7448 38.0113 37.8286 47.1584 37.8286C56.3058 37.8286 64.8052 36.7447 71.0602 34.9648C74.1783 34.0775 76.816 32.9958 78.7057 31.7364C78.9068 31.6024 79.1034 31.4636 79.2941 31.32ZM25.3946 62.701C31.2948 64.2761 39.309 65.2571 48.1759 65.2571C54.0837 65.2571 59.4681 64.9616 64.0531 64.3964L51.6274 48.3657L47.2229 54.8147L50.6765 60.416L48.3819 61.8697L39.1927 46.9661L25.3946 62.701Z" fill="white"/>
</svg>
