<svg width="135" height="107" viewBox="0 0 135 107" fill="none" xmlns="http://www.w3.org/2000/svg">
<g filter="url(#filter0_bd_338214_13399)">
<path d="M96 51.2188C96 75.2431 76.0767 94.7188 51.5 94.7188C26.9233 94.7188 7 75.2431 7 51.2188C7 27.1944 26.9233 7.71875 51.5 7.71875C76.0767 7.71875 96 27.1944 96 51.2188Z" fill="#2684FF" fill-opacity="0.1" shape-rendering="crispEdges"/>
</g>
<path fill-rule="evenodd" clip-rule="evenodd" d="M87.8684 40.2026V99.4284H122.684V40.2026H87.8684ZM86.2105 36.9123C85.2949 36.9123 84.5526 37.6489 84.5526 38.5575V101.074C84.5526 101.982 85.2949 102.719 86.2105 102.719H124.342C125.258 102.719 126 101.982 126 101.074V38.5575C126 37.6489 125.258 36.9123 124.342 36.9123H86.2105Z" fill="url(#paint0_linear_338214_13399)"/>
<path fill-rule="evenodd" clip-rule="evenodd" d="M124.342 90.38H86.2105V87.0897H124.342V90.38Z" fill="url(#paint1_linear_338214_13399)"/>
<path d="M107.763 95.3155C107.763 96.6784 106.65 97.7833 105.276 97.7833C103.903 97.7833 102.789 96.6784 102.789 95.3155C102.789 93.9526 103.903 92.8478 105.276 92.8478C106.65 92.8478 107.763 93.9526 107.763 95.3155Z" fill="url(#paint2_linear_338214_13399)"/>
<path fill-rule="evenodd" clip-rule="evenodd" d="M113.693 53.3666C111.678 53.3981 109.229 53.709 107 54.7145C104.744 55.7323 102.788 57.7941 101.144 60.0873C99.9922 61.6933 99.1074 63.2332 98.3717 64.5137L98.1577 64.8858L104.198 70.3801C104.756 70.0457 105.325 69.7612 105.859 69.6097C108.074 68.9816 109.019 67.8552 109.513 66.525C110.071 65.023 110.09 63.1764 110.09 61.0059C110.09 58.8123 111.236 56.5682 112.519 54.8124C112.886 54.311 113.281 53.825 113.693 53.3666ZM92.5119 70.7469L96.0623 67.4433L101.446 72.3408L101.408 72.3715C100.218 73.317 98.8929 74.4596 97.512 75.7086L92.5119 70.7469ZM90.0919 72.9987L86.919 75.9511L84.6509 73.5509L94.7495 64.1543C94.9246 63.8633 95.1333 63.5005 95.3721 63.0856C96.1301 61.7683 97.1908 59.9247 98.4423 58.1796C100.199 55.7295 102.571 53.0979 105.628 51.7191C108.582 50.3869 111.712 50.0737 114.043 50.0736C115.219 50.0736 116.218 50.1534 116.929 50.2339C117.285 50.2743 117.57 50.315 117.77 50.3465C117.871 50.3622 117.95 50.3757 118.006 50.3856L118.073 50.3977L118.094 50.4016L118.101 50.4029L118.103 50.4034C118.103 50.4034 118.105 50.4038 117.786 52.0182L118.105 50.4038C118.782 50.5355 119.306 51.0694 119.421 51.7443C119.536 52.4193 119.217 53.0943 118.622 53.4393C117.665 53.9932 116.316 55.2211 115.204 56.7438C114.072 58.2934 113.406 59.8441 113.406 61.0059L113.406 61.1461C113.407 63.1431 113.407 65.5549 112.625 67.6625C111.76 69.9915 109.988 71.861 106.77 72.7735C106.592 72.8238 106.208 72.9995 105.586 73.3994C104.995 73.7801 104.286 74.2997 103.481 74.9397C101.871 76.2185 99.9569 77.9148 97.9573 79.7876C93.9602 83.5311 89.7047 87.9029 87.0172 90.866L84.5526 88.6649C87.1657 85.7838 91.2011 81.6291 95.0863 77.9548L90.0919 72.9987Z" fill="url(#paint3_linear_338214_13399)"/>
<path fill-rule="evenodd" clip-rule="evenodd" d="M70.3177 18.6684C73.6682 17.1572 77.3436 16.7594 80.2422 16.7593C80.5681 16.7593 80.8828 16.7643 81.1846 16.7732C80.2927 17.6587 79.4252 18.6622 78.6513 19.7214C76.918 22.0935 75.4343 25.0452 75.4343 27.8643C75.4343 30.8168 75.4149 33.4693 74.6039 35.6535C73.8568 37.6659 72.405 39.3509 69.1762 40.2663C68.3509 40.5003 67.4233 41.0044 66.4916 41.6041C66.4755 41.6144 66.4594 41.6248 66.4433 41.6353L66.6072 41.4578L57.6511 33.3111C57.722 33.189 57.7941 33.0642 57.8674 32.9371C57.9657 32.7666 58.0662 32.5917 58.1691 32.4127C59.1851 30.6448 60.4308 28.4773 62.0298 26.2475C64.3084 23.0699 67.0706 20.1331 70.3177 18.6684ZM55.575 35.8862L49.9265 41.3546L57.5283 48.8981C59.5744 47.0349 61.5375 45.3335 63.2822 43.9469C63.4914 43.7807 63.698 43.6184 63.9019 43.4606L55.575 35.8862ZM55.1028 51.1444L47.5529 43.6525L25.4607 65.0404L40.7394 65.6721C44.4266 61.6445 49.8941 56.0437 55.1028 51.1444ZM85.7006 13.9108L85.3816 15.5252C85.7006 13.9108 85.7006 13.9108 85.7006 13.9108L85.6985 13.9104L85.6956 13.9098L85.6875 13.9083L85.6621 13.9035L85.5752 13.8878C85.5016 13.8748 85.3968 13.857 85.2632 13.836C84.9963 13.7941 84.6137 13.7394 84.1347 13.6851C83.1778 13.5766 81.8291 13.4689 80.2421 13.469C77.0894 13.469 72.8898 13.894 68.9456 15.673C64.8979 17.4987 61.7193 21.0054 59.3282 24.3398C57.6295 26.7086 56.2081 29.1794 55.1696 30.9843C54.8096 31.61 54.4957 32.1557 54.2322 32.5894L20.3949 65.3478C19.9213 65.8064 19.7678 66.5005 20.0044 67.1137C20.2411 67.7269 20.8225 68.1418 21.4837 68.1691L41.3784 68.9917C41.8721 69.0121 42.3492 68.813 42.6797 68.4485C46.3803 64.3683 52.2344 58.3544 57.7344 53.2034C60.4854 50.6268 63.1275 48.2854 65.355 46.5151C66.4696 45.6293 67.4606 44.9023 68.296 44.3646C69.1614 43.8075 69.7518 43.5251 70.0871 43.43C74.3188 42.2302 76.5973 39.8023 77.7153 36.791C78.7508 34.0019 78.7504 30.7858 78.7501 28.0136L78.7501 27.8643C78.7501 26.0769 79.7531 23.8187 81.3357 21.6528C82.8985 19.5139 84.8097 17.7609 86.217 16.9463C86.8129 16.6014 87.1312 15.9264 87.0164 15.2514C86.9016 14.5764 86.3775 14.0425 85.7006 13.9108Z" fill="url(#paint4_linear_338214_13399)"/>
<path fill-rule="evenodd" clip-rule="evenodd" d="M85.3816 68.9929H3.31579V65.7026H85.3816V68.9929Z" fill="url(#paint5_linear_338214_13399)"/>
<path fill-rule="evenodd" clip-rule="evenodd" d="M0 5.65423C0 2.92844 2.22679 0.71875 4.97368 0.71875H102.789C105.536 0.71875 107.763 2.92844 107.763 5.65423V37.7349H104.447V5.65423C104.447 4.74564 103.705 4.00907 102.789 4.00907H4.97368C4.05805 4.00907 3.31579 4.74564 3.31579 5.65423V76.3962C3.31579 77.3048 4.05805 78.0413 4.97368 78.0413H86.2105V81.3316H4.97368C2.22679 81.3316 0 79.122 0 76.3962V5.65423Z" fill="url(#paint6_linear_338214_13399)"/>
<path d="M33.1579 17.1704H41.4474V20.4607H33.1579V17.1704Z" fill="url(#paint7_linear_338214_13399)"/>
<path d="M43.1053 17.1704H66.3158V20.4607H43.1053V17.1704Z" fill="url(#paint8_linear_338214_13399)"/>
<path fill-rule="evenodd" clip-rule="evenodd" d="M74.6053 96.1381H33.1579V99.4284H74.6053V96.1381ZM29.8421 92.8478V102.719H77.9211V92.8478H29.8421Z" fill="url(#paint9_linear_338214_13399)"/>
<path fill-rule="evenodd" clip-rule="evenodd" d="M64.6579 81.3316H44.7632V92.8478H64.6579V81.3316ZM41.4474 78.0413V96.1381H67.9737V78.0413H41.4474Z" fill="url(#paint10_linear_338214_13399)"/>
<defs>
<filter id="filter0_bd_338214_13399" x="2" y="2.71875" width="99" height="97" filterUnits="userSpaceOnUse" color-interpolation-filters="sRGB">
<feFlood flood-opacity="0" result="BackgroundImageFix"/>
<feGaussianBlur in="BackgroundImageFix" stdDeviation="2"/>
<feComposite in2="SourceAlpha" operator="in" result="effect1_backgroundBlur_338214_13399"/>
<feColorMatrix in="SourceAlpha" type="matrix" values="0 0 0 0 0 0 0 0 0 0 0 0 0 0 0 0 0 0 127 0" result="hardAlpha"/>
<feOffset/>
<feGaussianBlur stdDeviation="2.5"/>
<feComposite in2="hardAlpha" operator="out"/>
<feColorMatrix type="matrix" values="0 0 0 0 0.0823529 0 0 0 0 0.054902 0 0 0 0 0.447059 0 0 0 0.06 0"/>
<feBlend mode="normal" in2="effect1_backgroundBlur_338214_13399" result="effect2_dropShadow_338214_13399"/>
<feBlend mode="normal" in="SourceGraphic" in2="effect2_dropShadow_338214_13399" result="shape"/>
</filter>
<linearGradient id="paint0_linear_338214_13399" x1="121.441" y1="0.718753" x2="20.7073" y2="102.275" gradientUnits="userSpaceOnUse">
<stop stop-color="#5785FB"/>
<stop offset="1" stop-color="#41B7B2"/>
</linearGradient>
<linearGradient id="paint1_linear_338214_13399" x1="121.441" y1="0.718753" x2="20.7073" y2="102.275" gradientUnits="userSpaceOnUse">
<stop stop-color="#5785FB"/>
<stop offset="1" stop-color="#41B7B2"/>
</linearGradient>
<linearGradient id="paint2_linear_338214_13399" x1="121.441" y1="0.718753" x2="20.7073" y2="102.275" gradientUnits="userSpaceOnUse">
<stop stop-color="#5785FB"/>
<stop offset="1" stop-color="#41B7B2"/>
</linearGradient>
<linearGradient id="paint3_linear_338214_13399" x1="121.441" y1="0.718753" x2="20.7073" y2="102.275" gradientUnits="userSpaceOnUse">
<stop stop-color="#5785FB"/>
<stop offset="1" stop-color="#41B7B2"/>
</linearGradient>
<linearGradient id="paint4_linear_338214_13399" x1="121.441" y1="0.718753" x2="20.7073" y2="102.275" gradientUnits="userSpaceOnUse">
<stop stop-color="#5785FB"/>
<stop offset="1" stop-color="#41B7B2"/>
</linearGradient>
<linearGradient id="paint5_linear_338214_13399" x1="121.441" y1="0.718753" x2="20.7073" y2="102.275" gradientUnits="userSpaceOnUse">
<stop stop-color="#5785FB"/>
<stop offset="1" stop-color="#41B7B2"/>
</linearGradient>
<linearGradient id="paint6_linear_338214_13399" x1="121.441" y1="0.718753" x2="20.7073" y2="102.275" gradientUnits="userSpaceOnUse">
<stop stop-color="#5785FB"/>
<stop offset="1" stop-color="#41B7B2"/>
</linearGradient>
<linearGradient id="paint7_linear_338214_13399" x1="121.441" y1="0.718753" x2="20.7073" y2="102.275" gradientUnits="userSpaceOnUse">
<stop stop-color="#5785FB"/>
<stop offset="1" stop-color="#41B7B2"/>
</linearGradient>
<linearGradient id="paint8_linear_338214_13399" x1="121.441" y1="0.718753" x2="20.7073" y2="102.275" gradientUnits="userSpaceOnUse">
<stop stop-color="#5785FB"/>
<stop offset="1" stop-color="#41B7B2"/>
</linearGradient>
<linearGradient id="paint9_linear_338214_13399" x1="121.441" y1="0.718753" x2="20.7073" y2="102.275" gradientUnits="userSpaceOnUse">
<stop stop-color="#5785FB"/>
<stop offset="1" stop-color="#41B7B2"/>
</linearGradient>
<linearGradient id="paint10_linear_338214_13399" x1="121.441" y1="0.718753" x2="20.7073" y2="102.275" gradientUnits="userSpaceOnUse">
<stop stop-color="#5785FB"/>
<stop offset="1" stop-color="#41B7B2"/>
</linearGradient>
</defs>
</svg>
