<svg width="102" height="106" viewBox="0 0 102 106" fill="none" xmlns="http://www.w3.org/2000/svg">
<path fill-rule="evenodd" clip-rule="evenodd" d="M67.8816 43.9717V82.9856H90.8158V43.9717H67.8816ZM66.7895 41.8043C66.1863 41.8043 65.6974 42.2895 65.6974 42.888V84.0693C65.6974 84.6678 66.1863 85.153 66.7895 85.153H91.9079C92.511 85.153 93 84.6678 93 84.0693V42.888C93 42.2895 92.511 41.8043 91.9079 41.8043H66.7895Z" fill="url(#paint0_linear_1_369)"/>
<path fill-rule="evenodd" clip-rule="evenodd" d="M91.9079 77.0251H66.7895V74.8577H91.9079V77.0251Z" fill="url(#paint1_linear_1_369)"/>
<path d="M80.9868 80.2763C80.9868 81.1741 80.2534 81.9018 79.3487 81.9018C78.444 81.9018 77.7105 81.1741 77.7105 80.2763C77.7105 79.3785 78.444 78.6507 79.3487 78.6507C80.2534 78.6507 80.9868 79.3785 80.9868 80.2763Z" fill="url(#paint2_linear_1_369)"/>
<path fill-rule="evenodd" clip-rule="evenodd" d="M84.8928 52.6433C83.5656 52.664 81.9526 52.8688 80.4842 53.5311C78.9978 54.2016 77.7098 55.5597 76.6265 57.0704C75.8679 58.1283 75.285 59.1427 74.8004 59.9862L74.6594 60.2313L78.6383 63.8505C79.0059 63.6303 79.3804 63.4429 79.7323 63.3431C81.1918 62.9293 81.8144 62.1873 82.1397 61.3111C82.5071 60.3217 82.5198 59.1053 82.5198 57.6755C82.5198 56.2305 83.2748 54.7522 84.1199 53.5956C84.3612 53.2653 84.6217 52.9452 84.8928 52.6433ZM70.9404 64.0922L73.2791 61.916L76.8258 65.1422L76.8003 65.1624C76.0167 65.7852 75.1437 66.5378 74.2341 67.3606L70.9404 64.0922ZM69.3462 65.5755L67.2561 67.5203L65.7621 65.9393L72.4143 59.7494C72.5297 59.5577 72.6672 59.3188 72.8245 59.0454C73.3238 58.1777 74.0225 56.9633 74.8469 55.8137C76.0042 54.1998 77.5666 52.4663 79.5804 51.558C81.526 50.6804 83.5879 50.4741 85.1233 50.474C85.8981 50.474 86.5566 50.5266 87.0247 50.5797C87.2592 50.6062 87.447 50.6331 87.5789 50.6538C87.6449 50.6642 87.6971 50.673 87.7342 50.6796L87.7785 50.6876L87.7919 50.6901L87.7964 50.691L87.7981 50.6913C87.7981 50.6913 87.7995 50.6915 87.5894 51.755L87.7995 50.6916C88.2454 50.7783 88.5906 51.13 88.6662 51.5746C88.7419 52.0193 88.5321 52.4639 88.1396 52.6911C87.5093 53.056 86.6211 53.8649 85.8882 54.8679C85.1423 55.8887 84.7041 56.9102 84.7041 57.6755L84.7041 57.7678C84.7044 59.0833 84.7047 60.6721 84.1893 62.0604C83.6197 63.5946 82.4525 64.826 80.3323 65.4271C80.2153 65.4603 79.9622 65.576 79.5529 65.8395C79.1633 66.0902 78.6962 66.4325 78.1657 66.8541C77.1058 67.6965 75.8446 68.8139 74.5274 70.0476C71.8944 72.5135 69.0912 75.3934 67.3209 77.3452L65.6974 75.8953C67.4186 73.9975 70.0769 71.2606 72.6362 68.8402L69.3462 65.5755Z" fill="url(#paint3_linear_1_369)"/>
<path fill-rule="evenodd" clip-rule="evenodd" d="M56.3204 29.7865C58.5275 28.791 60.9485 28.529 62.858 28.5289C63.0726 28.5289 63.2799 28.5322 63.4788 28.5381C62.8912 29.1214 62.3197 29.7824 61.81 30.4801C60.6682 32.0427 59.6908 33.9871 59.6908 35.8441C59.6908 37.789 59.678 39.5363 59.1438 40.9751C58.6517 42.3007 57.6954 43.4107 55.5684 44.0137C55.0248 44.1678 54.4138 44.4999 53.8 44.8949C53.7894 44.9017 53.7788 44.9086 53.7682 44.9155L53.8762 44.7986L47.9765 39.4321C48.0232 39.3516 48.0707 39.2695 48.119 39.1857C48.1838 39.0734 48.25 38.9582 48.3178 38.8403C48.987 37.6757 49.8076 36.2479 50.8609 34.7791C52.3619 32.6859 54.1814 30.7513 56.3204 29.7865ZM46.609 41.1284L42.8881 44.7306L47.8956 49.6997C49.2435 48.4724 50.5366 47.3516 51.6859 46.4382C51.8237 46.3287 51.9598 46.2218 52.0941 46.1178L46.609 41.1284ZM46.2979 51.1794L41.3246 46.2443L26.7717 60.3331L36.8363 60.7493C39.2651 58.0961 42.8668 54.4067 46.2979 51.1794ZM66.4535 26.6525L66.2435 27.716C66.4535 26.6525 66.4535 26.6525 66.4535 26.6525L66.4522 26.6523L66.4503 26.6519L66.4449 26.6509L66.4282 26.6477L66.371 26.6374C66.3225 26.6288 66.2534 26.6171 66.1655 26.6033C65.9896 26.5757 65.7376 26.5396 65.4221 26.5039C64.7917 26.4324 63.9033 26.3614 62.8579 26.3615C60.7811 26.3615 58.0147 26.6415 55.4165 27.8134C52.7502 29.016 50.6564 31.3259 49.0813 33.5224C47.9623 35.0828 47.0259 36.7104 46.3419 37.8994C46.1048 38.3115 45.898 38.671 45.7244 38.9567L23.4348 60.5356C23.1228 60.8377 23.0216 61.2949 23.1775 61.6989C23.3334 62.1028 23.7164 62.3761 24.1519 62.3941L37.2572 62.936C37.5824 62.9494 37.8967 62.8182 38.1144 62.5782C40.5521 59.8904 44.4084 55.9289 48.0314 52.5357C49.8436 50.8385 51.584 49.2961 53.0513 48.1299C53.7855 47.5464 54.4383 47.0676 54.9886 46.7133C55.5587 46.3464 55.9476 46.1603 56.1685 46.0977C58.956 45.3074 60.4569 43.708 61.1934 41.7244C61.8755 39.8871 61.8753 37.7686 61.875 35.9425L61.875 35.8441C61.875 34.6667 62.5358 33.1792 63.5783 31.7524C64.6078 30.3434 65.8667 29.1887 66.7937 28.6521C67.1862 28.4249 67.396 27.9802 67.3203 27.5356C67.2447 27.091 66.8995 26.7393 66.4535 26.6525Z" fill="url(#paint4_linear_1_369)"/>
<path fill-rule="evenodd" clip-rule="evenodd" d="M66.2434 62.9368H12.1842V60.7694H66.2434V62.9368Z" fill="url(#paint5_linear_1_369)"/>
<path fill-rule="evenodd" clip-rule="evenodd" d="M10 21.2137C10 19.4181 11.4669 17.9625 13.2763 17.9625H77.7105C79.52 17.9625 80.9868 19.4181 80.9868 21.2137V42.3462H78.8026V21.2137C78.8026 20.6152 78.3137 20.13 77.7105 20.13H13.2763C12.6732 20.13 12.1842 20.6152 12.1842 21.2137V67.8135C12.1842 68.412 12.6732 68.8972 13.2763 68.8972H66.7895V71.0647H13.2763C11.4669 71.0647 10 69.6091 10 67.8135V21.2137Z" fill="url(#paint6_linear_1_369)"/>
<path d="M31.8421 28.7997H37.3026V30.9671H31.8421V28.7997Z" fill="url(#paint7_linear_1_369)"/>
<path d="M38.3947 28.7997H53.6842V30.9671H38.3947V28.7997Z" fill="url(#paint8_linear_1_369)"/>
<path fill-rule="evenodd" clip-rule="evenodd" d="M59.1447 80.8181H31.8421V82.9856H59.1447V80.8181ZM29.6579 78.6507V85.153H61.3289V78.6507H29.6579Z" fill="url(#paint9_linear_1_369)"/>
<path fill-rule="evenodd" clip-rule="evenodd" d="M52.5921 71.0647H39.4868V78.6507H52.5921V71.0647ZM37.3026 68.8972V80.8181H54.7763V68.8972H37.3026Z" fill="url(#paint10_linear_1_369)"/>
<defs>
<linearGradient id="paint0_linear_1_369" x1="89.9967" y1="17.9625" x2="23.6405" y2="84.8606" gradientUnits="userSpaceOnUse">
<stop stop-color="#5785FB"/>
<stop offset="1" stop-color="#41B7B2"/>
</linearGradient>
<linearGradient id="paint1_linear_1_369" x1="89.9967" y1="17.9625" x2="23.6405" y2="84.8606" gradientUnits="userSpaceOnUse">
<stop stop-color="#5785FB"/>
<stop offset="1" stop-color="#41B7B2"/>
</linearGradient>
<linearGradient id="paint2_linear_1_369" x1="89.9967" y1="17.9625" x2="23.6405" y2="84.8606" gradientUnits="userSpaceOnUse">
<stop stop-color="#5785FB"/>
<stop offset="1" stop-color="#41B7B2"/>
</linearGradient>
<linearGradient id="paint3_linear_1_369" x1="89.9967" y1="17.9625" x2="23.6405" y2="84.8606" gradientUnits="userSpaceOnUse">
<stop stop-color="#5785FB"/>
<stop offset="1" stop-color="#41B7B2"/>
</linearGradient>
<linearGradient id="paint4_linear_1_369" x1="89.9967" y1="17.9625" x2="23.6405" y2="84.8606" gradientUnits="userSpaceOnUse">
<stop stop-color="#5785FB"/>
<stop offset="1" stop-color="#41B7B2"/>
</linearGradient>
<linearGradient id="paint5_linear_1_369" x1="89.9967" y1="17.9625" x2="23.6405" y2="84.8606" gradientUnits="userSpaceOnUse">
<stop stop-color="#5785FB"/>
<stop offset="1" stop-color="#41B7B2"/>
</linearGradient>
<linearGradient id="paint6_linear_1_369" x1="89.9967" y1="17.9625" x2="23.6405" y2="84.8606" gradientUnits="userSpaceOnUse">
<stop stop-color="#5785FB"/>
<stop offset="1" stop-color="#41B7B2"/>
</linearGradient>
<linearGradient id="paint7_linear_1_369" x1="89.9967" y1="17.9625" x2="23.6405" y2="84.8606" gradientUnits="userSpaceOnUse">
<stop stop-color="#5785FB"/>
<stop offset="1" stop-color="#41B7B2"/>
</linearGradient>
<linearGradient id="paint8_linear_1_369" x1="89.9967" y1="17.9625" x2="23.6405" y2="84.8606" gradientUnits="userSpaceOnUse">
<stop stop-color="#5785FB"/>
<stop offset="1" stop-color="#41B7B2"/>
</linearGradient>
<linearGradient id="paint9_linear_1_369" x1="89.9967" y1="17.9625" x2="23.6405" y2="84.8606" gradientUnits="userSpaceOnUse">
<stop stop-color="#5785FB"/>
<stop offset="1" stop-color="#41B7B2"/>
</linearGradient>
<linearGradient id="paint10_linear_1_369" x1="89.9967" y1="17.9625" x2="23.6405" y2="84.8606" gradientUnits="userSpaceOnUse">
<stop stop-color="#5785FB"/>
<stop offset="1" stop-color="#41B7B2"/>
</linearGradient>
</defs>
</svg>
