<svg width="21" height="21" viewBox="0 0 21 21" fill="none" xmlns="http://www.w3.org/2000/svg">
<path fill-rule="evenodd" clip-rule="evenodd" d="M10.5599 20.4581H10.5557C8.86388 20.4575 7.20149 20.033 5.725 19.2277L0.366211 20.6334L1.80031 15.3952C0.915689 13.8621 0.450204 12.1231 0.450963 10.3415C0.45318 4.76793 4.98796 0.233398 10.5598 0.233398C13.264 0.234566 15.8021 1.2873 17.7106 3.19806C19.6191 5.10873 20.6696 7.64847 20.6686 10.3495C20.6663 15.9218 16.1333 20.4558 10.5599 20.4581ZM5.97325 17.3976L6.28005 17.5797C7.57006 18.3452 9.04878 18.7502 10.5564 18.7508H10.5599C15.1908 18.7508 18.9599 14.9816 18.9617 10.3488C18.9626 8.10378 18.0895 5.99285 16.5032 4.4047C14.9169 2.81655 12.8073 1.94151 10.5632 1.94073C5.92867 1.94073 2.15952 5.70954 2.15768 10.342C2.15703 11.9296 2.60123 13.4757 3.44228 14.8134L3.64205 15.1313L2.79327 18.2318L5.97325 17.3976ZM15.3066 12.5259C15.4828 12.611 15.6018 12.6685 15.6526 12.7533C15.7157 12.8586 15.7157 13.3643 15.5053 13.9544C15.2947 14.5444 14.2857 15.0829 13.8003 15.1554C13.3652 15.2205 12.8145 15.2476 12.2095 15.0553C11.8426 14.9389 11.3722 14.7835 10.7695 14.5232C8.40162 13.5008 6.8014 11.2058 6.49896 10.772C6.47777 10.7416 6.46296 10.7204 6.45469 10.7093L6.45265 10.7066C6.31899 10.5283 5.42333 9.33326 5.42333 8.09646C5.42333 6.933 5.99484 6.32317 6.25791 6.04247C6.27593 6.02324 6.29251 6.00555 6.30735 5.98934C6.53887 5.73646 6.81253 5.67324 6.9809 5.67324C7.14927 5.67324 7.31784 5.6748 7.465 5.68219C7.48316 5.6831 7.50205 5.68299 7.52158 5.68288C7.66877 5.68201 7.85227 5.68094 8.0333 6.11577C8.10294 6.28312 8.20485 6.5312 8.31232 6.79286C8.52967 7.322 8.76981 7.90663 8.81206 7.99123C8.87522 8.11767 8.9173 8.26511 8.83311 8.43376C8.82048 8.45905 8.80879 8.48291 8.79762 8.50571C8.73438 8.63481 8.68787 8.72978 8.58054 8.85509C8.53834 8.90436 8.49472 8.95748 8.4511 9.0106C8.36421 9.11643 8.27732 9.22224 8.20166 9.29762C8.07521 9.42357 7.94358 9.56022 8.09092 9.8131C8.23826 10.066 8.74517 10.8931 9.49605 11.5628C10.3032 12.2828 11.0047 12.5871 11.3603 12.7413C11.4298 12.7715 11.486 12.7959 11.5273 12.8165C11.7798 12.943 11.9271 12.9218 12.0745 12.7533C12.2218 12.5847 12.7059 12.0157 12.8742 11.7629C13.0426 11.5101 13.211 11.5522 13.4425 11.6365C13.6741 11.7209 14.9159 12.3318 15.1685 12.4583C15.2178 12.4829 15.2639 12.5052 15.3066 12.5259Z" fill="white"/>
</svg>
