<svg width="108" height="73" viewBox="0 0 108 73" fill="none" xmlns="http://www.w3.org/2000/svg">
<path fill-rule="evenodd" clip-rule="evenodd" d="M6.78759 62.6841C2.20045 56.1815 0 47.333 0 36.3594C0 25.3835 2.20134 16.5829 6.78759 10.0815L6.78933 10.079C11.5017 3.42032 18.3641 0 26.9844 0C35.6046 0 42.4671 3.42032 47.1794 10.079L47.1812 10.0815C51.7639 16.5779 54.0156 25.3749 54.0156 36.3594C54.0156 47.3306 51.8161 56.1833 47.1774 62.6895C42.46 69.3535 35.594 72.7188 26.9844 72.7188C18.3668 72.7188 11.5547 69.3479 6.79525 62.6949L6.78759 62.6841ZM45.5469 61.5312C49.8594 55.4844 52.0156 47.0938 52.0156 36.3594C52.0156 25.625 49.8125 17.2812 45.5469 11.2344C41.2344 5.14062 35 2 26.9844 2C18.9688 2 12.7344 5.14062 8.42188 11.2344C4.15625 17.2812 2 25.625 2 36.3594C2 47.0938 4.15625 55.4844 8.42188 61.5312C12.7812 67.625 18.9688 70.7188 26.9844 70.7188C35 70.7188 41.2344 67.625 45.5469 61.5312ZM60.5869 71.9688V63.4261L84.5356 32.4646C87.6088 28.4875 88.9931 25.1686 88.9931 22.3438C88.9931 20.2795 88.458 18.9139 87.6955 18.0807C86.958 17.2749 85.7666 16.7031 83.8681 16.7031C82.3385 16.7031 81.143 17.2549 80.2148 18.3027C79.2422 19.4007 78.4577 21.1715 78.1162 23.7331L77.8368 25.8287L61.4569 22.7117L61.5758 20.944C61.9818 14.9037 64.4768 9.48447 68.594 5.7295C72.7127 1.92623 78.1379 0 84.1494 0C90.8824 0 96.4087 1.95889 100.521 6.12159C104.605 10.2081 106.587 15.5252 106.587 21.9219C106.587 28.0408 104.485 33.8041 100.361 39.1709C100.361 39.1712 100.36 39.1715 100.36 39.1718L87.9713 55.3125H107.946V71.9688H60.5869ZM83.915 57.3125L98.7744 37.9531C102.665 32.8906 104.587 27.5469 104.587 21.9219C104.587 15.9688 102.759 11.1875 99.1025 7.53125C95.4463 3.82812 90.4775 2 84.1494 2C78.5713 2 73.6494 3.78125 69.9463 7.20312C66.2431 10.5781 63.9463 15.5 63.5713 21.0781L76.1338 23.4688C76.2262 22.7754 76.35 22.1199 76.5038 21.5033C77.5977 17.1173 80.2105 14.7031 83.8681 14.7031C88.5088 14.7031 90.9931 17.5625 90.9931 22.3438C90.9931 25.8125 89.3056 29.5625 86.1181 33.6875L62.5869 64.1094V69.9688H105.946V57.3125H83.915ZM31.0077 17.7558C29.9125 17.0749 28.5951 16.7031 26.9844 16.7031C25.3737 16.7031 24.0604 17.0748 22.9707 17.7544C21.875 18.4378 20.8916 19.5039 20.0597 21.0641C18.3637 24.2448 17.4062 29.2751 17.4062 36.4062C17.4062 43.5132 18.3635 48.5315 20.0591 51.7062C20.8908 53.2635 21.8741 54.3286 22.9701 55.0116C24.06 55.6908 25.3737 56.0625 26.9844 56.0625C28.5951 56.0625 29.9128 55.6908 31.0083 55.0102C32.1098 54.3258 33.0986 53.2592 33.9355 51.7018C35.6411 48.5276 36.6094 43.5103 36.6094 36.4062C36.6094 29.278 35.6409 24.2487 33.9349 21.0685C33.0978 19.5082 32.1089 18.4405 31.0077 17.7558ZM38.6094 36.4062C38.6094 21.9219 34.7188 14.7031 26.9844 14.7031C19.25 14.7031 15.4062 21.9219 15.4062 36.4062C15.4062 50.8438 19.25 58.0625 26.9844 58.0625C34.7188 58.0625 38.6094 50.8438 38.6094 36.4062Z" fill="url(#paint0_linear_337538_21498)"/>
<defs>
<linearGradient id="paint0_linear_337538_21498" x1="104.04" y1="2.17206e-06" x2="33.5239" y2="85.4305" gradientUnits="userSpaceOnUse">
<stop stop-color="#857DE4"/>
<stop offset="1" stop-color="#9BFFFB"/>
</linearGradient>
</defs>
</svg>
