<svg width="110" height="73" viewBox="0 0 110 73" fill="none" xmlns="http://www.w3.org/2000/svg">
<path fill-rule="evenodd" clip-rule="evenodd" d="M6.78759 62.6841C2.20045 56.1815 0 47.333 0 36.3594C0 25.3835 2.20134 16.5829 6.78759 10.0815L6.78933 10.079C11.5017 3.42032 18.3641 0 26.9844 0C35.6046 0 42.4671 3.42032 47.1794 10.079L47.1812 10.0815C51.7639 16.5779 54.0156 25.3749 54.0156 36.3594C54.0156 47.3306 51.8161 56.1833 47.1774 62.6895C42.46 69.3535 35.594 72.7188 26.9844 72.7188C18.3668 72.7188 11.5547 69.3479 6.79525 62.6949L6.78759 62.6841ZM45.5469 61.5312C49.8594 55.4844 52.0156 47.0938 52.0156 36.3594C52.0156 25.625 49.8125 17.2812 45.5469 11.2344C41.2344 5.14062 35 2 26.9844 2C18.9688 2 12.7344 5.14062 8.42188 11.2344C4.15625 17.2812 2 25.625 2 36.3594C2 47.0938 4.15625 55.4844 8.42188 61.5312C12.7812 67.625 18.9688 70.7188 26.9844 70.7188C35 70.7188 41.2344 67.625 45.5469 61.5312ZM59.6132 48.4614L76.2341 46.2333L76.6678 47.9681C77.412 50.9451 78.4972 52.9599 79.7859 54.2165C81.0262 55.4259 82.5846 56.0625 84.6181 56.0625C86.9 56.0625 88.6221 55.3507 89.9917 53.9855C91.3162 52.6209 92.04 50.7369 92.04 48.0312C92.04 45.0236 91.1979 42.8989 89.9703 41.5485C88.7594 40.2165 86.9941 39.4375 84.7119 39.4375C83.2395 39.4375 81.5463 39.88 79.6531 40.8897L78.1036 41.7161L70.7639 31.428L80.9317 17.4062H62.9306V0.75H106.212V8.80255L93.6361 25.7204C98.0648 26.3623 101.786 28.4133 104.645 31.9647L104.649 31.9694C107.989 36.145 109.634 41.4428 109.634 47.8438C109.634 55.1896 107.315 61.275 102.501 65.8824C97.784 70.3943 91.743 72.7188 84.6181 72.7188C78.0167 72.7188 72.3234 70.8051 67.6894 66.7375C63.0788 62.6962 60.45 57.0877 59.7993 50.3806L59.6132 48.4614ZM69.0088 65.2344C73.2275 68.9375 78.4306 70.7188 84.6181 70.7188C91.2744 70.7188 96.8056 68.5625 101.118 64.4375C105.478 60.2656 107.634 54.7344 107.634 47.8438C107.634 41.7969 106.087 36.9688 103.087 33.2188C100.348 29.816 96.7277 27.9562 92.2581 27.5742C91.6788 27.5247 91.0853 27.5 90.4775 27.5H89.8213L104.212 8.14062V2.75H64.9306V15.4062H84.8525L73.2275 31.4375L78.7119 39.125C80.8213 38 82.8369 37.4375 84.7119 37.4375C90.2431 37.4375 94.04 41.2812 94.04 48.0312C94.04 51.125 93.1963 53.5625 91.415 55.3906C89.6338 57.1719 87.3838 58.0625 84.6181 58.0625C79.6025 58.0625 76.3213 54.8281 74.7275 48.4531L61.79 50.1875C62.3994 56.4688 64.8369 61.5781 69.0088 65.2344ZM31.0077 17.7558C29.9125 17.0749 28.5951 16.7031 26.9844 16.7031C25.3737 16.7031 24.0604 17.0748 22.9707 17.7544C21.875 18.4378 20.8916 19.5039 20.0597 21.0641C18.3637 24.2448 17.4062 29.2751 17.4062 36.4062C17.4062 43.5132 18.3635 48.5315 20.0591 51.7062C20.8908 53.2635 21.8741 54.3286 22.9701 55.0116C24.06 55.6908 25.3737 56.0625 26.9844 56.0625C28.5951 56.0625 29.9128 55.6908 31.0083 55.0102C32.1098 54.3258 33.0986 53.2592 33.9355 51.7018C35.6411 48.5276 36.6094 43.5103 36.6094 36.4062C36.6094 29.278 35.6409 24.2487 33.9349 21.0685C33.0978 19.5082 32.1089 18.4405 31.0077 17.7558ZM38.6094 36.4062C38.6094 21.9219 34.7188 14.7031 26.9844 14.7031C19.25 14.7031 15.4062 21.9219 15.4062 36.4062C15.4062 50.8438 19.25 58.0625 26.9844 58.0625C34.7188 58.0625 38.6094 50.8438 38.6094 36.4062Z" fill="url(#paint0_linear_337538_21499)"/>
<defs>
<linearGradient id="paint0_linear_337538_21499" x1="105.667" y1="2.17206e-06" x2="35.3655" y2="86.5012" gradientUnits="userSpaceOnUse">
<stop stop-color="#857DE4"/>
<stop offset="1" stop-color="#9BFFFB"/>
</linearGradient>
</defs>
</svg>
