<svg width="112" height="73" viewBox="0 0 112 73" fill="none" xmlns="http://www.w3.org/2000/svg">
<path fill-rule="evenodd" clip-rule="evenodd" d="M6.78759 62.6841C2.20045 56.1815 0 47.333 0 36.3594C0 25.3835 2.20134 16.5829 6.78759 10.0815L6.78933 10.079C11.5017 3.42032 18.3641 0 26.9844 0C35.6046 0 42.4671 3.42032 47.1794 10.079L47.1812 10.0815C51.7639 16.5779 54.0156 25.3749 54.0156 36.3594C54.0156 47.3306 51.8161 56.1833 47.1774 62.6895C42.46 69.3535 35.594 72.7188 26.9844 72.7188C18.3668 72.7188 11.5547 69.3479 6.79525 62.6949L6.78759 62.6841ZM45.5469 61.5312C49.8594 55.4844 52.0156 47.0938 52.0156 36.3594C52.0156 25.625 49.8125 17.2812 45.5469 11.2344C41.2344 5.14062 35 2 26.9844 2C18.9688 2 12.7344 5.14062 8.42188 11.2344C4.15625 17.2812 2 25.625 2 36.3594C2 47.0938 4.15625 55.4844 8.42188 61.5312C12.7812 67.625 18.9688 70.7188 26.9844 70.7188C35 70.7188 41.2344 67.625 45.5469 61.5312ZM58.8525 59.8281V50.163L87.6405 0.75H104.524V43.1719H111.837V59.8281H104.524V71.9688H86.9306V59.8281H58.8525ZM88.79 2.75H102.524V45.1719H109.837V57.8281H102.524V69.9688H88.9306V57.8281H60.8525V50.7031L88.79 2.75ZM31.0077 17.7558C29.9125 17.0749 28.5951 16.7031 26.9844 16.7031C25.3737 16.7031 24.0604 17.0748 22.9707 17.7544C21.875 18.4378 20.8916 19.5039 20.0597 21.0641C18.3637 24.2448 17.4062 29.2751 17.4062 36.4062C17.4062 43.5132 18.3635 48.5315 20.0591 51.7062C20.8908 53.2635 21.8741 54.3286 22.9701 55.0116C24.06 55.6908 25.3737 56.0625 26.9844 56.0625C28.5951 56.0625 29.9128 55.6908 31.0083 55.0102C32.1098 54.3258 33.0986 53.2592 33.9355 51.7018C35.6411 48.5276 36.6094 43.5103 36.6094 36.4062C36.6094 29.278 35.6409 24.2487 33.9349 21.0685C33.0978 19.5082 32.1089 18.4405 31.0077 17.7558ZM77.5869 45.1719H88.9306V24.5938C88.2504 25.8313 87.5859 27.0417 86.9306 28.2356C86.6915 28.6712 86.4537 29.1047 86.2167 29.5364C83.7323 34.0638 81.3485 38.4078 78.7004 43.1719C78.3346 43.83 77.9637 44.4961 77.5869 45.1719ZM80.9882 43.1719H86.9306V32.3926C84.9801 35.946 83.0591 39.4403 80.9882 43.1719ZM38.6094 36.4062C38.6094 21.9219 34.7188 14.7031 26.9844 14.7031C19.25 14.7031 15.4062 21.9219 15.4062 36.4062C15.4062 50.8438 19.25 58.0625 26.9844 58.0625C34.7188 58.0625 38.6094 50.8438 38.6094 36.4062Z" fill="url(#paint0_linear_337538_21500)"/>
<defs>
<linearGradient id="paint0_linear_337538_21500" x1="107.79" y1="2.17206e-06" x2="37.7875" y2="87.8647" gradientUnits="userSpaceOnUse">
<stop stop-color="#857DE4"/>
<stop offset="1" stop-color="#9BFFFB"/>
</linearGradient>
</defs>
</svg>
