<svg width="295" height="37" viewBox="0 0 295 37" fill="none" xmlns="http://www.w3.org/2000/svg">
<path fill-rule="evenodd" clip-rule="evenodd" d="M110.236 35.8824C117.761 35.8824 120.694 32.3859 120.694 27.7966C120.694 23.7319 118.314 21.1095 111.682 19.842C106.623 18.8805 105.347 17.8315 105.347 15.9084C105.347 14.4224 106.155 12.8489 109.684 12.8489C113 12.8489 114.147 14.4224 114.147 16.3455L114.955 17.0885H118.909L119.632 16.3455C119.547 12.1059 116.741 8.60938 109.811 8.60938C103.179 8.60938 100.076 11.8874 100.076 16.0395C100.076 20.1043 102.839 23.0326 109.088 24.1253C113.637 24.9557 115.38 25.9173 115.38 28.2774C115.38 29.8509 114.062 31.5991 110.406 31.5991C106.665 31.5991 105.05 29.8946 105.05 27.447L104.327 26.704H100.416L99.693 27.447C99.7355 31.9488 102.414 35.8824 110.236 35.8824ZM58.7954 21.7651C61.4737 21.0221 62.9191 18.9242 62.9191 15.9084C62.9191 11.6688 60.0282 9.00273 55.3943 9.00273H43.7032L42.9805 9.74575V34.746L43.7032 35.489H56.117C60.8785 35.489 63.6418 32.7355 63.6418 28.1463C63.6418 24.6498 62.0689 22.5081 58.7954 21.7651ZM48.2096 13.3734H54.6291C56.8823 13.3734 57.605 14.5535 57.605 16.4766C57.605 17.9626 56.8823 19.7546 54.6291 19.7546H48.2096V13.3734ZM48.2096 31.1184H54.6291C57.2224 31.1184 58.2852 29.9383 58.3277 27.6218C58.3277 25.3928 57.2224 24.1253 54.6291 24.1253H48.2096V31.1184ZM72.6546 35.489H68.9985L68.2758 34.746V9.74575L68.9985 9.00273H74.1851L75.1204 9.65834L81.8375 28.6708L88.5545 9.65834L89.4898 9.00273H94.5489L95.2716 9.74575V34.746L94.5489 35.489H90.8502L90.1275 34.746V18.356L84.3882 34.8334L83.4955 35.489H80.0944L79.2442 34.8334L73.3773 18.356V34.746L72.6546 35.489Z" fill="white"/>
<path fill-rule="evenodd" clip-rule="evenodd" d="M17.3047 26.6621H33.6722L34.48 25.8754V1.00621L33.6722 0.175781H18.0699L17.3047 1.00621V9.00455H25.0846L25.8923 9.83498V17.0466L25.0846 17.8333H17.3047V26.6621Z" fill="white"/>
<path fill-rule="evenodd" clip-rule="evenodd" d="M0.979624 35.4902H25.0846L25.8923 34.7035V26.6614H9.56728L8.75953 25.8747V18.6631L9.56728 17.8327H17.3047V9.00391H0.979624L0.171875 9.83433V34.7035L0.979624 35.4902Z" fill="white"/>
<path fill-rule="evenodd" clip-rule="evenodd" d="M136.518 35.7939C139.643 35.7939 142.023 35.4959 143.372 34.9372C146.036 33.8197 146.995 31.2868 146.995 28.1579C146.995 24.5074 145.361 22.7195 142.484 22.0118C145.077 21.1178 146.213 19.2926 146.213 16.0147C146.213 12.178 144.366 10.1666 140.389 9.71959C139.466 9.60784 137.761 9.49609 136.66 9.49609H130.623C129.877 9.49609 129.699 9.94308 129.699 10.5391V34.7509C129.699 35.3469 129.841 35.7939 130.694 35.7939H136.518ZM137.842 20.2967L133.784 20.2979V13.2578H136.696C137.939 13.2578 139.147 13.3323 139.857 13.5558C141.065 13.9655 142.13 14.4125 142.13 16.7592C142.13 18.4727 141.349 19.5529 140.248 20.0371C139.745 20.2544 138.97 20.2906 137.842 20.2967ZM136.803 31.9593H133.784V24.0625H137.265C138.792 24.0625 139.893 24.0997 140.745 24.4722C141.988 24.9937 142.84 25.9622 142.84 27.7874C142.84 30.0596 142.024 30.9908 140.781 31.5123C140.07 31.8103 138.685 31.9593 136.803 31.9593ZM156.689 36.1669C158.642 36.1669 160.417 35.6827 161.696 34.3417L161.767 35.1239C161.838 35.6827 162.122 35.8689 162.832 35.8689H164.466C165.141 35.8689 165.46 35.5709 165.46 34.677V22.72C165.46 20.5223 165.283 19.0696 164.324 18.0639C163.401 17.0954 161.767 16.6484 158.606 16.6484C156.902 16.6484 154.558 16.7974 152.64 17.3934C152.214 17.5052 151.965 17.7659 151.965 18.3246C151.965 18.7344 152.072 19.8519 152.214 20.3361C152.285 20.7086 152.533 20.9693 152.889 20.9693C153.173 20.9693 153.741 20.8576 154.167 20.7831C155.339 20.5223 156.724 20.4106 158.038 20.4106C160.382 20.4106 161.092 20.9693 161.376 21.7143C161.554 22.1985 161.589 22.9063 161.589 23.5023V24.6197C160.666 24.4707 159.352 24.4335 158.251 24.4335C155.907 24.4335 153.847 24.806 152.675 25.5882C151.255 26.5194 150.545 27.9349 150.545 30.1326C150.545 33.2987 151.788 36.1669 156.689 36.1669ZM157.683 32.8131C155.02 32.8131 154.309 31.7329 154.309 30.0567C154.309 29.0882 154.664 28.5667 155.126 28.2314C155.801 27.7472 157.008 27.4492 158.748 27.4492C159.672 27.4492 160.844 27.5237 161.59 27.5982V30.4291C161.59 30.8016 161.59 31.1741 161.448 31.4349C161.341 31.6584 161.092 31.9191 160.879 32.0308C160.205 32.4778 159.175 32.8131 157.683 32.8131ZM176.399 36.2025C178.601 36.2025 181.087 35.681 182.259 34.489L182.295 35.0478C182.366 35.6065 182.543 35.8673 183.218 35.8673H185.242C185.882 35.8673 186.166 35.4575 186.166 34.787V18.0622C186.166 17.429 185.882 17.0938 185.349 17.0938H183.076C182.508 17.0938 182.224 17.5035 182.224 18.0622V30.3544C182.224 30.9876 182.188 31.2111 182.046 31.3974C181.869 31.6581 181.513 31.8071 181.3 31.8816C180.661 32.1796 179.454 32.4776 177.749 32.4776C175.973 32.4776 175.227 32.0679 174.943 31.1739C174.801 30.7269 174.73 29.8329 174.73 29.1252V18.0622C174.73 17.4662 174.482 17.0938 173.913 17.0938H171.605C170.966 17.0938 170.788 17.5035 170.788 18.0622V30.1682C170.788 31.5464 170.824 32.9246 171.143 33.8558C171.676 35.3458 173.026 36.2025 176.399 36.2025ZM199.522 35.9821C205.133 35.9821 207.903 34.3059 207.903 26.0366C207.903 19.1828 205.702 16.7244 201.475 16.7244C199.096 16.7244 196.965 17.2086 195.722 18.2143V8.97657C195.722 8.26883 195.58 7.93359 194.905 7.93359H192.632C192.1 7.93359 191.78 8.30608 191.78 8.97657V34.7901C191.78 35.6841 192.064 35.9076 192.739 35.9076H194.195C194.87 35.9076 195.189 35.8331 195.225 35.3116L195.26 34.8646C195.935 35.5351 198.031 35.9821 199.522 35.9821ZM199.025 32.4413C197.924 32.4413 196.291 32.1061 195.723 31.7708V22.5331C195.723 22.2351 195.758 21.9371 195.829 21.7881C195.9 21.5646 196.078 21.4156 196.291 21.2666C197.179 20.6706 198.848 20.4844 200.055 20.4844C203.216 20.4844 203.926 22.0116 203.926 26.2952C203.926 31.0258 203.074 32.4413 199.025 32.4413ZM219.478 36.2787C221.538 36.2787 224.344 35.8689 226.013 35.0495C226.439 34.826 226.581 34.6397 226.581 34.1927C226.581 33.8202 226.297 32.74 226.119 32.1813C226.013 31.8833 225.835 31.6598 225.516 31.6598C225.232 31.6598 224.841 31.8088 224.592 31.8833C223.42 32.2185 221.787 32.591 219.798 32.591C216.779 32.591 215.217 31.7343 215.146 27.8231H225.729C226.084 27.8231 226.368 27.7486 226.546 27.5996C226.794 27.3762 226.901 26.9292 226.901 26.3332C226.901 20.5968 226.119 16.6484 219.549 16.6484C213.903 16.6484 211.168 19.4421 211.168 26.5567C211.168 33.2615 213.157 36.2787 219.478 36.2787ZM223.065 24.5801H215.216C215.287 21.4512 216.246 19.8867 219.442 19.8867C222.532 19.8867 223.1 21.2649 223.1 23.8351C223.1 24.1331 223.1 24.3566 223.065 24.5801ZM236.81 36.2428C239.225 36.2428 241.107 35.8331 242.315 34.4549L242.421 35.2371C242.492 35.7959 242.705 35.8704 243.416 35.8704H245.12C245.831 35.8704 246.115 35.6096 246.115 34.7529V8.93932C246.115 8.11984 245.831 7.93359 245.262 7.93359H243.167C242.492 7.93359 242.173 8.19434 242.173 8.93932V17.1341C241.427 16.7989 239.935 16.6499 238.763 16.6499C232.833 16.6499 229.991 18.8476 229.991 26.8561C229.991 33.7472 232.513 36.2428 236.81 36.2428ZM238.087 32.5161C235.032 32.5161 233.967 30.9144 233.967 26.7425C233.967 21.9374 234.961 20.4102 239.01 20.4102C240.218 20.4102 241.532 20.5592 242.171 20.8944V30.4301C242.171 30.6909 242.171 30.9889 242.1 31.1751C241.993 31.3614 241.816 31.5476 241.603 31.7339C240.644 32.4043 239.259 32.5161 238.087 32.5161ZM256.733 36.1669C258.686 36.1669 260.462 35.6827 261.74 34.3417L261.811 35.1239C261.882 35.6827 262.166 35.8689 262.876 35.8689H264.51C265.185 35.8689 265.505 35.5709 265.505 34.677V22.72C265.505 20.5223 265.327 19.0696 264.368 18.0639C263.445 17.0954 261.811 16.6484 258.65 16.6484C256.946 16.6484 254.602 16.7974 252.684 17.3934C252.258 17.5052 252.009 17.7659 252.009 18.3246C252.009 18.7344 252.116 19.8519 252.258 20.3361C252.329 20.7086 252.577 20.9693 252.933 20.9693C253.217 20.9693 253.785 20.8576 254.211 20.7831C255.383 20.5223 256.768 20.4106 258.082 20.4106C260.426 20.4106 261.136 20.9693 261.42 21.7143C261.598 22.1985 261.634 22.9063 261.634 23.5023V24.6197C260.71 24.4707 259.396 24.4335 258.295 24.4335C255.951 24.4335 253.891 24.806 252.719 25.5882C251.299 26.5194 250.589 27.9349 250.589 30.1326C250.589 33.2987 251.832 36.1669 256.733 36.1669ZM257.727 32.8131C255.064 32.8131 254.353 31.7329 254.353 30.0567C254.353 29.0882 254.708 28.5667 255.17 28.2314C255.845 27.7472 257.052 27.4492 258.793 27.4492C259.716 27.4492 260.888 27.5237 261.634 27.5982V30.4291C261.634 30.8016 261.634 31.1741 261.492 31.4349C261.385 31.6584 261.137 31.9191 260.923 32.0308C260.249 32.4778 259.219 32.8131 257.727 32.8131ZM274.1 35.8668C274.668 35.8668 274.917 35.4943 274.917 34.8984V22.3082C274.917 21.9357 274.988 21.7122 275.059 21.5632C275.166 21.377 275.485 21.1535 275.698 21.0417C276.302 20.781 277.438 20.483 278.753 20.483C279.179 20.483 279.96 20.5575 280.422 20.5575C280.812 20.5575 281.132 20.4085 281.203 19.9988C281.31 19.4773 281.381 18.2853 281.381 17.7638C281.381 17.2796 281.167 16.9071 280.812 16.8326C280.386 16.7208 279.96 16.6836 279.427 16.6836C277.474 16.6836 275.627 17.5031 274.917 18.4715L274.846 17.8383C274.81 17.2423 274.562 17.0561 273.994 17.0561H271.934C271.295 17.0561 270.975 17.4658 270.975 18.1363V34.8984C270.975 35.4943 271.259 35.8668 271.792 35.8668H274.1ZM288.2 35.8678C288.661 35.8678 288.981 35.4954 288.981 34.9366V20.8192H292.355C292.994 20.8192 293.243 20.4468 293.243 19.9625V18.0628C293.243 17.5041 292.959 17.1688 292.39 17.1688H288.981V15.0829C288.981 13.5557 289.123 12.699 289.514 12.1775C289.94 11.5815 290.686 11.3207 291.893 11.3207C292.674 11.3207 293.456 11.4325 293.775 11.4325C294.166 11.4325 294.486 11.2462 294.557 10.8365C294.663 10.2033 294.77 9.12305 294.77 8.75056C294.77 8.26633 294.557 7.96833 294.237 7.85659C293.74 7.67034 292.603 7.55859 291.645 7.55859C289.23 7.55859 287.702 8.00558 286.602 9.01131C285.607 9.97978 285.074 11.4325 285.074 14.2262V17.1688H283.37C282.73 17.1688 282.482 17.6158 282.482 18.1001V19.888C282.482 20.4468 282.73 20.8192 283.405 20.8192H285.074V34.8621C285.074 35.5326 285.323 35.8678 285.82 35.8678H288.2Z" fill="white"/>
</svg>
