<svg width="111" height="89" viewBox="0 0 111 89" fill="none" xmlns="http://www.w3.org/2000/svg">
<g clip-path="url(#clip0_338369_9759)">
<path d="M109.565 34.1484C108.563 32.1646 107.352 30.2791 106.258 28.3402C105.734 27.4154 105.201 26.4906 104.804 25.512C104.551 24.8928 104.443 24.1744 104.46 23.5103C104.497 22.0201 105.283 20.8889 106.466 20.0176C106.764 19.8026 107.072 19.5872 107.379 19.3714C106.566 17.9261 105.78 16.5167 104.939 15.0261C104.099 15.4752 103.232 15.8163 102.491 16.3372C100.621 17.6479 98.7957 19.0124 96.9795 20.3949C93.5731 22.9804 89.8595 24.8389 85.5405 25.3505C85.1703 25.3953 85.0258 25.2966 84.8723 24.9646C84.3933 23.9325 83.9687 22.8637 83.3451 21.93C82.0984 20.0628 80.4088 18.788 78.0596 18.5906C75.6019 18.3842 73.5421 19.7756 73.0813 22.0646C72.7107 23.9321 73.0813 25.6739 74.274 27.1821C75.7014 28.9774 77.68 29.8214 79.8848 30.2253C80.6167 30.3599 80.6979 30.4317 80.7884 31.159C81.0141 33.0714 81.0503 34.9744 80.7161 36.8778C80.2554 39.4544 79.4236 41.8873 77.7977 43.9881C76.9213 45.1189 75.8914 46.0617 74.5359 46.6005C71.8797 47.6689 69.2775 46.9147 67.8319 44.6523C67.2445 43.7275 66.8922 42.713 66.7115 41.645C66.3048 39.1851 66.5398 36.7522 67.1272 34.3552C67.6785 32.0748 68.4644 29.8842 69.9283 27.9988C70.1719 27.6847 70.1991 27.4334 70.0907 27.0744C69.5215 25.0992 69.3859 23.106 69.8739 21.0949C69.9551 20.7722 70.0452 20.4487 70.1447 20.0808C69.9547 20.1615 69.8284 20.2064 69.7022 20.2603C67.0728 21.4274 64.9225 23.2048 63.1606 25.4312C59.1579 30.4766 57.3421 36.2223 57.6851 42.6501C57.7034 42.9736 57.595 43.3864 57.3961 43.6377C55.7516 45.7655 53.755 47.4894 51.3607 48.7369C49.933 49.4822 48.4516 50.0386 46.7978 49.9672C45.3161 49.904 44.2951 49.0959 43.9878 47.651C43.8883 47.1929 43.8343 46.6813 43.9245 46.2322C44.2951 44.3288 44.6564 42.4168 45.135 40.5407C46.2737 36.1415 47.4754 31.7603 48.6409 27.3702C48.7224 27.0744 48.8487 26.9308 49.1742 26.9039C51.2251 26.715 53.276 26.4817 55.3269 26.3022C55.7154 26.2663 55.8693 26.1137 55.9687 25.7727C56.4112 24.0936 56.872 22.4239 57.3238 20.7543C57.3689 20.5748 57.3871 20.3859 57.4322 20.1526C55.1012 20.3769 52.8335 20.5834 50.466 20.8081C51.5503 16.8757 52.5985 13.0337 53.6556 9.19099C53.5744 9.17304 53.5472 9.16406 53.52 9.16406C51.0939 9.90684 48.6694 10.655 46.2465 11.4085C46.1113 11.4534 45.9847 11.6329 45.9396 11.7854C45.569 12.9346 45.2617 14.1107 44.8553 15.2508C43.5092 19.0304 40.9971 21.571 36.9493 22.4239C36.534 22.5137 36.3713 22.7919 36.2718 23.1689C35.8382 24.7851 35.3864 26.4009 34.9435 28.0078C34.8988 28.1873 34.8623 28.3667 34.8169 28.5911C36.1455 28.3851 37.4012 28.1873 38.7205 27.9898C38.63 28.3312 38.5488 28.618 38.4765 28.8966C37.1754 33.7445 35.8382 38.5834 34.6094 43.4493C34.0764 45.5322 33.7512 47.6779 34.0943 49.8502C34.6094 53.1361 36.3169 55.542 39.4614 56.7809C42.1447 57.8403 44.9093 57.8044 47.656 56.9963C52.2372 55.6501 55.8331 52.8937 58.7422 49.195C58.8689 49.0335 58.9955 48.8809 59.14 48.6831C59.2574 48.8988 59.3386 49.042 59.4108 49.186C60.0888 50.4874 61.0282 51.5561 62.2298 52.3997C65.5278 54.725 69.142 55.1558 72.9819 54.1326C76.7313 53.1271 79.6229 50.8916 81.9085 47.8484C85.3059 43.3326 86.5887 38.1885 86.2725 32.6043C86.2278 31.8235 86.1551 31.0334 86.1101 30.3689C87.9352 29.9291 89.7332 29.5522 91.4861 29.0582C93.2658 28.5556 94.9014 27.6936 96.5184 26.6701C96.2565 28.5735 96.943 30.1804 97.6842 31.7697C98.0996 32.6492 98.5786 33.4932 99.0304 34.3552C99.8074 35.8543 100.629 37.3356 101.344 38.8616C102.265 40.8189 102.418 42.8569 101.678 44.9215C100.638 47.8484 97.422 49.5091 94.3501 48.5395C94.4224 48.2523 94.4947 47.9741 94.5669 47.6869C94.9737 46.0706 94.4585 44.5715 93.2025 43.7095C91.9376 42.839 90.1489 42.8839 88.8296 43.7993C87.3296 44.8407 86.7064 46.798 87.2484 48.7728C87.8447 50.9275 89.3987 52.1309 91.4317 52.7412C96.3832 54.2313 101.063 53.4861 105.364 50.6672C108.987 48.2971 110.785 44.8318 110.984 40.5497C111.101 38.3142 110.577 36.1415 109.565 34.1484Z" fill="#ffffff"/>
<path d="M7.40882 59.0433C10.3783 60.6992 13.6461 61.3416 17.0047 61.4863C21.8567 61.7036 26.4643 60.6629 30.8548 58.6002C31.6243 58.2382 32.3484 57.7768 33.118 57.3606C31.9503 55.4422 31.1356 53.479 30.8004 51.2618C30.5832 51.3433 30.4205 51.4065 30.2484 51.4608C29.008 51.8411 27.7952 52.3021 26.537 52.5826C23.8212 53.1981 21.0965 53.2976 18.4168 52.3837C15.7014 51.4701 13.8997 49.6875 13.2568 46.8372C12.3878 43.0368 13.4021 39.6982 15.8277 36.7574C17.8737 34.2598 20.5713 32.6402 23.4953 31.3827C25.9123 30.3419 28.4471 29.6905 31.0358 29.2291C31.3617 29.1749 31.4884 29.0212 31.57 28.7317C31.8866 27.6005 32.2218 26.4783 32.5477 25.3475C32.7831 24.542 33.0003 23.7369 33.2446 22.8772C33.0364 22.8861 32.8915 22.8861 32.7466 22.9045C30.9814 23.1487 29.2255 23.0944 27.4782 22.7773C25.4959 22.4067 23.6852 21.6828 22.2188 20.2532C19.2136 17.3214 18.8966 11.6299 21.5941 8.37279C23.4044 6.19191 25.8218 5.43205 28.5916 5.63099C29.9947 5.73046 31.3256 6.11974 32.4479 7.02432C32.6833 7.21429 32.8643 7.45885 33.1269 7.73034C32.8103 7.82981 32.5928 7.89301 32.3756 7.95658C30.6648 8.49918 29.4788 9.96506 29.3339 11.7387C29.1712 13.684 29.9042 15.1951 31.6333 16.1364C33.8875 17.3666 37.0194 16.8237 38.7306 14.8963C40.4775 12.9241 40.7852 10.5985 40.2332 8.11027C39.6446 5.4141 37.9521 3.51369 35.6256 2.19252C32.439 0.382606 29.008 -0.313687 25.351 0.129443C23.0788 0.40093 20.8517 0.826111 18.7606 1.78529C13.9269 4.01141 10.6226 7.4768 9.8173 12.9241C9.41874 15.584 9.8173 18.0996 11.3288 20.362C13.3201 23.3472 16.208 24.9313 19.6747 25.5733C19.9373 25.6182 20.2088 25.6728 20.4714 25.7181C20.2628 25.8901 20.0729 25.9623 19.874 26.0255C18.7334 26.3605 17.5746 26.6499 16.443 27.0209C11.8898 28.5047 7.84314 30.8303 4.65692 34.4588C1.05426 38.5576 -0.611489 43.3266 0.203132 48.8005C0.846038 53.406 3.37148 56.7899 7.40919 59.043L7.40882 59.0433ZM110.478 54.9811C105.744 55.5469 101.009 56.0772 96.2837 56.6882C92.4043 57.1912 88.5338 57.739 84.6723 58.3594C78.6507 59.3204 72.6292 60.2818 66.6344 61.3783C61.2338 62.3666 55.8421 63.4896 50.4776 64.6664C42.3407 66.4457 34.2489 68.404 26.265 70.758C18.0563 73.1753 9.94655 75.8524 2.09721 79.2938C1.41333 79.5993 0.729078 79.9135 0.000128578 80.2369C0.108149 80.336 0.162159 80.3809 0.225109 80.4258C3.69069 83.1391 7.17379 85.8435 10.6122 88.6018C11.2156 89.0872 11.5844 89.1141 12.2686 88.7637C17.8402 85.8615 23.6279 83.4447 29.4785 81.1624C38.3622 77.7034 47.4173 74.7294 56.5353 71.9259C68.3896 68.2784 80.3697 65.089 92.4941 62.4743C96.5627 61.5937 100.658 60.839 104.754 60.0661C106.617 59.7161 108.507 59.4464 110.424 59.123C110.613 57.7663 110.802 56.4096 111 54.9811C110.775 54.9721 110.622 54.9632 110.478 54.9811Z" fill="#ffffff"/>
</g>
<defs>
<clipPath id="clip0_338369_9759">
<rect width="111" height="89" fill="white"/>
</clipPath>
</defs>
</svg>
