<svg width="109" height="73" viewBox="0 0 109 73" fill="none" xmlns="http://www.w3.org/2000/svg">
<path fill-rule="evenodd" clip-rule="evenodd" d="M7.28759 62.6841C2.70045 56.1815 0.5 47.333 0.5 36.3594C0.5 25.3835 2.70134 16.5829 7.28759 10.0815L7.28933 10.079C12.0017 3.42032 18.8641 0 27.4844 0C36.1046 0 42.9671 3.42032 47.6794 10.079L47.6812 10.0815C52.2639 16.5779 54.5156 25.3749 54.5156 36.3594C54.5156 47.3306 52.3161 56.1833 47.6774 62.6895C42.96 69.3535 36.094 72.7188 27.4844 72.7188C18.8668 72.7188 12.0547 69.3479 7.29525 62.6949L7.28759 62.6841ZM46.0469 61.5312C50.3594 55.4844 52.5156 47.0938 52.5156 36.3594C52.5156 25.625 50.3125 17.2812 46.0469 11.2344C41.7344 5.14062 35.5 2 27.4844 2C19.4688 2 13.2344 5.14062 8.92188 11.2344C4.65625 17.2812 2.5 25.625 2.5 36.3594C2.5 47.0938 4.65625 55.4844 8.92188 61.5312C13.2812 67.625 19.4688 70.7188 27.4844 70.7188C35.5 70.7188 41.7344 67.625 46.0469 61.5312ZM61.0869 71.9688V63.4261L85.0356 32.4646C88.1088 28.4875 89.4931 25.1686 89.4931 22.3438C89.4931 20.2795 88.958 18.9139 88.1955 18.0807C87.458 17.2749 86.2666 16.7031 84.3681 16.7031C82.8385 16.7031 81.643 17.2549 80.7148 18.3027C79.7422 19.4007 78.9577 21.1715 78.6162 23.7331L78.3368 25.8287L61.9569 22.7117L62.0758 20.944C62.4818 14.9037 64.9768 9.48447 69.094 5.7295C73.2127 1.92623 78.6379 0 84.6494 0C91.3824 0 96.9087 1.95889 101.021 6.12159C105.105 10.2081 107.087 15.5252 107.087 21.9219C107.087 28.0408 104.985 33.8041 100.861 39.1709C100.861 39.1712 100.86 39.1715 100.86 39.1718L88.4713 55.3125H108.446V71.9688H61.0869ZM84.415 57.3125L99.2744 37.9531C103.165 32.8906 105.087 27.5469 105.087 21.9219C105.087 15.9688 103.259 11.1875 99.6025 7.53125C95.9463 3.82812 90.9775 2 84.6494 2C79.0713 2 74.1494 3.78125 70.4463 7.20312C66.7431 10.5781 64.4463 15.5 64.0713 21.0781L76.6338 23.4688C76.7262 22.7754 76.85 22.1199 77.0038 21.5033C78.0977 17.1173 80.7105 14.7031 84.3681 14.7031C89.0088 14.7031 91.4931 17.5625 91.4931 22.3438C91.4931 25.8125 89.8056 29.5625 86.6181 33.6875L63.0869 64.1094V69.9688H106.446V57.3125H84.415ZM31.5077 17.7558C30.4125 17.0749 29.0951 16.7031 27.4844 16.7031C25.8737 16.7031 24.5604 17.0748 23.4707 17.7544C22.375 18.4378 21.3916 19.5039 20.5597 21.0641C18.8637 24.2448 17.9062 29.2751 17.9062 36.4062C17.9062 43.5132 18.8635 48.5315 20.5591 51.7062C21.3908 53.2635 22.3741 54.3286 23.4701 55.0116C24.56 55.6908 25.8737 56.0625 27.4844 56.0625C29.0951 56.0625 30.4128 55.6908 31.5083 55.0102C32.6098 54.3258 33.5986 53.2592 34.4355 51.7018C36.1411 48.5276 37.1094 43.5103 37.1094 36.4062C37.1094 29.278 36.1409 24.2487 34.4349 21.0685C33.5978 19.5082 32.6089 18.4405 31.5077 17.7558ZM39.1094 36.4062C39.1094 21.9219 35.2188 14.7031 27.4844 14.7031C19.75 14.7031 15.9062 21.9219 15.9062 36.4062C15.9062 50.8438 19.75 58.0625 27.4844 58.0625C35.2188 58.0625 39.1094 50.8438 39.1094 36.4062Z" fill="url(#paint0_linear_338116_24023)"/>
<defs>
<linearGradient id="paint0_linear_338116_24023" x1="104.54" y1="2.17206e-06" x2="34.0239" y2="85.4305" gradientUnits="userSpaceOnUse">
<stop stop-color="#857DE4"/>
<stop offset="1" stop-color="#9BFFFB"/>
</linearGradient>
</defs>
</svg>
