<svg width="92" height="73" viewBox="0 0 92 73" fill="none" xmlns="http://www.w3.org/2000/svg">
<path fill-rule="evenodd" clip-rule="evenodd" d="M7.28759 62.6841C2.70045 56.1815 0.5 47.333 0.5 36.3594C0.5 25.3835 2.70134 16.5829 7.28759 10.0815L7.28933 10.079C12.0017 3.42032 18.8641 0 27.4844 0C36.1046 0 42.9671 3.42032 47.6794 10.079L47.6812 10.0815C52.2639 16.5779 54.5156 25.3749 54.5156 36.3594C54.5156 47.3306 52.3161 56.1833 47.6774 62.6895C42.96 69.3535 36.094 72.7188 27.4844 72.7188C18.8668 72.7188 12.0547 69.3479 7.29525 62.6949L7.28759 62.6841ZM46.0469 61.5312C50.3594 55.4844 52.5156 47.0938 52.5156 36.3594C52.5156 25.625 50.3125 17.2812 46.0469 11.2344C41.7344 5.14062 35.5 2 27.4844 2C19.4688 2 13.2344 5.14062 8.92188 11.2344C4.65625 17.2812 2.5 25.625 2.5 36.3594C2.5 47.0938 4.65625 55.4844 8.92188 61.5312C13.2812 67.625 19.4688 70.7188 27.4844 70.7188C35.5 70.7188 41.7344 67.625 46.0469 61.5312ZM61.3213 32.6603V13.2292L82.6063 0.75H91.4775V71.9688H73.8838V25.1931C72.7866 25.8498 71.6664 26.5267 70.5491 27.2019L70.5202 27.2194C68.3719 28.5177 66.2334 29.81 64.325 30.9174L61.3213 32.6603ZM73.8838 22.8643C74.5641 22.4599 75.2331 22.0658 75.8838 21.6875V69.9688H89.4775V2.75H83.1494L63.3213 14.375V29.1875C63.9637 28.8147 64.633 28.4204 65.3213 28.0113C66.661 27.2148 68.0724 26.3618 69.4967 25.5011C70.9667 24.6127 72.4506 23.7159 73.8838 22.8643ZM31.5077 17.7558C30.4125 17.0749 29.0951 16.7031 27.4844 16.7031C25.8737 16.7031 24.5604 17.0748 23.4707 17.7544C22.375 18.4378 21.3916 19.5039 20.5597 21.0641C18.8637 24.2448 17.9062 29.2751 17.9062 36.4062C17.9062 43.5132 18.8635 48.5315 20.5591 51.7062C21.3908 53.2635 22.3741 54.3286 23.4701 55.0116C24.56 55.6908 25.8737 56.0625 27.4844 56.0625C29.0951 56.0625 30.4128 55.6908 31.5083 55.0102C32.6098 54.3258 33.5986 53.2592 34.4355 51.7018C36.1411 48.5276 37.1094 43.5103 37.1094 36.4062C37.1094 29.278 36.1409 24.2487 34.4349 21.0685C33.5978 19.5082 32.6089 18.4405 31.5077 17.7558ZM39.1094 36.4062C39.1094 21.9219 35.2188 14.7031 27.4844 14.7031C19.75 14.7031 15.9062 21.9219 15.9062 36.4062C15.9062 50.8438 19.75 58.0625 27.4844 58.0625C35.2188 58.0625 39.1094 50.8438 39.1094 36.4062Z" fill="url(#paint0_linear_338116_24018)"/>
<defs>
<linearGradient id="paint0_linear_338116_24018" x1="88.1856" y1="2.17206e-06" x2="16.3829" y2="73.3144" gradientUnits="userSpaceOnUse">
<stop stop-color="#857DE4"/>
<stop offset="1" stop-color="#9BFFFB"/>
</linearGradient>
</defs>
</svg>
