<svg width="111" height="73" viewBox="0 0 111 73" fill="none" xmlns="http://www.w3.org/2000/svg">
<path fill-rule="evenodd" clip-rule="evenodd" d="M7.28759 62.6841C2.70045 56.1815 0.5 47.333 0.5 36.3594C0.5 25.3835 2.70134 16.5829 7.28759 10.0815L7.28933 10.079C12.0017 3.42032 18.8641 0 27.4844 0C36.1046 0 42.9671 3.42032 47.6794 10.079L47.6812 10.0815C52.2639 16.5779 54.5156 25.3749 54.5156 36.3594C54.5156 47.3306 52.3161 56.1833 47.6774 62.6895C42.96 69.3535 36.094 72.7188 27.4844 72.7188C18.8668 72.7188 12.0547 69.3479 7.29525 62.6949L7.28759 62.6841ZM46.0469 61.5312C50.3594 55.4844 52.5156 47.0938 52.5156 36.3594C52.5156 25.625 50.3125 17.2812 46.0469 11.2344C41.7344 5.14062 35.5 2 27.4844 2C19.4688 2 13.2344 5.14062 8.92188 11.2344C4.65625 17.2812 2.5 25.625 2.5 36.3594C2.5 47.0938 4.65625 55.4844 8.92188 61.5312C13.2812 67.625 19.4688 70.7188 27.4844 70.7188C35.5 70.7188 41.7344 67.625 46.0469 61.5312ZM60.1132 48.4614L76.7341 46.2333L77.1678 47.9681C77.912 50.9451 78.9972 52.9599 80.2859 54.2165C81.5262 55.4259 83.0846 56.0625 85.1181 56.0625C87.4 56.0625 89.1221 55.3507 90.4917 53.9855C91.8162 52.6209 92.54 50.7369 92.54 48.0312C92.54 45.0236 91.6979 42.8989 90.4703 41.5485C89.2594 40.2165 87.4941 39.4375 85.2119 39.4375C83.7395 39.4375 82.0463 39.88 80.1531 40.8897L78.6036 41.7161L71.2639 31.428L81.4317 17.4062H63.4306V0.75H106.712V8.80255L94.1361 25.7204C98.5648 26.3623 102.286 28.4133 105.145 31.9647L105.149 31.9694C108.489 36.145 110.134 41.4428 110.134 47.8438C110.134 55.1896 107.815 61.275 103.001 65.8824C98.284 70.3943 92.243 72.7188 85.1181 72.7188C78.5167 72.7188 72.8234 70.8051 68.1894 66.7375C63.5788 62.6962 60.95 57.0877 60.2993 50.3806L60.1132 48.4614ZM69.5088 65.2344C73.7275 68.9375 78.9306 70.7188 85.1181 70.7188C91.7744 70.7188 97.3056 68.5625 101.618 64.4375C105.978 60.2656 108.134 54.7344 108.134 47.8438C108.134 41.7969 106.587 36.9688 103.587 33.2188C100.848 29.816 97.2277 27.9562 92.7581 27.5742C92.1788 27.5247 91.5853 27.5 90.9775 27.5H90.3213L104.712 8.14062V2.75H65.4306V15.4062H85.3525L73.7275 31.4375L79.2119 39.125C81.3213 38 83.3369 37.4375 85.2119 37.4375C90.7431 37.4375 94.54 41.2812 94.54 48.0312C94.54 51.125 93.6963 53.5625 91.915 55.3906C90.1338 57.1719 87.8838 58.0625 85.1181 58.0625C80.1025 58.0625 76.8213 54.8281 75.2275 48.4531L62.29 50.1875C62.8994 56.4688 65.3369 61.5781 69.5088 65.2344ZM31.5077 17.7558C30.4125 17.0749 29.0951 16.7031 27.4844 16.7031C25.8737 16.7031 24.5604 17.0748 23.4707 17.7544C22.375 18.4378 21.3916 19.5039 20.5597 21.0641C18.8637 24.2448 17.9062 29.2751 17.9062 36.4062C17.9062 43.5132 18.8635 48.5315 20.5591 51.7062C21.3908 53.2635 22.3741 54.3286 23.4701 55.0116C24.56 55.6908 25.8737 56.0625 27.4844 56.0625C29.0951 56.0625 30.4128 55.6908 31.5083 55.0102C32.6098 54.3258 33.5986 53.2592 34.4355 51.7018C36.1411 48.5276 37.1094 43.5103 37.1094 36.4062C37.1094 29.278 36.1409 24.2487 34.4349 21.0685C33.5978 19.5082 32.6089 18.4405 31.5077 17.7558ZM39.1094 36.4062C39.1094 21.9219 35.2188 14.7031 27.4844 14.7031C19.75 14.7031 15.9062 21.9219 15.9062 36.4062C15.9062 50.8438 19.75 58.0625 27.4844 58.0625C35.2188 58.0625 39.1094 50.8438 39.1094 36.4062Z" fill="url(#paint0_linear_338116_24028)"/>
<defs>
<linearGradient id="paint0_linear_338116_24028" x1="106.167" y1="2.17206e-06" x2="35.8655" y2="86.5012" gradientUnits="userSpaceOnUse">
<stop stop-color="#857DE4"/>
<stop offset="1" stop-color="#9BFFFB"/>
</linearGradient>
</defs>
</svg>
